<svg width="29" height="26" viewBox="0 0 29 26" fill="none" xmlns="http://www.w3.org/2000/svg">
<path d="M26.9394 18.2489H8.91157L9.81675 16.4053L24.8566 16.378C25.3652 16.378 25.8011 16.0147 25.8919 15.5122L27.9748 3.85391C28.0292 3.54814 27.9475 3.2333 27.7477 2.99414C27.649 2.87644 27.5258 2.78163 27.3867 2.71628C27.2477 2.65094 27.0961 2.61662 26.9424 2.61572L7.80962 2.55215L7.64614 1.7832C7.54321 1.29277 7.10122 0.935547 6.59868 0.935547H1.92144C1.63801 0.935547 1.3662 1.04814 1.16578 1.24855C0.965373 1.44896 0.852783 1.72078 0.852783 2.0042C0.852783 2.28762 0.965373 2.55944 1.16578 2.75985C1.3662 2.96026 1.63801 3.07285 1.92144 3.07285H5.73286L6.44731 6.46953L8.2062 14.9854L5.94175 18.6818C5.82415 18.8406 5.75332 19.029 5.73727 19.2259C5.72122 19.4228 5.76059 19.6202 5.85093 19.7959C6.03257 20.1562 6.39888 20.3832 6.80454 20.3832H8.70571C8.30041 20.9215 8.08149 21.5772 8.08208 22.2511C8.08208 23.9645 9.47466 25.3571 11.1881 25.3571C12.9016 25.3571 14.2942 23.9645 14.2942 22.2511C14.2942 21.576 14.0702 20.919 13.6706 20.3832H18.5476C18.1423 20.9215 17.9234 21.5772 17.924 22.2511C17.924 23.9645 19.3166 25.3571 21.03 25.3571C22.7435 25.3571 24.1361 23.9645 24.1361 22.2511C24.1361 21.576 23.9121 20.919 23.5125 20.3832H26.9424C27.5297 20.3832 28.0111 19.9049 28.0111 19.3145C28.0093 19.0314 27.8957 18.7605 27.6949 18.5608C27.4941 18.3612 27.2225 18.2491 26.9394 18.2489ZM8.25464 4.65918L25.6861 4.7167L23.9787 14.2771L10.286 14.3013L8.25464 4.65918ZM11.1881 23.2077C10.6614 23.2077 10.2315 22.7778 10.2315 22.2511C10.2315 21.7243 10.6614 21.2944 11.1881 21.2944C11.7149 21.2944 12.1448 21.7243 12.1448 22.2511C12.1448 22.5048 12.044 22.7481 11.8646 22.9275C11.6852 23.1069 11.4419 23.2077 11.1881 23.2077ZM21.03 23.2077C20.5033 23.2077 20.0734 22.7778 20.0734 22.2511C20.0734 21.7243 20.5033 21.2944 21.03 21.2944C21.5568 21.2944 21.9867 21.7243 21.9867 22.2511C21.9867 22.5048 21.8859 22.7481 21.7065 22.9275C21.5271 23.1069 21.2837 23.2077 21.03 23.2077Z" fill="#626467"/>
</svg>
