<svg width="20" height="20" viewBox="0 0 20 20" fill="none" xmlns="http://www.w3.org/2000/svg">
<path d="M19.375 3.12556H11.25V1.25056C11.25 1.06431 11.1675 0.88806 11.0238 0.76931C10.8813 0.65056 10.69 0.59931 10.51 0.63681L0.51 2.51181C0.21375 2.56681 0 2.82431 0 3.12556V16.8756C0 17.1756 0.21375 17.4343 0.51 17.4893L10.51 19.3643C10.5475 19.3718 10.5863 19.3756 10.625 19.3756C10.77 19.3756 10.9113 19.3256 11.0238 19.2318C11.1675 19.1131 11.25 18.9356 11.25 18.7506V16.8756H19.375C19.72 16.8756 20 16.5956 20 16.2506V3.75056C20 3.40556 19.72 3.12556 19.375 3.12556ZM8.595 12.0893C8.8225 12.3481 8.79625 12.7431 8.53625 12.9706C8.4175 13.0743 8.27125 13.1256 8.125 13.1256C7.95125 13.1256 7.77875 13.0531 7.655 12.9118L5.8375 10.8356L4.24375 12.8856C4.12 13.0431 3.935 13.1256 3.75 13.1256C3.61625 13.1256 3.48125 13.0831 3.36625 12.9943C3.09375 12.7818 3.045 12.3893 3.25625 12.1168L4.99875 9.87681L3.28 7.91181C3.0525 7.65306 3.07875 7.25806 3.33875 7.03056C3.5975 6.80306 3.99125 6.82806 4.22125 7.08931L5.78125 8.87181L7.6325 6.49181C7.845 6.22056 8.2375 6.17056 8.51 6.38306C8.7825 6.59431 8.83125 6.98681 8.61875 7.26056L6.61875 9.83056L8.595 12.0893ZM18.75 15.6256H11.25V14.3756H13.125C13.47 14.3756 13.75 14.0956 13.75 13.7506C13.75 13.4056 13.47 13.1256 13.125 13.1256H11.25V11.8756H13.125C13.47 11.8756 13.75 11.5956 13.75 11.2506C13.75 10.9056 13.47 10.6256 13.125 10.6256H11.25V9.37556H13.125C13.47 9.37556 13.75 9.09556 13.75 8.75056C13.75 8.40556 13.47 8.12556 13.125 8.12556H11.25V6.87556H13.125C13.47 6.87556 13.75 6.59556 13.75 6.25056C13.75 5.90556 13.47 5.62556 13.125 5.62556H11.25V4.37556H18.75V15.6256Z" fill="#ADCDF0"/>
<path d="M16.875 5.62547H15.625C15.28 5.62547 15 5.90547 15 6.25048C15 6.59548 15.28 6.87548 15.625 6.87548H16.875C17.22 6.87548 17.5 6.59548 17.5 6.25048C17.5 5.90547 17.22 5.62547 16.875 5.62547Z" fill="#ADCDF0"/>
<path d="M16.875 8.12547H15.625C15.28 8.12547 15 8.40547 15 8.75047C15 9.09547 15.28 9.37547 15.625 9.37547H16.875C17.22 9.37547 17.5 9.09547 17.5 8.75047C17.5 8.40547 17.22 8.12547 16.875 8.12547Z" fill="#ADCDF0"/>
<path d="M16.875 10.6255H15.625C15.28 10.6255 15 10.9055 15 11.2505C15 11.5955 15.28 11.8755 15.625 11.8755H16.875C17.22 11.8755 17.5 11.5955 17.5 11.2505C17.5 10.9055 17.22 10.6255 16.875 10.6255Z" fill="#ADCDF0"/>
<path d="M16.875 13.1255H15.625C15.28 13.1255 15 13.4055 15 13.7505C15 14.0955 15.28 14.3755 15.625 14.3755H16.875C17.22 14.3755 17.5 14.0955 17.5 13.7505C17.5 13.4055 17.22 13.1255 16.875 13.1255Z" fill="#ADCDF0"/>
</svg>
