<svg width="250" height="251" viewBox="0 0 250 251" fill="none" xmlns="http://www.w3.org/2000/svg">
<path d="M250 191.391H0V191.516H250V191.391Z" fill="#EBEBEB"/>
<path d="M216.895 196.711H200.335V196.836H216.895V196.711Z" fill="#EBEBEB"/>
<path d="M156.535 196.651H152.19V196.776H156.535V196.651Z" fill="#EBEBEB"/>
<path d="M224.95 199.436H215.355V199.561H224.95V199.436Z" fill="#EBEBEB"/>
<path d="M57.3001 201.096H35.7051V201.221H57.3001V201.096Z" fill="#EBEBEB"/>
<path d="M55.445 195.636H52.28V195.761H55.445V195.636Z" fill="#EBEBEB"/>
<path d="M124.225 196.171H93.7749V196.296H124.225V196.171Z" fill="#EBEBEB"/>
<path d="M118.5 169.091H21.955C21.1987 169.09 20.4738 168.788 19.9394 168.253C19.4051 167.718 19.105 166.992 19.105 166.236V30.521C19.1116 29.769 19.4146 29.05 19.9482 28.5201C20.4818 27.9902 21.203 27.6923 21.955 27.691H118.5C119.257 27.691 119.983 27.9918 120.519 28.5272C121.054 29.0626 121.355 29.7888 121.355 30.546V166.236C121.355 166.993 121.054 167.719 120.519 168.255C119.983 168.79 119.257 169.091 118.5 169.091ZM21.955 27.791C21.2318 27.7923 20.5387 28.0805 20.0278 28.5924C19.5169 29.1042 19.23 29.7978 19.23 30.521V166.236C19.23 166.959 19.5169 167.653 20.0278 168.165C20.5387 168.676 21.2318 168.965 21.955 168.966H118.5C119.224 168.965 119.917 168.677 120.429 168.165C120.941 167.653 121.229 166.96 121.23 166.236V30.521C121.229 29.7974 120.941 29.1037 120.429 28.5921C119.917 28.0804 119.224 27.7923 118.5 27.791H21.955Z" fill="#EBEBEB"/>
<path d="M226.655 169.091H130.105C129.348 169.09 128.623 168.788 128.088 168.253C127.553 167.718 127.251 166.993 127.25 166.236V30.521C127.258 29.7686 127.562 29.0495 128.096 28.5198C128.631 27.99 129.353 27.6923 130.105 27.691H226.655C227.406 27.6936 228.126 27.9921 228.659 28.5219C229.191 29.0516 229.493 29.7699 229.5 30.521V166.236C229.5 166.991 229.201 167.716 228.667 168.251C228.134 168.786 227.41 169.088 226.655 169.091ZM130.105 27.791C129.381 27.7923 128.688 28.0804 128.176 28.5921C127.664 29.1037 127.376 29.7974 127.375 30.521V166.236C127.376 166.96 127.664 167.653 128.176 168.165C128.688 168.677 129.381 168.965 130.105 168.966H226.655C227.379 168.965 228.072 168.677 228.584 168.165C229.096 167.653 229.384 166.96 229.385 166.236V30.521C229.384 29.7974 229.096 29.1037 228.584 28.5921C228.072 28.0804 227.379 27.7923 226.655 27.791H130.105Z" fill="#EBEBEB"/>
<path d="M214.445 48.356H35.5549V122.801H214.445V48.356Z" fill="#F0F0F0"/>
<path d="M210.945 119.306V51.861L39.0551 51.861V119.306L210.945 119.306Z" fill="#FAFAFA"/>
<path d="M61.6851 119.301L79.3151 51.856H92.3151L74.6851 119.301H61.6851Z" fill="white"/>
<path d="M77.6851 119.301L95.3151 51.856H101.13L83.5001 119.301H77.6851Z" fill="white"/>
<path d="M106.135 119.301L123.77 51.856H136.77L119.135 119.301H106.135Z" fill="white"/>
<path d="M138.915 119.301L156.545 51.856H162.365L144.73 119.301H138.915Z" fill="white"/>
<path d="M85.105 119.306V51.861H84.215V119.306H85.105Z" fill="#E0E0E0"/>
<path d="M39.9451 119.306L39.9451 51.861H39.0551L39.0551 119.306H39.9451Z" fill="#E0E0E0"/>
<path d="M84.2151 119.306V51.861H80.7151V119.306H84.2151Z" fill="#F0F0F0"/>
<path d="M128.5 119.306V51.861H127.61V119.306H128.5Z" fill="#E0E0E0"/>
<path d="M127.61 119.306V51.861H124.11V119.306H127.61Z" fill="#F0F0F0"/>
<path d="M171.915 119.301V51.856H171.025V119.301H171.915Z" fill="#E0E0E0"/>
<path d="M171.025 119.301V51.8559H167.525V119.301H171.025Z" fill="#F0F0F0"/>
<path d="M215.335 122.801V48.3559H214.445V122.801H215.335Z" fill="#E0E0E0"/>
<path d="M217.335 43.246H32.6649C32.4598 43.2447 32.2634 43.1626 32.1183 43.0176C31.9733 42.8725 31.8912 42.6761 31.8899 42.471C31.8899 42.265 31.9714 42.0673 32.1166 41.9212C32.2618 41.7751 32.4589 41.6923 32.6649 41.691H217.335C217.541 41.6923 217.738 41.7751 217.883 41.9212C218.028 42.0673 218.11 42.265 218.11 42.471C218.109 42.6761 218.027 42.8725 217.881 43.0176C217.736 43.1626 217.54 43.2447 217.335 43.246Z" fill="#E0E0E0"/>
<g opacity="0.6">
<path opacity="0.6" d="M71.1699 40.191H33.3899V176.026H71.1699V40.191Z" fill="#F5F5F5"/>
<path opacity="0.6" d="M53.8598 177.136H50.6948L51.5848 41.301H52.9998L53.8598 177.136Z" fill="#E6E6E6"/>
<path opacity="0.6" d="M43.375 177.136H41.845L42.275 41.301H42.96L43.375 177.136Z" fill="#E6E6E6"/>
<path opacity="0.6" d="M64.375 177.136H62.845L63.275 41.301H63.96L64.375 177.136Z" fill="#E6E6E6"/>
</g>
<g opacity="0.6">
<path opacity="0.6" d="M216.16 40.191H178.38V176.026H216.16V40.191Z" fill="#F5F5F5"/>
<path opacity="0.6" d="M193.185 177.136H190.02L190.91 41.301H192.325L193.185 177.136Z" fill="#E6E6E6"/>
<path opacity="0.6" d="M186.2 177.136H184.675L185.1 41.301H185.785L186.2 177.136Z" fill="#E6E6E6"/>
<path opacity="0.6" d="M202.365 177.136H200.84L201.27 41.301H201.95L202.365 177.136Z" fill="#E6E6E6"/>
<path opacity="0.6" d="M210.145 177.136H208.62L209.045 41.301H209.73L210.145 177.136Z" fill="#E6E6E6"/>
</g>
<path d="M162.605 190.541H169.705V149.851H162.605V190.541Z" fill="#E6E6E6"/>
<path d="M80.2951 190.541H165.34V149.851H80.2951V190.541Z" fill="#F0F0F0"/>
<path d="M163.43 190.541H160.87H83.9651V191.391H160.87H163.43H166.035V190.541H163.43Z" fill="#E0E0E0"/>
<path opacity="0.5" d="M82.7201 168.816H162.915V152.396H82.7201V168.816Z" fill="#FAFAFA"/>
<path opacity="0.5" d="M82.7201 187.886H162.915V171.466H82.7201V187.886Z" fill="#FAFAFA"/>
<path d="M94.8749 160.606C94.8749 160.963 94.769 161.312 94.5707 161.609C94.3724 161.906 94.0905 162.137 93.7606 162.274C93.4308 162.41 93.0679 162.446 92.7178 162.376C92.3676 162.307 92.046 162.135 91.7936 161.882C91.5411 161.63 91.3692 161.308 91.2996 160.958C91.2299 160.608 91.2657 160.245 91.4023 159.915C91.5389 159.585 91.7703 159.304 92.0671 159.105C92.3639 158.907 92.7129 158.801 93.0699 158.801C93.3069 158.801 93.5416 158.848 93.7606 158.938C93.9796 159.029 94.1786 159.162 94.3462 159.33C94.5138 159.497 94.6468 159.696 94.7375 159.915C94.8282 160.134 94.8749 160.369 94.8749 160.606Z" fill="#E0E0E0"/>
<path d="M154.365 160.606C154.365 160.963 154.259 161.312 154.061 161.609C153.862 161.906 153.58 162.137 153.251 162.274C152.921 162.41 152.558 162.446 152.208 162.376C151.858 162.307 151.536 162.135 151.284 161.882C151.031 161.63 150.859 161.308 150.79 160.958C150.72 160.608 150.756 160.245 150.892 159.915C151.029 159.585 151.26 159.304 151.557 159.105C151.854 158.907 152.203 158.801 152.56 158.801C152.797 158.801 153.032 158.848 153.251 158.938C153.47 159.029 153.669 159.162 153.836 159.33C154.004 159.497 154.137 159.696 154.227 159.915C154.318 160.134 154.365 160.369 154.365 160.606Z" fill="#E0E0E0"/>
<path d="M93.0699 181.481C94.0668 181.481 94.8749 180.673 94.8749 179.676C94.8749 178.679 94.0668 177.871 93.0699 177.871C92.073 177.871 91.2649 178.679 91.2649 179.676C91.2649 180.673 92.073 181.481 93.0699 181.481Z" fill="#E0E0E0"/>
<path d="M154.365 179.691C154.365 180.048 154.259 180.397 154.061 180.694C153.862 180.991 153.58 181.222 153.251 181.359C152.921 181.495 152.558 181.531 152.208 181.461C151.858 181.392 151.536 181.22 151.284 180.967C151.031 180.715 150.859 180.393 150.79 180.043C150.72 179.693 150.756 179.33 150.892 179C151.029 178.67 151.26 178.388 151.557 178.19C151.854 177.992 152.203 177.886 152.56 177.886C153.039 177.886 153.498 178.076 153.836 178.415C154.175 178.753 154.365 179.212 154.365 179.691Z" fill="#E0E0E0"/>
<path d="M124.62 160.606C124.62 160.963 124.514 161.312 124.316 161.609C124.117 161.906 123.836 162.137 123.506 162.274C123.176 162.41 122.813 162.446 122.463 162.376C122.113 162.307 121.791 162.135 121.539 161.882C121.286 161.63 121.114 161.308 121.045 160.958C120.975 160.608 121.011 160.245 121.147 159.915C121.284 159.585 121.515 159.304 121.812 159.105C122.109 158.907 122.458 158.801 122.815 158.801C123.052 158.801 123.287 158.848 123.506 158.938C123.725 159.029 123.924 159.162 124.091 159.33C124.259 159.497 124.392 159.696 124.483 159.915C124.573 160.134 124.62 160.369 124.62 160.606Z" fill="#E0E0E0"/>
<path d="M122.815 181.481C123.812 181.481 124.62 180.673 124.62 179.676C124.62 178.679 123.812 177.871 122.815 177.871C121.818 177.871 121.01 178.679 121.01 179.676C121.01 180.673 121.818 181.481 122.815 181.481Z" fill="#E0E0E0"/>
<path d="M160.08 142.941C160.08 144.774 159.352 146.531 158.056 147.827C156.76 149.123 155.003 149.851 153.17 149.851C151.337 149.851 149.58 149.123 148.284 147.827C146.988 146.531 146.26 144.774 146.26 142.941H160.08Z" fill="#F0F0F0"/>
<path d="M105.445 141.691C105.445 143.851 104.587 145.923 103.059 147.45C101.532 148.978 99.4602 149.836 97.3 149.836C95.1398 149.836 93.0681 148.978 91.5407 147.45C90.0132 145.923 89.155 143.851 89.155 141.691H105.445Z" fill="#F0F0F0"/>
<path d="M140.46 145.056C140.46 146.328 139.955 147.547 139.056 148.447C138.156 149.346 136.937 149.851 135.665 149.851C134.393 149.851 133.174 149.346 132.275 148.447C131.375 147.547 130.87 146.328 130.87 145.056H140.46Z" fill="#F0F0F0"/>
<path d="M125 213.971C178.541 213.971 221.945 211.437 221.945 208.311C221.945 205.185 178.541 202.651 125 202.651C71.4587 202.651 28.0549 205.185 28.0549 208.311C28.0549 211.437 71.4587 213.971 125 213.971Z" fill="#F5F5F5"/>
<path d="M174.075 57.871C173.01 56.806 170.96 52.771 172.925 50.871C174.89 48.971 176.64 50.696 176.775 51.621C176.91 52.546 176.55 60.341 174.075 57.871Z" fill="#263238"/>
<path d="M173.625 203.016L169.16 203.056L167.945 192.736L172.405 192.696L173.625 203.016Z" fill="#EFB9B3"/>
<path d="M169.155 202.541L174.025 202.496C174.115 202.497 174.202 202.527 174.274 202.581C174.346 202.635 174.399 202.71 174.425 202.796L175.605 206.751C175.636 206.843 175.645 206.941 175.63 207.037C175.616 207.134 175.578 207.225 175.521 207.303C175.463 207.382 175.388 207.445 175.301 207.488C175.214 207.532 175.117 207.553 175.02 207.551C173.265 207.551 170.715 207.456 168.52 207.476C165.94 207.476 164.79 207.656 161.76 207.686C159.93 207.686 159.26 205.856 160.035 205.686C163.47 204.891 165.245 204.786 168.12 202.901C168.423 202.683 168.782 202.558 169.155 202.541Z" fill="#263238"/>
<path opacity="0.2" d="M167.945 192.741L168.575 198.061L173.035 198.021L172.41 192.701L167.945 192.741Z" fill="black"/>
<path d="M167.31 203.336C167.791 203.327 168.271 203.269 168.74 203.161C168.762 203.158 168.782 203.147 168.798 203.131C168.813 203.114 168.823 203.093 168.825 203.071C168.827 203.049 168.822 203.028 168.811 203.009C168.801 202.99 168.784 202.975 168.765 202.966C168.555 202.861 166.68 201.966 166.165 202.281C166.117 202.311 166.078 202.354 166.052 202.404C166.026 202.454 166.013 202.51 166.015 202.566C166.014 202.662 166.035 202.757 166.076 202.844C166.118 202.931 166.179 203.007 166.255 203.066C166.568 203.269 166.938 203.364 167.31 203.336ZM168.38 203.016C167.415 203.186 166.68 203.151 166.38 202.911C166.328 202.87 166.287 202.818 166.26 202.758C166.233 202.698 166.221 202.632 166.225 202.566C166.222 202.546 166.225 202.525 166.234 202.506C166.243 202.487 166.257 202.472 166.275 202.461C166.555 202.291 167.615 202.691 168.38 203.016Z" fill="url(#paint0_linear)"/>
<path d="M168.72 203.191C168.744 203.189 168.766 203.181 168.785 203.166C168.8 203.155 168.812 203.139 168.818 203.121C168.824 203.103 168.825 203.084 168.82 203.066C168.82 202.986 168.47 201.066 167.41 201.186C167.13 201.216 167.05 201.361 167.035 201.471C166.96 201.971 168.105 202.941 168.675 203.181L168.72 203.191ZM167.5 201.391C168.14 201.391 168.46 202.436 168.57 202.891C167.98 202.561 167.2 201.801 167.245 201.501C167.245 201.501 167.245 201.416 167.435 201.396L167.5 201.391Z" fill="url(#paint1_linear)"/>
<path d="M170.47 80.406L170.01 80.906L169.58 81.331C169.295 81.611 169 81.876 168.705 82.136C168.118 82.6627 167.518 83.1627 166.905 83.636C165.667 84.6197 164.364 85.5184 163.005 86.326C162.32 86.731 161.615 87.116 160.9 87.481C160.185 87.846 159.43 88.161 158.67 88.481C157.111 89.1027 155.488 89.5472 153.83 89.806L153.46 89.861C153.22 89.8919 152.977 89.907 152.735 89.906C152.178 89.9008 151.627 89.7923 151.11 89.586C150.597 89.3801 150.127 89.0799 149.725 88.701C149.404 88.3954 149.125 88.0491 148.895 87.671C148.576 87.1223 148.335 86.5316 148.18 85.916C148.059 85.4392 147.97 84.9548 147.915 84.466C147.824 83.6209 147.799 82.77 147.84 81.921C147.875 81.111 147.94 80.331 148.03 79.566C148.22 78.031 148.49 76.566 148.82 75.066C149.15 73.566 149.525 72.181 150.01 70.731L153.295 71.381C153.175 74.191 153.04 77.071 153.13 79.791C153.146 81.054 153.28 82.3128 153.53 83.551C153.579 83.7797 153.648 84.0038 153.735 84.221C153.805 84.391 153.89 84.496 153.885 84.451C153.856 84.3748 153.81 84.3064 153.75 84.251C153.614 84.1194 153.454 84.0143 153.28 83.941C153.1 83.8654 152.909 83.8198 152.715 83.806C152.625 83.806 152.585 83.806 152.53 83.806H152.585L152.69 83.776C153.874 83.4717 155.026 83.0531 156.13 82.526C157.285 81.9688 158.402 81.3375 159.475 80.636C160.56 79.916 161.63 79.136 162.66 78.311C163.16 77.901 163.685 77.471 164.16 77.036L164.89 76.376L165.24 76.051L165.545 75.761L170.47 80.406Z" fill="#EFB9B3"/>
<path d="M173.115 78.641C172.945 73.926 169.075 72.286 164.225 75.501C162.087 76.8566 160.029 78.3341 158.06 79.926L161.195 89.996C161.195 89.996 167.195 88.091 170.665 84.351C173 81.811 173.175 80.246 173.115 78.641Z" fill="#263238"/>
<path opacity="0.2" d="M167.21 80.651C167.21 80.651 164.315 84.791 163.29 89.191C164.713 88.5841 166.085 87.8617 167.39 87.031L167.21 80.651Z" fill="black"/>
<path d="M153.13 72.876L154.81 69.081L150.055 67.691C150.055 67.691 149.24 69.506 149.705 72.621L153.13 72.876Z" fill="#EFB9B3"/>
<path d="M155.315 64.631L151.18 65.126L150.055 67.691L154.81 69.0809L155.315 64.631Z" fill="#EFB9B3"/>
<path d="M167.24 112.821C167.24 112.821 164.17 138.551 163.83 152.321C163.48 166.626 166.285 195.481 166.285 195.481L174.34 195.311C174.34 195.311 175.31 164.421 176.48 150.266C177.75 134.836 180.95 112.541 180.95 112.541L167.24 112.821Z" fill="url(#paint2_linear)"/>
<path opacity="0.6" d="M167.24 112.821C167.24 112.821 164.17 138.551 163.83 152.321C163.48 166.626 166.285 195.481 166.285 195.481L174.34 195.311C174.34 195.311 175.31 164.421 176.48 150.266C177.75 134.836 180.95 112.541 180.95 112.541L167.24 112.821Z" fill="white"/>
<path opacity="0.2" d="M176.835 120.106C173.235 128.041 174.2 145.766 176.245 153.366C176.32 152.261 176.4 151.216 176.48 150.251C177.315 140.081 178.98 126.936 180.035 119.151C179.055 117.731 177.96 117.621 176.835 120.106Z" fill="black"/>
<path d="M175.33 195.656L165.86 195.846L165.16 192.701L175.215 192.676L175.33 195.656Z" fill="url(#paint3_linear)"/>
<path d="M193.52 203.016L189.06 203.056L187.845 192.736L192.305 192.696L193.52 203.016Z" fill="#EFB9B3"/>
<path d="M189.05 202.541L193.925 202.496C194.015 202.498 194.101 202.528 194.173 202.582C194.245 202.636 194.298 202.711 194.325 202.796L195.505 206.751C195.535 206.843 195.543 206.941 195.528 207.037C195.513 207.132 195.475 207.223 195.418 207.301C195.36 207.379 195.286 207.443 195.199 207.486C195.112 207.53 195.017 207.552 194.92 207.551C193.16 207.551 190.615 207.456 188.42 207.476C185.84 207.476 184.685 207.656 181.66 207.686C179.83 207.686 179.16 205.856 179.935 205.686C183.365 204.891 185.14 204.786 188.02 202.901C188.321 202.683 188.679 202.558 189.05 202.541Z" fill="#263238"/>
<path opacity="0.2" d="M187.845 192.741L188.47 198.061L192.935 198.021L192.31 192.701L187.845 192.741Z" fill="black"/>
<path d="M187.21 203.336C187.691 203.327 188.171 203.268 188.64 203.161C188.662 203.158 188.681 203.147 188.696 203.13C188.711 203.114 188.719 203.093 188.72 203.071C188.723 203.05 188.72 203.028 188.71 203.009C188.7 202.991 188.684 202.975 188.665 202.966C188.45 202.861 186.575 201.966 186.065 202.281C186.017 202.311 185.977 202.353 185.951 202.403C185.924 202.453 185.912 202.509 185.915 202.566C185.914 202.662 185.935 202.756 185.975 202.843C186.016 202.929 186.076 203.006 186.15 203.066C186.465 203.268 186.837 203.363 187.21 203.336ZM188.28 203.016C187.315 203.186 186.58 203.151 186.28 202.911C186.228 202.87 186.187 202.817 186.159 202.757C186.131 202.698 186.118 202.632 186.12 202.566C186.117 202.546 186.12 202.525 186.129 202.506C186.138 202.487 186.152 202.472 186.17 202.461C186.45 202.291 187.5 202.691 188.28 203.016Z" fill="url(#paint4_linear)"/>
<path d="M188.615 203.191C188.63 203.19 188.645 203.187 188.659 203.18C188.673 203.173 188.685 203.164 188.695 203.152C188.705 203.14 188.712 203.126 188.717 203.111C188.721 203.097 188.722 203.081 188.72 203.066C188.72 202.986 188.37 201.066 187.31 201.186C187.03 201.216 186.95 201.361 186.93 201.471C186.86 201.971 188.005 202.941 188.575 203.181L188.615 203.191ZM187.4 201.391C188.035 201.391 188.36 202.436 188.47 202.891C187.88 202.561 187.095 201.801 187.14 201.501C187.14 201.501 187.14 201.416 187.33 201.396L187.4 201.391Z" fill="url(#paint5_linear)"/>
<path d="M175.1 112.651C175.1 112.651 177.325 140.336 178.95 153.996C180.635 168.206 186.185 195.466 186.185 195.466L194.24 195.296C194.24 195.296 192.03 164.346 191.175 150.166C190.24 134.691 190 112.311 190 112.311L175.1 112.651Z" fill="url(#paint6_linear)"/>
<path opacity="0.6" d="M175.1 112.651C175.1 112.651 177.325 140.336 178.95 153.996C180.635 168.206 186.185 195.466 186.185 195.466L194.24 195.296C194.24 195.296 192.03 164.346 191.175 150.166C190.24 134.691 190 112.311 190 112.311L175.1 112.651Z" fill="white"/>
<path d="M195.23 195.656L185.755 195.846L185.06 192.701L195.115 192.676L195.23 195.656Z" fill="url(#paint7_linear)"/>
<path d="M166.685 74.266C166.685 74.266 163.39 86.496 167.24 112.821C174.43 112.666 186.505 112.386 190 112.321C190.09 108.656 187.385 90.6861 190.55 73.361C188.273 72.9679 185.97 72.7439 183.66 72.691C180.279 72.5676 176.893 72.641 173.52 72.911C171.21 73.1844 168.925 73.6374 166.685 74.266Z" fill="#263238"/>
<path opacity="0.2" d="M189.17 85.691L185.445 82.606C185.69 85.016 187.87 90.921 189.02 93.911C189 91.291 189.025 88.526 189.17 85.691Z" fill="black"/>
<path d="M175.845 81.356L171.78 89.401C171.694 89.57 171.664 89.7618 171.694 89.9489C171.724 90.1359 171.813 90.3086 171.948 90.4421C172.082 90.5755 172.256 90.6628 172.443 90.6914C172.63 90.7199 172.822 90.6883 172.99 90.601L175.645 89.141C175.789 89.0634 175.953 89.0279 176.116 89.0385C176.28 89.0491 176.437 89.1054 176.57 89.201L179.185 91.086C179.335 91.1953 179.517 91.2533 179.702 91.2515C179.888 91.2497 180.068 91.1882 180.216 91.076C180.364 90.9639 180.472 90.8071 180.524 90.6288C180.576 90.4505 180.57 90.2602 180.505 90.086L177.45 81.496C177.397 81.3326 177.297 81.1885 177.162 81.0815C177.028 80.9746 176.865 80.9096 176.694 80.8947C176.523 80.8798 176.351 80.9156 176.2 80.9976C176.049 81.0796 175.926 81.2043 175.845 81.356Z" fill="white"/>
<path d="M182.41 61.2711C181.84 64.5511 181.33 70.541 183.66 72.666C183.66 72.666 182.98 75.636 176.775 76.666C172.605 75.326 173.52 72.906 173.52 72.906C177.14 71.956 176.985 69.2611 176.3 66.7411L182.41 61.2711Z" fill="#EFB9B3"/>
<path opacity="0.2" d="M179.92 63.496L176.3 66.716C176.469 67.303 176.586 67.9036 176.65 68.511C178.04 68.281 179.915 66.711 180.03 65.256C180.101 64.6675 180.064 64.071 179.92 63.496Z" fill="black"/>
<path d="M184.395 57.236C183.19 61.496 182.705 64.051 180.045 65.796C176.045 68.416 171.14 65.296 171.045 60.751C170.955 56.671 172.935 50.386 177.545 49.586C178.558 49.4064 179.599 49.4883 180.571 49.8239C181.543 50.1596 182.414 50.7379 183.1 51.504C183.786 52.2702 184.265 53.1988 184.491 54.2019C184.718 55.205 184.685 56.2494 184.395 57.236Z" fill="#EFB9B3"/>
<path d="M181.83 59.846C181.27 58.486 180.865 54.006 183.2 52.906C185.535 51.806 187.96 54.491 187.345 55.761C186.4 57.731 183.13 62.996 181.83 59.846Z" fill="#263238"/>
<path d="M183.225 54.486C182.65 52.986 175.795 52.136 174.835 50.521C173.695 48.601 178.37 48.371 181.585 49.346C184.41 50.206 186.295 51.036 185.965 53.136C185.78 54.326 183.225 54.486 183.225 54.486Z" fill="#263238"/>
<path d="M184.715 52.941C184.715 52.941 186.215 53.351 187.035 52.251C186.775 53.341 185.5 54.441 184.715 52.941Z" fill="#263238"/>
<path d="M177.85 48.316C175.79 46.716 172.985 48.596 173.25 50.681C173.515 52.766 180.46 54.351 180.46 54.351C180.46 54.351 180.585 50.441 177.85 48.316Z" fill="#263238"/>
<path d="M173.255 50.691C173.57 52.151 174.635 53.296 176.79 54.146C175.543 53.2237 174.598 51.9515 174.075 50.491L173.255 50.691Z" fill="#263238"/>
<path d="M177.58 57.021C177.505 57.376 177.26 57.621 177.03 57.571C176.8 57.521 176.675 57.191 176.75 56.841C176.825 56.491 177.075 56.246 177.305 56.296C177.535 56.346 177.66 56.691 177.58 57.021Z" fill="#263238"/>
<path d="M173.61 56.1611C173.53 56.5111 173.285 56.7561 173.055 56.7061C172.825 56.6561 172.7 56.3311 172.775 55.9811C172.85 55.6311 173.1 55.3861 173.33 55.4311C173.56 55.4761 173.685 55.8111 173.61 56.1611Z" fill="#263238"/>
<path d="M174.835 56.611C174.182 57.5946 173.396 58.483 172.5 59.251C173 59.966 174.115 59.931 174.115 59.931L174.835 56.611Z" fill="#EE9C93"/>
<path d="M174.925 61.126C175.394 61.2426 175.885 61.244 176.355 61.1299C176.825 61.0159 177.261 60.7898 177.625 60.471C177.635 60.4613 177.643 60.4496 177.648 60.4367C177.654 60.4238 177.656 60.41 177.656 60.396C177.656 60.3821 177.654 60.3682 177.648 60.3554C177.643 60.3425 177.635 60.3308 177.625 60.321C177.604 60.3021 177.578 60.2915 177.55 60.2915C177.522 60.2915 177.495 60.3021 177.475 60.321C177.133 60.6084 176.73 60.8118 176.295 60.9151C175.861 61.0185 175.409 61.0188 174.975 60.916C174.947 60.9101 174.918 60.9154 174.894 60.9309C174.87 60.9463 174.853 60.9707 174.847 60.9985C174.841 61.0264 174.847 61.0555 174.862 61.0794C174.878 61.1033 174.902 61.1201 174.93 61.126H174.925Z" fill="#263238"/>
<path d="M179.055 56.001C179.093 56.0087 179.133 56.0057 179.17 55.9925C179.207 55.9793 179.239 55.9562 179.264 55.9259C179.289 55.8955 179.305 55.859 179.31 55.8203C179.316 55.7815 179.31 55.742 179.295 55.706C179.16 55.3981 178.953 55.1267 178.693 54.9146C178.432 54.7024 178.124 54.5555 177.795 54.486C177.739 54.4788 177.683 54.4936 177.638 54.5272C177.594 54.5609 177.564 54.6107 177.555 54.666C177.551 54.6933 177.552 54.7211 177.558 54.7479C177.565 54.7747 177.577 54.8 177.593 54.8223C177.609 54.8446 177.63 54.8634 177.653 54.8778C177.677 54.8922 177.703 54.9018 177.73 54.906C177.989 54.963 178.231 55.0813 178.436 55.2509C178.64 55.4205 178.801 55.6366 178.905 55.881C178.919 55.9113 178.94 55.9379 178.966 55.9587C178.992 55.9795 179.022 55.994 179.055 56.001Z" fill="#263238"/>
<path d="M172.16 54.416C172.199 54.4269 172.241 54.4255 172.279 54.4121C172.317 54.3987 172.351 54.3739 172.375 54.341C172.533 54.1286 172.739 53.9564 172.976 53.8383C173.213 53.7202 173.475 53.6595 173.74 53.661C173.795 53.6663 173.851 53.6493 173.894 53.6137C173.937 53.578 173.964 53.5267 173.97 53.471C173.975 53.4153 173.958 53.3598 173.922 53.3167C173.887 53.2735 173.835 53.2463 173.78 53.241C173.444 53.2311 173.111 53.3022 172.809 53.4485C172.507 53.5947 172.245 53.8117 172.045 54.081C172.027 54.1024 172.014 54.1272 172.006 54.1538C171.998 54.1805 171.996 54.2084 171.999 54.236C172.002 54.2636 172.011 54.2903 172.025 54.3143C172.039 54.3384 172.058 54.3594 172.08 54.376C172.103 54.3961 172.13 54.4099 172.16 54.416Z" fill="#263238"/>
<path d="M191.64 76.7711C192.55 78.3611 193.31 79.9011 194.1 81.4861C194.89 83.0711 195.6 84.6661 196.275 86.2961C196.95 87.9261 197.605 89.5811 198.175 91.2961C198.768 93.0064 199.268 94.7472 199.675 96.5111L199.98 97.8761C200.113 98.5171 200.17 99.1716 200.15 99.8261C200.108 101.042 199.838 102.239 199.355 103.356C198.506 105.238 197.299 106.936 195.8 108.356C194.463 109.647 193.007 110.807 191.45 111.821C190.695 112.321 189.915 112.781 189.13 113.221C188.345 113.661 187.565 114.066 186.69 114.451L185.03 111.546C185.635 111.046 186.3 110.546 186.92 110.006C187.54 109.466 188.145 108.916 188.745 108.366C189.904 107.291 190.978 106.13 191.96 104.891C192.833 103.829 193.51 102.62 193.96 101.321C194.115 100.837 194.176 100.328 194.14 99.8211C194.125 99.6172 194.087 99.4158 194.025 99.2211L193.685 98.1011C192.675 94.9944 191.472 91.9536 190.085 88.9961C189.4 87.4961 188.67 85.9961 187.94 84.4961C187.21 82.9961 186.44 81.4961 185.695 80.0711L191.64 76.7711Z" fill="#EFB9B3"/>
<path d="M190.72 73.386C194.89 74.286 197.79 85.166 197.79 85.166L190.335 91.931C187.965 89.2941 186.1 86.2432 184.835 82.931C182.86 77.486 186.26 72.416 190.72 73.386Z" fill="#263238"/>
<path d="M185.935 111.031L181.14 111.081L184.14 115.916C184.14 115.916 187.555 115.071 187.86 113.356L185.935 111.031Z" fill="#EFB9B3"/>
<path d="M178.155 113.936L180.8 117.816L184.115 115.916L181.14 111.081L178.155 113.936Z" fill="#EFB9B3"/>
<path d="M185.705 61.136C185.172 62.1162 184.274 62.8459 183.205 63.166C181.785 63.581 181.06 62.316 181.44 60.971C181.785 59.761 182.94 58.086 184.36 58.261C185.78 58.436 186.34 59.931 185.705 61.136Z" fill="#EFB9B3"/>
<path d="M143.207 143.864L137.876 144.251L137.912 144.75L143.243 144.363L143.207 143.864Z" fill="url(#paint8_linear)"/>
<path d="M147.997 143.519L145.379 143.709L145.415 144.207L148.033 144.017L147.997 143.519Z" fill="url(#paint9_linear)"/>
<path d="M171 84.826L82.72 91.191C80.8826 91.3343 79.1759 92.1965 77.9703 93.5903C76.7646 94.9841 76.1572 96.7971 76.28 98.636L79.28 140.246C79.422 142.086 80.285 143.796 81.6812 145.003C83.0773 146.21 84.8937 146.816 86.735 146.691L91.735 146.331C92.0982 146.305 92.457 146.424 92.7326 146.662C93.0082 146.9 93.1781 147.238 93.205 147.601L93.765 155.311C93.7741 155.46 93.8277 155.603 93.9188 155.722C94.0099 155.841 94.1345 155.929 94.2764 155.977C94.4183 156.024 94.5711 156.028 94.7152 155.988C94.8593 155.947 94.9881 155.865 95.085 155.751L103.455 146.076C103.807 145.671 104.305 145.421 104.84 145.381L175 140.326C176.838 140.184 178.546 139.322 179.753 137.928C180.96 136.534 181.568 134.721 181.445 132.881L178.445 91.271C178.303 89.4327 177.441 87.7248 176.047 86.5181C174.653 85.3113 172.84 84.7033 171 84.826Z" fill="url(#paint10_linear)"/>
<path d="M95.615 110.291L100.385 109.946L100.775 115.346L105.985 114.971L105.595 109.571L110.385 109.221L111.5 124.651L106.71 124.996L106.26 118.756L101.05 119.136L101.5 125.376L96.735 125.721L95.615 110.291Z" fill="white"/>
<path opacity="0.2" d="M82.72 91.1909C80.8826 91.3343 79.1759 92.1964 77.9703 93.5902C76.7646 94.9841 76.1572 96.7971 76.28 98.6359L79.28 140.246C79.422 142.086 80.285 143.796 81.6812 145.003C83.0773 146.21 84.8937 146.816 86.735 146.691L87.47 146.636C88.6912 146.548 89.8491 146.059 90.764 145.245C91.679 144.431 92.2997 143.339 92.53 142.136L102.585 89.756L82.72 91.1909Z" fill="black"/>
<path d="M126.465 119.021L117.875 119.641C117.941 120.197 118.175 120.721 118.545 121.141C118.757 121.365 119.019 121.536 119.308 121.642C119.598 121.748 119.908 121.785 120.215 121.751C120.636 121.721 121.042 121.583 121.395 121.351C121.671 121.142 121.906 120.884 122.09 120.591L126.34 120.676C125.878 121.724 125.127 122.619 124.175 123.256C123.302 123.809 122.012 124.143 120.305 124.256C119.112 124.395 117.903 124.267 116.765 123.881C115.853 123.498 115.07 122.861 114.51 122.046C113.868 121.118 113.499 120.028 113.445 118.901C113.356 118.118 113.432 117.325 113.668 116.573C113.903 115.822 114.294 115.127 114.815 114.536C115.855 113.376 117.355 112.724 119.315 112.581C120.613 112.427 121.928 112.581 123.155 113.031C124.094 113.432 124.886 114.115 125.42 114.986C126.032 116.067 126.375 117.28 126.42 118.521L126.465 119.021ZM121.965 117.281C121.904 116.631 121.624 116.021 121.17 115.551C120.941 115.375 120.679 115.248 120.399 115.178C120.12 115.107 119.829 115.095 119.544 115.142C119.259 115.189 118.987 115.294 118.745 115.45C118.503 115.607 118.295 115.811 118.135 116.051C117.868 116.521 117.733 117.055 117.745 117.596L121.965 117.281Z" fill="white"/>
<path d="M127.79 107.966L132.085 107.656L133.2 123.081L128.905 123.391L127.79 107.966Z" fill="white"/>
<path d="M134.965 107.446L139.26 107.136L140.375 122.561L136.085 122.871L134.965 107.446Z" fill="white"/>
<path d="M142.185 116.846C142.104 116.063 142.188 115.272 142.433 114.525C142.678 113.777 143.077 113.089 143.605 112.506C144.675 111.316 146.19 110.649 148.15 110.506C150.383 110.346 152.12 110.873 153.36 112.086C154.39 113.172 154.985 114.599 155.032 116.095C155.079 117.591 154.575 119.052 153.615 120.201C152.555 121.381 151.018 122.048 149.005 122.201C147.441 122.389 145.861 122.017 144.545 121.151C143.845 120.665 143.267 120.023 142.858 119.276C142.448 118.529 142.218 117.697 142.185 116.846ZM146.48 116.526C146.472 117.315 146.743 118.082 147.245 118.691C147.447 118.898 147.693 119.059 147.963 119.162C148.234 119.266 148.524 119.309 148.813 119.289C149.103 119.269 149.384 119.186 149.638 119.047C149.892 118.907 150.113 118.714 150.285 118.481C150.689 117.785 150.841 116.971 150.715 116.176C150.72 115.403 150.453 114.652 149.96 114.056C149.767 113.845 149.529 113.681 149.263 113.577C148.996 113.473 148.71 113.431 148.425 113.456C148.128 113.47 147.838 113.552 147.578 113.696C147.318 113.84 147.094 114.042 146.925 114.286C146.522 114.959 146.371 115.752 146.5 116.526H146.48Z" fill="white"/>
<path d="M156.385 105.896L160.96 105.566L161.215 109.066L160.84 116.191L158.01 116.396L156.635 109.396L156.385 105.896ZM157.385 117.536L161.655 117.226L161.93 121.006L157.655 121.311L157.385 117.536Z" fill="white"/>
<path d="M81.5001 77.491C81.4777 78.223 81.5162 78.9555 81.6151 79.681C77.0844 81.194 72.2525 81.5768 67.5401 80.796C67.7663 79.9408 67.9037 79.0645 67.9501 78.181C67.7925 79.0706 67.4829 79.9264 67.0351 80.711C66.1451 80.541 65.6451 80.396 65.6451 80.396C65.6451 80.396 66.5551 75.476 64.9151 71.896C63.2751 68.316 64.0951 66.316 65.3351 65.751C67.6351 58.681 76.2801 59.796 79.2051 62.666C82.9151 66.306 82.9351 76.561 83.5951 78.906C83.0501 79.141 82.5151 79.356 81.9801 79.546C81.7121 78.8908 81.5501 78.1971 81.5001 77.491Z" fill="#263238"/>
<path d="M85.075 88.4961L85.525 89.9211C85.69 90.4211 85.855 90.9211 86.025 91.3961C86.36 92.3961 86.71 93.3961 87.085 94.3561C87.46 95.3161 87.82 96.3261 88.21 97.3061L88.79 98.8061L88.935 99.1761L88.97 99.2611C88.9082 99.207 88.8371 99.1646 88.76 99.1361C88.65 99.0961 88.605 99.1361 88.675 99.1361C88.7955 99.1356 88.9151 99.117 89.03 99.0811C89.421 98.9572 89.7967 98.7894 90.15 98.5811C91.0027 98.0842 91.8182 97.5261 92.59 96.9111C93.4 96.2811 94.195 95.6061 94.975 94.9111C95.755 94.2161 96.54 93.4911 97.295 92.7811L98.83 94.0811C98.19 95.0011 97.515 95.8411 96.83 96.6961C96.145 97.5511 95.375 98.3511 94.585 99.1461C93.7718 99.976 92.8867 100.732 91.94 101.406C91.3984 101.786 90.8165 102.104 90.205 102.356C89.8169 102.512 89.4102 102.616 88.995 102.666C88.4316 102.736 87.8595 102.659 87.335 102.441C86.7633 102.197 86.2763 101.79 85.935 101.271C85.86 101.156 85.79 101.041 85.735 100.936L85.6 100.666L85.42 100.301C85.185 99.8011 84.92 99.3011 84.715 98.8311C84.26 97.8311 83.805 96.8311 83.39 95.8311C82.975 94.8311 82.57 93.8011 82.185 92.7711C82.005 92.2711 81.825 91.7261 81.655 91.2011C81.485 90.6761 81.32 90.1611 81.155 89.5461L85.075 88.4961Z" fill="#FFC3BD"/>
<path d="M83.8899 84.056C85.6149 84.496 86.8199 91.586 86.8199 91.586L82.0699 94.816C82.0699 94.816 77.5199 87.661 78.8449 85.766C80.2249 83.796 81.3749 83.416 83.8899 84.056Z" fill="url(#paint11_linear)"/>
<path d="M83.8899 84.056C85.6149 84.496 86.8199 91.586 86.8199 91.586L82.0699 94.816C82.0699 94.816 77.5199 87.661 78.8449 85.766C80.2249 83.796 81.3749 83.416 83.8899 84.056Z" fill="url(#paint12_linear)"/>
<path opacity="0.4" d="M83.8899 84.056C85.6149 84.496 86.8199 91.586 86.8199 91.586L82.0699 94.816C82.0699 94.816 77.5199 87.661 78.8449 85.766C80.2249 83.796 81.3749 83.416 83.8899 84.056Z" fill="white"/>
<path opacity="0.3" d="M83.7349 85.641L85.0599 92.786L82.3899 94.596L83.7349 85.641Z" fill="black"/>
<path d="M97.2151 92.9511L98.8001 89.1311L100.755 92.9511C100.755 92.9511 99.4851 94.8511 97.8101 94.3861L97.2151 92.9511Z" fill="#FFC3BD"/>
<path d="M100.545 88.736L103.055 89.746L100.755 92.951L98.7949 89.131L100.545 88.736Z" fill="#FFC3BD"/>
<path d="M74.5649 203.416H78.7499L79.0299 193.731H74.8449L74.5649 203.416Z" fill="#FFC3BD"/>
<path d="M46.5049 190.941L50.3499 192.581L55.3849 184.201L51.5349 182.561L46.5049 190.941Z" fill="#FFC3BD"/>
<path d="M51.09 192.011L47.09 189.551C47.0216 189.507 46.9394 189.49 46.8591 189.503C46.7788 189.516 46.7061 189.558 46.655 189.621L44.25 192.506C44.1902 192.581 44.1472 192.669 44.1239 192.762C44.1007 192.856 44.0977 192.953 44.1153 193.048C44.1328 193.143 44.1704 193.233 44.2255 193.312C44.2807 193.391 44.3521 193.457 44.435 193.506C45.845 194.341 46.565 194.671 48.325 195.751C49.41 196.421 50.92 197.501 52.415 198.421C53.91 199.341 54.915 197.921 54.36 197.396C51.935 195.081 52.005 193.981 51.55 192.611C51.4744 192.362 51.3109 192.149 51.09 192.011Z" fill="#263238"/>
<path d="M78.89 202.931H74.195C74.1142 202.93 74.0357 202.958 73.9742 203.011C73.9126 203.063 73.8721 203.136 73.86 203.216L73.325 206.936C73.3119 207.031 73.3198 207.129 73.3479 207.221C73.3761 207.313 73.4239 207.398 73.4881 207.469C73.5523 207.541 73.6313 207.598 73.7197 207.637C73.8081 207.675 73.9037 207.693 74 207.691C75.64 207.666 76.43 207.566 78.5 207.566C79.77 207.566 82.4 207.701 84.155 207.701C85.91 207.701 86 205.966 85.27 205.806C81.995 205.101 80.705 204.131 79.6 203.206C79.4043 203.032 79.1521 202.934 78.89 202.931Z" fill="#263238"/>
<path opacity="0.2" d="M79.025 193.736L78.885 198.726H74.7L74.845 193.736H79.025Z" fill="black"/>
<path opacity="0.2" d="M51.5349 182.566L55.3799 184.201L52.7849 188.521L48.9399 186.881L51.5349 182.566Z" fill="black"/>
<path d="M83.8899 84.056C83.8899 84.056 85.8899 84.756 81.8899 109.291H64.8899C65.1749 102.381 65.1849 98.121 61.8899 83.936C64.267 83.4447 66.6767 83.1272 69.0999 82.986C71.6682 82.8008 74.2466 82.8008 76.8149 82.986C80.1349 83.286 83.8899 84.056 83.8899 84.056Z" fill="url(#paint13_linear)"/>
<path opacity="0.4" d="M83.8899 84.056C83.8899 84.056 85.8899 84.756 81.8899 109.291H64.8899C65.1749 102.381 65.1849 98.121 61.8899 83.936C64.267 83.4447 66.6767 83.1272 69.0999 82.986C71.6682 82.8008 74.2466 82.8008 76.8149 82.986C80.1349 83.286 83.8899 84.056 83.8899 84.056Z" fill="white"/>
<path d="M69.1099 82.981C71.6784 82.8007 74.2564 82.8007 76.8249 82.981C77.2399 83.021 77.6649 83.066 78.0849 83.116C78.2597 83.3788 78.3718 83.6782 78.4126 83.9911C78.4533 84.3041 78.4216 84.6222 78.3199 84.921C77.7749 86.266 75.8199 86.421 74.3999 86.421C69.1449 86.421 68.2549 83.351 68.2199 83.221L68.1699 83.036L69.1099 82.981Z" fill="white"/>
<path d="M69.8749 74.301C70.3749 76.801 70.8499 81.331 69.1099 82.986C69.1099 82.986 69.7899 85.486 74.3999 85.486C79.4699 85.486 76.8249 82.986 76.8249 82.986C74.0549 82.326 74.1299 80.271 74.6099 78.346L69.8749 74.301Z" fill="#FFC3BD"/>
<path d="M70.38 72.536C69.785 74.501 70.61 79.151 71.835 80.951C69.42 79.566 68.605 75.346 68.605 75.346L70.38 72.536Z" fill="#263238"/>
<path opacity="0.2" d="M71.805 75.951L74.61 78.341C74.4869 78.7891 74.4066 79.2478 74.37 79.711C73.315 79.556 71.87 78.396 71.75 77.291C71.6879 76.8446 71.7065 76.3908 71.805 75.951Z" fill="black"/>
<path d="M67.5849 69.871C68.5549 73.906 68.8749 75.636 71.3049 77.371C74.9599 79.976 79.7049 77.906 79.9599 73.661C80.1899 69.841 78.5699 63.886 74.2949 62.966C73.353 62.758 72.3735 62.7942 71.4495 63.0712C70.5255 63.3481 69.6877 63.8566 69.0154 64.5484C68.3432 65.2402 67.8589 66.0923 67.6085 67.0238C67.3582 67.9554 67.35 68.9355 67.5849 69.871Z" fill="#FFC3BD"/>
<path d="M81.8949 109.291C81.8949 109.291 85.1899 141.501 84.8949 154.251C84.6099 167.511 79.7499 197.751 79.7499 197.751H74.0999C74.0999 197.751 74.9949 168.276 74.4949 155.251C73.9499 141.051 69.4399 109.281 69.4399 109.281L81.8949 109.291Z" fill="url(#paint14_linear)"/>
<path opacity="0.4" d="M81.8949 109.291C81.8949 109.291 85.1899 141.501 84.8949 154.251C84.6099 167.511 79.7499 197.751 79.7499 197.751H74.0999C74.0999 197.751 74.9949 168.276 74.4949 155.251C73.9499 141.051 69.4399 109.281 69.4399 109.281L81.8949 109.291Z" fill="black"/>
<path d="M73.6301 197.961H80.2601L80.7501 195.846L73.3201 195.586L73.6301 197.961Z" fill="url(#paint15_linear)"/>
<path opacity="0.2" d="M74.57 117.306C78.74 125.696 75.405 141.001 73.93 146.696C73.175 138.146 71.9 127.696 70.905 120.011C71.535 115.691 72.645 113.436 74.57 117.306Z" fill="black"/>
<path d="M77.4101 109.291C77.4101 109.291 73.5601 142.791 70.6551 153.526C67.2101 166.291 54.0951 188.026 54.0951 188.026L48.8501 185.796C48.8501 185.796 56.9651 161.116 59.6051 154.391C65.2301 140.041 60.4151 118.656 64.9101 109.291H77.4101Z" fill="url(#paint16_linear)"/>
<path opacity="0.4" d="M77.4101 109.291C77.4101 109.291 73.5601 142.791 70.6551 153.526C67.2101 166.291 54.0951 188.026 54.0951 188.026L48.8501 185.796C48.8501 185.796 56.9651 161.116 59.6051 154.391C65.2301 140.041 60.4151 118.656 64.9101 109.291H77.4101Z" fill="black"/>
<path d="M48.125 185.811L54.635 188.581L56.2 186.831L48.69 183.226L48.125 185.811Z" fill="url(#paint17_linear)"/>
<path d="M74 69.926C74.06 70.256 74.28 70.496 74.5 70.456C74.72 70.416 74.845 70.116 74.785 69.786C74.725 69.456 74.505 69.216 74.285 69.251C74.065 69.286 73.915 69.591 74 69.926Z" fill="#263238"/>
<path d="M77.73 69.266C77.785 69.596 78.01 69.836 78.23 69.796C78.45 69.756 78.5799 69.456 78.5199 69.126C78.4599 68.796 78.2399 68.556 78.02 68.591C77.8 68.626 77.67 68.931 77.73 69.266Z" fill="#263238"/>
<path d="M77.9248 68.6311L78.6798 68.2561C78.6798 68.2561 78.3798 68.951 77.9248 68.6311Z" fill="#263238"/>
<path d="M76.835 70.0111C77.2642 70.7167 77.7892 71.3595 78.395 71.9211C78.2465 72.0713 78.0673 72.1875 77.8697 72.2617C77.672 72.336 77.4606 72.3665 77.25 72.3511L76.835 70.0111Z" fill="#ED847E"/>
<path d="M75.7451 73.916C75.9345 73.9157 76.1235 73.899 76.3101 73.866C76.3243 73.8655 76.3383 73.8618 76.3511 73.8554C76.3638 73.849 76.3751 73.8399 76.384 73.8287C76.393 73.8176 76.3994 73.8047 76.4029 73.7908C76.4065 73.777 76.407 73.7625 76.4045 73.7484C76.4019 73.7344 76.3964 73.721 76.3883 73.7093C76.3802 73.6975 76.3696 73.6876 76.3574 73.6803C76.3451 73.673 76.3314 73.6683 76.3172 73.6667C76.303 73.6651 76.2886 73.6666 76.2751 73.671C75.8633 73.7531 75.438 73.7365 75.0339 73.6227C74.6298 73.5088 74.2584 73.3009 73.9501 73.016C73.9314 72.9977 73.9062 72.9875 73.8801 72.9875C73.8539 72.9875 73.8288 72.9977 73.8101 73.016C73.8004 73.0249 73.7926 73.0358 73.7873 73.0478C73.782 73.0599 73.7793 73.0729 73.7793 73.086C73.7793 73.0992 73.782 73.1122 73.7873 73.1243C73.7926 73.1363 73.8004 73.1471 73.8101 73.156C74.3319 73.651 75.0259 73.9235 75.7451 73.916Z" fill="#263238"/>
<path d="M69.0001 67.5061C69.1094 68.5693 69.2763 69.6259 69.5001 70.6711C69.5001 70.6711 72.0001 67.5061 72.4151 65.8111C72.3159 66.4784 72.1223 67.1282 71.8401 67.7411C71.8401 67.7411 75.2051 67.0061 75.5351 64.7861C75.5294 65.7799 75.4188 66.7704 75.2051 67.7411C75.2051 67.7411 78.4151 66.4811 78.1201 64.3511C77.8251 62.2211 72.8951 61.3961 70.6201 62.1161C68.3451 62.8361 66.1201 65.1711 66.7901 68.3811C67.4601 71.5911 68.7451 72.7961 68.7451 72.7961C68.7451 72.7961 67.8201 69.5611 69.0001 67.5061Z" fill="#263238"/>
<path d="M67.4101 72.911C67.7187 73.6517 68.3085 74.2397 69.0501 74.546C70.0501 74.946 70.6451 74.091 70.4701 73.101C70.3151 72.206 69.6101 70.926 68.5751 70.946C68.3486 70.956 68.1282 71.0223 67.9338 71.1389C67.7393 71.2554 67.577 71.4185 67.4614 71.6135C67.3457 71.8085 67.2805 72.0293 67.2716 72.2558C67.2626 72.4823 67.3102 72.7075 67.4101 72.911Z" fill="#FFC3BD"/>
<path d="M69.6051 65.966C69.1051 67.966 70.1451 72.566 71.4551 74.301C68.9551 73.036 67.9551 68.856 67.9551 68.856L69.6051 65.966Z" fill="#263238"/>
<path d="M72.6301 68.786C72.6557 68.7783 72.6796 68.7654 72.7002 68.7482C72.7208 68.731 72.7378 68.7099 72.7501 68.686C72.8555 68.4605 73.0128 68.2631 73.2092 68.1102C73.4057 67.9572 73.6356 67.853 73.8801 67.806C73.9318 67.7986 73.9787 67.7716 74.0112 67.7307C74.0437 67.6899 74.0594 67.6381 74.0551 67.586C74.0526 67.5599 74.0449 67.5345 74.0324 67.5114C74.0199 67.4884 74.0029 67.468 73.9823 67.4517C73.9618 67.4354 73.9381 67.4233 73.9128 67.4163C73.8875 67.4094 73.8611 67.4075 73.8351 67.411C73.5249 67.4648 73.2322 67.5924 72.9816 67.783C72.731 67.9735 72.5298 68.2215 72.3951 68.506C72.3781 68.5408 72.3715 68.5797 72.3762 68.6181C72.3809 68.6565 72.3967 68.6928 72.4216 68.7224C72.4464 68.752 72.4794 68.7738 72.5164 68.7851C72.5534 68.7964 72.5929 68.7967 72.6301 68.786Z" fill="#263238"/>
<path d="M79.095 67.2361C79.1202 67.2371 79.1452 67.2328 79.1685 67.2233C79.1918 67.2138 79.2128 67.1994 79.23 67.1811C79.2667 67.1437 79.2872 67.0934 79.2872 67.0411C79.2872 66.9887 79.2667 66.9384 79.23 66.9011C79.0168 66.6703 78.7523 66.493 78.4578 66.3835C78.1633 66.2741 77.8472 66.2356 77.535 66.271C77.509 66.2758 77.4843 66.2857 77.4621 66.3002C77.44 66.3146 77.4209 66.3333 77.406 66.3552C77.3911 66.377 77.3807 66.4016 77.3754 66.4275C77.3701 66.4534 77.37 66.4801 77.375 66.5061C77.3859 66.5566 77.4159 66.601 77.4588 66.6299C77.5017 66.6588 77.5541 66.67 77.605 66.6611C77.8512 66.6335 78.1004 66.6645 78.3323 66.7514C78.5643 66.8382 78.7725 66.9786 78.94 67.1611C78.9587 67.1843 78.9822 67.2031 79.0091 67.2161C79.0359 67.2291 79.0652 67.2359 79.095 67.2361Z" fill="#263238"/>
<path d="M63.965 89.871C63.27 92.066 62.605 94.371 62.04 96.641C61.4713 98.8819 61.0553 101.159 60.795 103.456L60.755 103.876C60.755 104.011 60.755 104.041 60.755 104.161C60.7605 104.397 60.7789 104.632 60.81 104.866C60.8737 105.414 60.9654 105.958 61.085 106.496C61.32 107.611 61.585 108.761 61.925 109.901C62.265 111.041 62.555 112.201 62.895 113.351L63.895 116.801L62.04 117.566C60.9 115.386 59.91 113.166 58.985 110.876C58.54 109.726 58.105 108.566 57.745 107.341C57.565 106.731 57.395 106.106 57.245 105.426C57.1738 105.066 57.1237 104.702 57.095 104.336C57.095 104.151 57.095 103.876 57.095 103.711V103.211C57.1374 101.937 57.2542 100.666 57.445 99.406C57.61 98.156 57.855 96.936 58.12 95.721C58.6402 93.2877 59.3081 90.8882 60.12 88.536L63.965 89.871Z" fill="#FFC3BD"/>
<path d="M61.9 83.936C60.2 84.436 58.155 90.311 58.155 90.311L64.755 95.031C64.755 95.031 67.165 90.141 66.45 87.941C65.705 85.651 63.845 83.346 61.9 83.936Z" fill="url(#paint18_linear)"/>
<path opacity="0.4" d="M61.9 83.936C60.2 84.436 58.155 90.311 58.155 90.311L64.755 95.031C64.755 95.031 67.165 90.141 66.45 87.941C65.705 85.651 63.845 83.346 61.9 83.936Z" fill="white"/>
<path d="M52.7799 193.601C52.8612 193.572 52.9352 193.526 52.9966 193.466C53.0579 193.405 53.1052 193.332 53.1349 193.251C53.1638 193.199 53.179 193.14 53.179 193.081C53.179 193.021 53.1638 192.963 53.1349 192.911C52.8349 192.471 51.3199 192.506 51.1349 192.511C51.1157 192.511 51.0971 192.517 51.0811 192.528C51.0652 192.538 51.0526 192.553 51.0449 192.571C51.0352 192.587 51.03 192.605 51.03 192.623C51.03 192.642 51.0352 192.66 51.0449 192.676C51.4399 193.071 52.1799 193.716 52.6999 193.616L52.7799 193.601ZM51.3749 192.691C51.9799 192.691 52.7899 192.776 52.9499 193.011C52.9636 193.034 52.9708 193.06 52.9708 193.086C52.9708 193.112 52.9636 193.138 52.9499 193.161C52.9278 193.221 52.8911 193.275 52.8432 193.318C52.7952 193.361 52.7374 193.391 52.6749 193.406C52.3999 193.476 51.9199 193.191 51.3749 192.691Z" fill="url(#paint19_linear)"/>
<path d="M51.82 192.586C52.28 192.441 52.77 192.186 52.875 191.901C52.9011 191.827 52.9015 191.746 52.8761 191.672C52.8507 191.597 52.801 191.534 52.735 191.491C52.6768 191.442 52.6082 191.408 52.5346 191.39C52.461 191.371 52.3842 191.37 52.31 191.386C51.715 191.491 51.075 192.511 51.05 192.556C51.0412 192.571 51.0366 192.588 51.0366 192.606C51.0366 192.624 51.0412 192.641 51.05 192.656C51.059 192.671 51.0715 192.683 51.0863 192.692C51.1011 192.7 51.1178 192.705 51.135 192.706C51.368 192.699 51.5987 192.659 51.82 192.586ZM52.28 191.586H52.345C52.392 191.576 52.4406 191.577 52.4873 191.588C52.534 191.599 52.5776 191.621 52.615 191.651C52.715 191.731 52.705 191.791 52.69 191.836C52.59 192.111 51.83 192.441 51.325 192.506C51.5548 192.122 51.8849 191.807 52.28 191.596V191.586Z" fill="url(#paint20_linear)"/>
<path d="M80.46 203.661C80.8124 203.69 81.1644 203.6 81.46 203.406C81.5287 203.344 81.581 203.266 81.6124 203.178C81.6438 203.091 81.6533 202.998 81.64 202.906C81.6361 202.852 81.6184 202.799 81.5886 202.754C81.5589 202.708 81.5181 202.671 81.47 202.646C80.97 202.366 79.295 203.216 79.105 203.311C79.0866 203.319 79.0709 203.331 79.0599 203.348C79.0489 203.364 79.043 203.384 79.043 203.403C79.043 203.423 79.0489 203.443 79.0599 203.459C79.0709 203.476 79.0866 203.488 79.105 203.496C79.5499 203.597 80.0039 203.652 80.46 203.661ZM81.205 202.796C81.2686 202.792 81.3322 202.804 81.39 202.831C81.4097 202.842 81.4262 202.858 81.4376 202.877C81.449 202.896 81.455 202.918 81.455 202.941C81.4643 202.998 81.4591 203.057 81.4399 203.112C81.4207 203.167 81.3881 203.217 81.345 203.256C81.09 203.486 80.4 203.526 79.475 203.371C80.0149 203.083 80.5999 202.888 81.205 202.796Z" fill="url(#paint21_linear)"/>
<path d="M79.165 203.516H79.205C79.705 203.291 80.705 202.391 80.615 201.916C80.615 201.801 80.515 201.666 80.24 201.636C80.1416 201.625 80.0419 201.634 79.9473 201.664C79.8526 201.693 79.7651 201.741 79.69 201.806C79.19 202.246 79.07 203.371 79.065 203.416C79.0644 203.434 79.0682 203.451 79.076 203.467C79.0839 203.482 79.0956 203.496 79.11 203.506C79.1264 203.516 79.1461 203.52 79.165 203.516ZM80.165 201.821H80.225C80.405 201.821 80.42 201.916 80.42 201.936C80.47 202.221 79.8 202.936 79.29 203.241C79.33 202.766 79.517 202.315 79.825 201.951C79.9167 201.868 80.0361 201.821 80.16 201.821H80.165Z" fill="url(#paint22_linear)"/>
<path d="M64.655 108.296L64.225 109.796C64.165 109.911 64.305 110.031 64.5 110.031H82C82.155 110.031 82.28 109.956 82.29 109.861L82.445 108.361C82.445 108.256 82.32 108.166 82.155 108.166H64.935C64.8811 108.162 64.827 108.172 64.778 108.194C64.7289 108.217 64.6866 108.252 64.655 108.296Z" fill="#263238"/>
<path d="M66.965 110.216H66.5C66.41 110.216 66.34 110.171 66.345 110.111L66.56 108.111C66.56 108.056 66.65 108.006 66.74 108.006H67.2C67.295 108.006 67.36 108.056 67.355 108.111L67.14 110.111C67.14 110.191 67.06 110.216 66.965 110.216Z" fill="url(#paint23_linear)"/>
<path opacity="0.4" d="M66.965 110.216H66.5C66.41 110.216 66.34 110.171 66.345 110.111L66.56 108.111C66.56 108.056 66.65 108.006 66.74 108.006H67.2C67.295 108.006 67.36 108.056 67.355 108.111L67.14 110.111C67.14 110.191 67.06 110.216 66.965 110.216Z" fill="black"/>
<path d="M80.6799 110.216H80.2199C80.1299 110.216 80.0599 110.171 80.0649 110.111L80.285 108.111C80.285 108.056 80.3699 108.006 80.4599 108.006H80.9199C81.0149 108.006 81.0849 108.056 81.0749 108.111L80.8599 110.111C80.8549 110.191 80.7749 110.216 80.6799 110.216Z" fill="url(#paint24_linear)"/>
<path opacity="0.4" d="M80.6799 110.216H80.2199C80.1299 110.216 80.0599 110.171 80.0649 110.111L80.285 108.111C80.285 108.056 80.3699 108.006 80.4599 108.006H80.9199C81.0149 108.006 81.0849 108.056 81.0749 108.111L80.8599 110.111C80.8549 110.191 80.7749 110.216 80.6799 110.216Z" fill="black"/>
<path d="M73.8249 110.216H73.3649C73.2699 110.216 73.1999 110.171 73.2099 110.111L73.4249 108.111C73.4249 108.056 73.5099 108.006 73.6049 108.006H74.0649C74.1549 108.006 74.2249 108.056 74.2199 108.111L74.0049 110.111C73.9999 110.191 73.9149 110.216 73.8249 110.216Z" fill="url(#paint25_linear)"/>
<path opacity="0.4" d="M73.8249 110.216H73.3649C73.2699 110.216 73.1999 110.171 73.2099 110.111L73.4249 108.111C73.4249 108.056 73.5099 108.006 73.6049 108.006H74.0649C74.1549 108.006 74.2249 108.056 74.2199 108.111L74.0049 110.111C73.9999 110.191 73.9149 110.216 73.8249 110.216Z" fill="black"/>
<path d="M74.1699 69.286L74.9249 68.916C74.9249 68.916 74.6249 69.611 74.1699 69.286Z" fill="#263238"/>
<path d="M63.7551 116.236L67.34 118.986L63.1851 119.901C63.1851 119.901 61.4201 117.901 62.0301 116.251L63.7551 116.236Z" fill="#FFC3BD"/>
<path d="M68.22 122.391L64.7 122.966L62.78 119.356L67.34 118.986L68.22 122.391Z" fill="#FFC3BD"/>
<defs>
<linearGradient id="paint0_linear" x1="166.393" y1="200.949" x2="169.828" y2="203.747" gradientUnits="userSpaceOnUse">
<stop offset="0.0249741" stop-color="#51BA65"/>
<stop offset="0.987852" stop-color="#384DA1"/>
</linearGradient>
<linearGradient id="paint1_linear" x1="167.273" y1="198.922" x2="170.632" y2="199.9" gradientUnits="userSpaceOnUse">
<stop offset="0.0249741" stop-color="#51BA65"/>
<stop offset="0.987852" stop-color="#384DA1"/>
</linearGradient>
<linearGradient id="paint2_linear" x1="166.111" y1="19.3616" x2="200.829" y2="21.7064" gradientUnits="userSpaceOnUse">
<stop offset="0.0249741" stop-color="#51BA65"/>
<stop offset="0.987852" stop-color="#384DA1"/>
</linearGradient>
<linearGradient id="paint3_linear" x1="166.531" y1="189.115" x2="176.388" y2="199.444" gradientUnits="userSpaceOnUse">
<stop offset="0.0249741" stop-color="#51BA65"/>
<stop offset="0.987852" stop-color="#384DA1"/>
</linearGradient>
<linearGradient id="paint4_linear" x1="186.293" y1="200.949" x2="189.726" y2="203.743" gradientUnits="userSpaceOnUse">
<stop offset="0.0249741" stop-color="#51BA65"/>
<stop offset="0.987852" stop-color="#384DA1"/>
</linearGradient>
<linearGradient id="paint5_linear" x1="187.169" y1="198.922" x2="190.531" y2="199.902" gradientUnits="userSpaceOnUse">
<stop offset="0.0249741" stop-color="#51BA65"/>
<stop offset="0.987852" stop-color="#384DA1"/>
</linearGradient>
<linearGradient id="paint6_linear" x1="177.68" y1="18.89" x2="216.383" y2="21.7998" gradientUnits="userSpaceOnUse">
<stop offset="0.0249741" stop-color="#51BA65"/>
<stop offset="0.987852" stop-color="#384DA1"/>
</linearGradient>
<linearGradient id="paint7_linear" x1="186.431" y1="189.115" x2="196.288" y2="199.444" gradientUnits="userSpaceOnUse">
<stop offset="0.0249741" stop-color="#51BA65"/>
<stop offset="0.987852" stop-color="#384DA1"/>
</linearGradient>
<linearGradient id="paint8_linear" x1="138.554" y1="143.639" x2="139.584" y2="146.448" gradientUnits="userSpaceOnUse">
<stop offset="0.0249741" stop-color="#51BA65"/>
<stop offset="0.987852" stop-color="#384DA1"/>
</linearGradient>
<linearGradient id="paint9_linear" x1="145.691" y1="143.123" x2="147.21" y2="145.342" gradientUnits="userSpaceOnUse">
<stop offset="0.0249741" stop-color="#51BA65"/>
<stop offset="0.987852" stop-color="#384DA1"/>
</linearGradient>
<linearGradient id="paint10_linear" x1="90.443" y1="4.81506" x2="263.96" y2="88.5473" gradientUnits="userSpaceOnUse">
<stop offset="0.0249741" stop-color="#51BA65"/>
<stop offset="0.987852" stop-color="#384DA1"/>
</linearGradient>
<linearGradient id="paint11_linear" x1="79.7105" y1="71.3612" x2="95.4885" y2="75.195" gradientUnits="userSpaceOnUse">
<stop offset="0.0249741" stop-color="#51BA65"/>
<stop offset="0.987852" stop-color="#384DA1"/>
</linearGradient>
<linearGradient id="paint12_linear" x1="79.7105" y1="71.3612" x2="95.4885" y2="75.195" gradientUnits="userSpaceOnUse">
<stop offset="0.0249741" stop-color="#51BA65"/>
<stop offset="0.987852" stop-color="#384DA1"/>
</linearGradient>
<linearGradient id="paint13_linear" x1="64.9225" y1="53.1385" x2="107.397" y2="64.9429" gradientUnits="userSpaceOnUse">
<stop offset="0.0249741" stop-color="#51BA65"/>
<stop offset="0.987852" stop-color="#384DA1"/>
</linearGradient>
<linearGradient id="paint14_linear" x1="71.5255" y1="9.88883" x2="102.89" y2="11.6806" gradientUnits="userSpaceOnUse">
<stop offset="0.0249741" stop-color="#51BA65"/>
<stop offset="0.987852" stop-color="#384DA1"/>
</linearGradient>
<linearGradient id="paint15_linear" x1="74.3215" y1="192.918" x2="81.7129" y2="200.471" gradientUnits="userSpaceOnUse">
<stop offset="0.0249741" stop-color="#51BA65"/>
<stop offset="0.987852" stop-color="#384DA1"/>
</linearGradient>
<linearGradient id="paint16_linear" x1="52.6995" y1="20.8357" x2="109.974" y2="27.6217" gradientUnits="userSpaceOnUse">
<stop offset="0.0249741" stop-color="#51BA65"/>
<stop offset="0.987852" stop-color="#384DA1"/>
</linearGradient>
<linearGradient id="paint17_linear" x1="49.2134" y1="177.21" x2="62.4284" y2="183.719" gradientUnits="userSpaceOnUse">
<stop offset="0.0249741" stop-color="#51BA65"/>
<stop offset="0.987852" stop-color="#384DA1"/>
</linearGradient>
<linearGradient id="paint18_linear" x1="59.2909" y1="71.2727" x2="75.4507" y2="75.2485" gradientUnits="userSpaceOnUse">
<stop offset="0.0249741" stop-color="#51BA65"/>
<stop offset="0.987852" stop-color="#384DA1"/>
</linearGradient>
<linearGradient id="paint19_linear" x1="51.3197" y1="191.252" x2="54.4543" y2="193.22" gradientUnits="userSpaceOnUse">
<stop offset="0.0249741" stop-color="#51BA65"/>
<stop offset="0.987852" stop-color="#384DA1"/>
</linearGradient>
<linearGradient id="paint20_linear" x1="51.2871" y1="189.88" x2="54.4154" y2="191.306" gradientUnits="userSpaceOnUse">
<stop offset="0.0249741" stop-color="#51BA65"/>
<stop offset="0.987852" stop-color="#384DA1"/>
</linearGradient>
<linearGradient id="paint21_linear" x1="79.3938" y1="201.38" x2="82.6539" y2="203.955" gradientUnits="userSpaceOnUse">
<stop offset="0.0249741" stop-color="#51BA65"/>
<stop offset="0.987852" stop-color="#384DA1"/>
</linearGradient>
<linearGradient id="paint22_linear" x1="79.2746" y1="199.513" x2="82.2242" y2="200.307" gradientUnits="userSpaceOnUse">
<stop offset="0.0249741" stop-color="#51BA65"/>
<stop offset="0.987852" stop-color="#384DA1"/>
</linearGradient>
<linearGradient id="paint23_linear" x1="66.4809" y1="105.523" x2="68.491" y2="105.823" gradientUnits="userSpaceOnUse">
<stop offset="0.0249741" stop-color="#51BA65"/>
<stop offset="0.987852" stop-color="#384DA1"/>
</linearGradient>
<linearGradient id="paint24_linear" x1="80.201" y1="105.523" x2="82.2124" y2="105.824" gradientUnits="userSpaceOnUse">
<stop offset="0.0249741" stop-color="#51BA65"/>
<stop offset="0.987852" stop-color="#384DA1"/>
</linearGradient>
<linearGradient id="paint25_linear" x1="73.3453" y1="105.523" x2="75.3567" y2="105.824" gradientUnits="userSpaceOnUse">
<stop offset="0.0249741" stop-color="#51BA65"/>
<stop offset="0.987852" stop-color="#384DA1"/>
</linearGradient>
</defs>
</svg>
