<svg xmlns="http://www.w3.org/2000/svg" data-name="Layer 1" viewBox="0 0 100 125" x="0px" y="0px"><title>ALL</title><path d="M48.45,63A12.71,12.71,0,1,1,61.16,50.26,12.73,12.73,0,0,1,48.45,63Zm0-23.43A10.71,10.71,0,1,0,59.16,50.26,10.73,10.73,0,0,0,48.45,39.55Z"/><path d="M18.63,38.74a8.21,8.21,0,1,1,8.21-8.21A8.22,8.22,0,0,1,18.63,38.74Zm0-14.42a6.21,6.21,0,1,0,6.21,6.21A6.22,6.22,0,0,0,18.63,24.32Z"/><path d="M29,76.58a8.21,8.21,0,1,1,8.21-8.21A8.22,8.22,0,0,1,29,76.58Zm0-14.42a6.21,6.21,0,1,0,6.21,6.21A6.21,6.21,0,0,0,29,62.17Z"/><path d="M72.57,91a8.21,8.21,0,1,1,8.21-8.21A8.22,8.22,0,0,1,72.57,91Zm0-14.42a6.21,6.21,0,1,0,6.21,6.21A6.22,6.22,0,0,0,72.57,76.58Z"/><path d="M81.37,45.85a8.21,8.21,0,1,1,8.21-8.21A8.22,8.22,0,0,1,81.37,45.85Zm0-14.42a6.21,6.21,0,1,0,6.21,6.21A6.22,6.22,0,0,0,81.37,31.44Z"/><path d="M56.18,25.42a8.21,8.21,0,1,1,8.21-8.21A8.22,8.22,0,0,1,56.18,25.42Zm0-14.42a6.21,6.21,0,1,0,6.21,6.21A6.22,6.22,0,0,0,56.18,11Z"/><path d="M59.39,47.07A1,1,0,0,1,59,45.13l15.25-5.84A1,1,0,1,1,75,41.16L59.74,47A1,1,0,0,1,59.39,47.07Z"/><path d="M68.28,78a1,1,0,0,1-.8-0.4L54.62,60.26a1,1,0,1,1,1.61-1.19L69.08,76.41A1,1,0,0,1,68.28,78Z"/><path d="M34.24,64.47a1,1,0,0,1-.68-1.73l5.63-5.23A1,1,0,0,1,40.55,59L34.92,64.2A1,1,0,0,1,34.24,64.47Z"/><path d="M38.68,44.8a1,1,0,0,1-.55-0.17l-14-9.29a1,1,0,0,1,1.1-1.67l14,9.29A1,1,0,0,1,38.68,44.8Z"/><path d="M51.11,39.85l-0.23,0a1,1,0,0,1-.75-1.2L53.56,24a1,1,0,0,1,1.95.46L52.09,39.08A1,1,0,0,1,51.11,39.85Z"/></svg>