<svg width="228" height="227" viewBox="0 0 228 227" fill="none" xmlns="http://www.w3.org/2000/svg">
<g clip-path="url(#clip0)">
<path d="M227.5 173.61H0.5V173.723H227.5V173.61Z" fill="#EBEBEB"/>
<path d="M39.3534 177.932H24.3169V178.045H39.3534V177.932Z" fill="#EBEBEB"/>
<path d="M82.143 176.701H66.48V176.815H82.143V176.701Z" fill="#EBEBEB"/>
<path d="M60.2012 180.125H35.0405V180.238H60.2012V180.125Z" fill="#EBEBEB"/>
<path d="M204.269 180.542H184.661V180.656H204.269V180.542Z" fill="#EBEBEB"/>
<path d="M179.072 177.705H168.675V177.818H179.072V177.705Z" fill="#EBEBEB"/>
<path d="M131.847 179.525H89.3159V179.639H131.847V179.525Z" fill="#EBEBEB"/>
<path d="M108.098 153.361H20.435C19.7482 153.36 19.09 153.086 18.6048 152.6C18.1197 152.114 17.8472 151.456 17.8472 150.769V27.5396C17.8531 26.8568 18.1283 26.2039 18.6128 25.7228C19.0973 25.2417 19.7521 24.9711 20.435 24.97H108.098C108.785 24.97 109.445 25.2431 109.931 25.7292C110.417 26.2154 110.69 26.8748 110.69 27.5623V150.769C110.69 151.456 110.417 152.116 109.931 152.602C109.445 153.088 108.785 153.361 108.098 153.361ZM20.435 25.0608C19.7783 25.062 19.149 25.3237 18.6851 25.7884C18.2212 26.2532 17.9607 26.883 17.9607 27.5396V150.769C17.9607 151.425 18.2212 152.055 18.6851 152.52C19.149 152.985 19.7783 153.246 20.435 153.248H108.098C108.755 153.246 109.385 152.985 109.849 152.52C110.314 152.056 110.575 151.426 110.577 150.769V27.5396C110.575 26.8826 110.314 26.2527 109.849 25.7881C109.385 25.3235 108.755 25.062 108.098 25.0608H20.435Z" fill="#EBEBEB"/>
<path d="M206.303 153.361H118.635C117.948 153.36 117.289 153.086 116.804 152.601C116.318 152.115 116.044 151.456 116.043 150.769V27.5396C116.05 26.8564 116.326 26.2035 116.812 25.7225C117.297 25.2415 117.952 24.9711 118.635 24.97H206.303C206.985 24.9723 207.638 25.2434 208.122 25.7244C208.605 26.2054 208.88 26.8576 208.886 27.5396V150.769C208.886 151.455 208.614 152.113 208.13 152.599C207.646 153.085 206.989 153.359 206.303 153.361ZM118.635 25.0608C117.978 25.062 117.348 25.3235 116.884 25.7881C116.419 26.2527 116.158 26.8826 116.156 27.5396V150.769C116.158 151.426 116.419 152.056 116.884 152.52C117.348 152.985 117.978 153.246 118.635 153.248H206.303C206.96 153.246 207.59 152.985 208.054 152.52C208.519 152.056 208.78 151.426 208.782 150.769V27.5396C208.78 26.8826 208.519 26.2527 208.054 25.7881C207.59 25.3235 206.96 25.062 206.303 25.0608H118.635Z" fill="#EBEBEB"/>
<path d="M60.5507 143.4H67.4561V116.646H60.5507V143.4Z" fill="#E6E6E6"/>
<path d="M41.8369 143.396H64.7503L68.2098 112.083H45.2964L41.8369 143.396Z" fill="#F0F0F0"/>
<path d="M39.353 143.396H63.02L66.4795 112.083H42.8125L39.353 143.396Z" fill="#F5F5F5"/>
<path d="M61.3135 140.931L64.2281 114.549H44.5245L41.6099 140.931H61.3135Z" fill="white"/>
<path d="M57.2502 134.534L57.3728 133.462C58.1037 126.843 53.9678 120.946 48.6015 120.946L48.4834 122.022C47.7525 128.636 51.8839 134.534 57.2502 134.534Z" fill="#F5F5F5"/>
<path d="M49.4095 91.1904L185.178 91.1904V41.9496L49.4095 41.9496V91.1904Z" fill="#E6E6E6"/>
<path d="M46.9396 91.1904L184.025 91.1904V41.9496L46.9396 41.9496V91.1904Z" fill="#F0F0F0"/>
<path d="M49.4095 95.7803L185.178 95.7803V91.1903L49.4095 91.1903V95.7803Z" fill="#E6E6E6"/>
<path d="M42.8219 95.7803L179.907 95.7803V91.1903L42.8219 91.1903V95.7803Z" fill="#F0F0F0"/>
<path d="M180.565 87.7356V45.4092L50.3945 45.4092V87.7356H180.565Z" fill="#FAFAFA"/>
<path d="M166.646 87.7356L149.725 45.4092H134.875L151.796 87.7356H166.646Z" fill="white"/>
<path d="M93.3155 87.7356L76.3949 45.4092H61.54L78.4606 87.7356H93.3155Z" fill="white"/>
<path d="M148.604 87.7356L131.683 45.4092H125.89L142.811 87.7356H148.604Z" fill="white"/>
<path d="M50.835 87.7356V45.4092H50.3946V87.7356H50.835Z" fill="#E6E6E6"/>
<path d="M26.5504 173.61H46.9077L46.9077 143.396H26.5504L26.5504 173.61Z" fill="#E6E6E6"/>
<path d="M28.5983 173.61H26.5508V167.785H30.7457L28.5983 173.61Z" fill="#F0F0F0"/>
<path d="M83.6046 173.61H103.962V143.396H83.6046V173.61Z" fill="#E6E6E6"/>
<path d="M26.5506 170.037H85.3936V143.4H26.5506V170.037Z" fill="#F0F0F0"/>
<path d="M83.3457 173.61H85.3932V167.785H81.1982L83.3457 173.61Z" fill="#F0F0F0"/>
<path d="M28.1393 155.813H83.8042V145.062H28.1393V155.813Z" fill="#E6E6E6"/>
<path d="M52.256 152.09H59.6789C61.2747 152.09 62.8537 151.764 64.3197 151.134C65.7856 150.503 67.1076 149.58 68.205 148.422H43.7344C44.8308 149.58 46.1519 150.503 47.6171 151.134C49.0823 151.765 50.6608 152.09 52.256 152.09Z" fill="#F0F0F0"/>
<path d="M28.1393 168.298H83.8042V157.547H28.1393V168.298Z" fill="#E6E6E6"/>
<path d="M52.256 164.557H59.6789C61.2747 164.557 62.8537 164.231 64.3197 163.601C65.7856 162.97 67.1076 162.047 68.205 160.888H43.7344C44.8308 162.047 46.1519 162.97 47.6171 163.601C49.0823 164.231 50.6608 164.557 52.256 164.557Z" fill="#F0F0F0"/>
<path d="M157.094 130.806C157.074 130.709 157.021 130.622 156.944 130.56C156.867 130.498 156.77 130.465 156.671 130.466H140.332C140.234 130.465 140.138 130.499 140.062 130.561C139.985 130.623 139.933 130.71 139.914 130.806L134.103 173.609H134.979L140.672 131.324H156.317L162.01 173.609H162.891L157.094 130.806Z" fill="#F0F0F0"/>
<path d="M188.746 130.806C188.726 130.709 188.673 130.622 188.596 130.56C188.519 130.498 188.423 130.465 188.324 130.466H171.98C171.881 130.465 171.785 130.498 171.708 130.56C171.631 130.622 171.578 130.709 171.558 130.806L165.756 173.609H166.632L172.325 131.324H187.975L193.668 173.609H194.544L188.746 130.806Z" fill="#F0F0F0"/>
<path d="M189.214 127.197H137.794C135.338 127.197 133.345 128.378 133.345 129.84V129.93C133.345 130.462 134.071 130.893 134.966 130.893H192.038C192.946 130.893 193.663 130.462 193.663 129.93V129.844C193.663 128.378 191.67 127.197 189.214 127.197Z" fill="#E0E0E0"/>
<path d="M192.361 106.009H158.36L153.435 126.089H187.435L192.361 106.009Z" fill="#E6E6E6"/>
<path d="M187.435 126.089L187.294 127.197H153.294L153.43 126.089H187.435Z" fill="#E6E6E6"/>
<path d="M191.316 106.009H157.316L152.386 126.089H186.386L191.316 106.009Z" fill="#F0F0F0"/>
<path d="M185.669 125.168L190.145 106.926H158.034L153.557 125.168H185.669Z" fill="white"/>
<path d="M177.528 126.089L177.392 127.197H139.951L140.087 126.089H177.528Z" fill="#F0F0F0"/>
<path d="M81.6659 142.166H82.188C82.188 141.08 82.188 138.334 82.247 132.037C82.3379 120.619 82.5195 119.924 82.5195 119.924L81.2664 125.195C80.4764 131.029 81.4979 136.895 81.6659 142.166Z" fill="#E6E6E6"/>
<path d="M80.6263 124.396C78.8103 122.249 74.974 121.622 71.0288 121.086C69.4806 120.878 75.1148 124.414 77.8388 126.925C79.968 128.877 81.33 129.417 81.9248 131.36C82.2199 128.936 82.179 126.258 80.6263 124.396Z" fill="#E6E6E6"/>
<path d="M83.0146 128.246C84.8306 126.098 88.6669 125.476 92.6121 124.941C94.1603 124.732 88.5261 128.269 85.8021 130.779C83.6729 132.731 82.3063 133.272 81.7161 135.215C81.412 132.79 81.4619 130.098 83.0146 128.246Z" fill="#E6E6E6"/>
<path d="M82.2428 119.402C83.6048 116.832 86.9962 114.408 90.8098 113.5C92.308 113.141 87.3412 118.24 85.4526 121.531C83.9862 124.083 82.0385 127.088 81.7389 129.249C81.2803 124.991 80.8944 121.985 82.2428 119.402Z" fill="#E6E6E6"/>
<path d="M82.0838 143.396C80.4766 143.396 79.1419 142.592 79.0511 141.557L78.7832 139.796H85.398L85.1301 141.557C85.0257 142.592 83.6955 143.396 82.0838 143.396Z" fill="#F0F0F0"/>
<path d="M85.8111 140.472H78.3564L78.1431 138.506H86.0245L85.8111 140.472Z" fill="#F0F0F0"/>
<path d="M114 194.112C162.616 194.112 202.026 191.811 202.026 188.973C202.026 186.135 162.616 183.834 114 183.834C65.3847 183.834 25.9741 186.135 25.9741 188.973C25.9741 191.811 65.3847 194.112 114 194.112Z" fill="#F5F5F5"/>
<path d="M141.821 181.591L138.371 180.746L139.401 172.529L142.856 173.373L141.821 181.591Z" fill="#FFB573"/>
<path d="M171.894 185.346H168.339L165.574 177.115H169.125L171.894 185.346Z" fill="#FFB573"/>
<path d="M167.867 184.932H172.198C172.268 184.932 172.337 184.956 172.392 185C172.447 185.044 172.486 185.105 172.502 185.173L173.206 188.351C173.222 188.428 173.221 188.508 173.202 188.584C173.184 188.661 173.148 188.732 173.098 188.793C173.047 188.854 172.984 188.902 172.912 188.935C172.841 188.968 172.763 188.984 172.684 188.982C171.29 188.959 170.273 188.878 168.516 188.878C167.436 188.878 164.18 188.991 162.687 188.991C161.193 188.991 161.002 187.516 161.611 187.379C164.335 186.785 166.414 185.958 167.29 185.168C167.447 185.021 167.652 184.937 167.867 184.932Z" fill="#263238"/>
<path d="M138.516 180.356L142.284 181.264C142.353 181.281 142.413 181.321 142.456 181.377C142.499 181.433 142.521 181.502 142.52 181.573L142.452 184.81C142.451 184.888 142.433 184.965 142.398 185.035C142.363 185.104 142.312 185.165 142.25 185.213C142.188 185.26 142.115 185.292 142.039 185.307C141.962 185.323 141.883 185.32 141.808 185.3C140.446 184.946 138.507 184.392 136.814 183.97C134.816 183.48 133.063 183.166 130.721 182.608C129.304 182.263 129.259 180.733 129.885 180.751C132.728 180.819 134.952 181.296 137.635 180.424C137.917 180.321 138.222 180.298 138.516 180.356Z" fill="#263238"/>
<path d="M155.718 78.5147C155.473 79.2502 155.237 79.8767 154.969 80.5531C154.701 81.2296 154.433 81.8652 154.147 82.5144C153.58 83.8129 152.949 85.0841 152.259 86.3462C151.56 87.6224 150.787 88.8564 149.943 90.0417C149.061 91.2977 148.048 92.4559 146.92 93.4967C146.615 93.7645 146.311 94.0324 145.971 94.2821C145.789 94.4138 145.657 94.5227 145.435 94.6635C145.224 94.8052 145.006 94.9355 144.781 95.0539C143.838 95.5551 142.784 95.8097 141.717 95.7939C140.737 95.7726 139.772 95.5533 138.879 95.1492C138.109 94.7981 137.383 94.3561 136.718 93.8326C135.538 92.8802 134.485 91.7801 133.586 90.5593C133.132 89.9782 132.75 89.3698 132.369 88.7433C131.982 88.1273 131.629 87.4908 131.311 86.8365L133.581 85.4291C133.971 85.8831 134.421 86.3916 134.857 86.8547C135.293 87.3177 135.765 87.7627 136.219 88.2167C137.09 89.0533 138.051 89.7917 139.084 90.4186C140.041 90.9861 141.018 91.2676 141.621 91.1722C141.915 91.1277 142.195 91.0158 142.439 90.8453C142.51 90.7983 142.578 90.7467 142.643 90.691C142.702 90.6456 142.829 90.5321 142.915 90.4549C143.124 90.2784 143.322 90.0905 143.51 89.8919C145.054 88.2757 146.384 86.0738 147.542 83.8129C148.127 82.6733 148.667 81.4975 149.194 80.3171C149.453 79.7223 149.707 79.1231 149.948 78.5238C150.188 77.9245 150.434 77.298 150.638 76.7532L155.718 78.5147Z" fill="#FFB573"/>
<path d="M157.162 76.7669C157.92 80.0766 150.66 88.5482 150.66 88.5482L144.132 83.7721C145.577 81.021 147.313 78.4334 149.312 76.0541C152.304 72.6991 156.322 73.1349 157.162 76.7669Z" fill="url(#paint0_linear)"/>
<path opacity="0.2" d="M149.866 82.3193C149.162 83.7167 148.556 85.1608 148.05 86.6413L150.66 88.5481C150.66 88.5481 154.973 83.5224 156.599 79.6951C154.637 78.0108 151.573 78.9687 149.866 82.3193Z" fill="black"/>
<path d="M133.931 85.9329L132.274 83.7129L129.463 87.0271C129.463 87.0271 131.166 88.7341 133.272 88.0667L133.931 85.9329Z" fill="#FFB573"/>
<path d="M128.573 82.4917L127.643 86.2962L129.463 87.0272L132.273 83.713L128.573 82.4917Z" fill="#FFB573"/>
<path opacity="0.2" d="M139.401 172.529L138.87 176.769L142.325 177.609L142.856 173.373L139.401 172.529Z" fill="black"/>
<path opacity="0.2" d="M169.129 177.115H165.574L167 181.359H170.555L169.129 177.115Z" fill="black"/>
<path d="M173.061 76.2719C171.773 80.0325 170.769 83.8841 170.055 87.7944C169.542 90.5184 169.147 93.1289 168.893 95.5124C168.239 101.069 168.089 105.328 167.83 106.758L148.994 104.22C147.718 83.8809 153.307 73.8021 153.307 73.8021C154.821 73.6171 156.345 73.5277 157.87 73.5343C158.192 73.5343 158.519 73.5343 158.85 73.557C161.538 73.7616 164.212 74.1209 166.859 74.633C167.363 74.7283 167.871 74.8327 168.362 74.9462C170.868 75.5137 173.061 76.2719 173.061 76.2719Z" fill="url(#paint1_linear)"/>
<path opacity="0.2" d="M159.132 78.869C155.682 78.415 154.138 79.4138 153.861 80.685C152.753 85.6426 156.585 90.2598 156.585 90.2598C156.585 90.2598 162.21 86.8503 163.318 81.8926C163.604 80.6214 162.578 79.3094 159.132 78.869Z" fill="black"/>
<path d="M156.971 88.5299C156.027 87.0726 154.383 83.9899 155.083 80.8119C155.214 80.2354 156.549 79.8041 158.851 80.0992C161.153 80.3943 162.224 81.1343 162.097 81.7109C161.393 84.8979 158.492 87.3995 156.971 88.5299Z" fill="white"/>
<path opacity="0.2" d="M170.055 87.7944C169.542 90.5184 169.147 93.1289 168.893 95.5124L166.346 89.6195L170.055 87.7944Z" fill="black"/>
<path d="M167.281 65.5032C166.428 68.0093 165.288 72.6628 166.859 74.624C165.956 75.3493 164.908 75.8719 163.785 76.1562C162.663 76.4406 161.492 76.4801 160.353 76.2721C158.142 75.927 158.242 74.3607 158.85 73.5708C161.815 73.2711 162.028 71.1282 161.801 69.058L167.281 65.5032Z" fill="#FFB573"/>
<path opacity="0.2" d="M165.047 66.9468L161.801 69.0352C161.862 69.5169 161.88 70.003 161.856 70.488C162.977 70.488 164.648 69.4756 164.916 68.3451C165.042 67.8905 165.087 67.417 165.047 66.9468Z" fill="black"/>
<path d="M160.762 55.4334C158.011 55.211 157.057 61.8394 158.773 63.1106C160.49 64.3818 165.915 55.842 160.762 55.4334Z" fill="#263238"/>
<path d="M168.112 61.6667C167.426 65.1262 167.204 67.1874 165.197 68.7401C162.183 71.0736 158.092 68.899 157.729 65.3033C157.402 62.0663 158.578 56.9542 162.178 56.0235C162.972 55.8148 163.805 55.8125 164.6 56.0167C165.395 56.2209 166.124 56.625 166.719 57.1904C167.313 57.7559 167.753 58.464 167.997 59.2475C168.241 60.0309 168.281 60.8637 168.112 61.6667Z" fill="#FFB573"/>
<path d="M167.404 65.0536C165.701 66.116 164.262 55.4924 168.788 56.8816C176.139 59.1562 169.433 63.7915 167.404 65.0536Z" fill="#263238"/>
<path d="M167.413 58.852C166.383 57.5808 160.117 58.348 157.23 56.4549C154.343 54.5617 156.172 50.3985 161.457 51.0704C158.996 51.3564 159.445 53.4085 161.134 53.3904C162.823 53.3722 166.709 51.2793 168.398 53.0635C170.755 55.5423 171.935 54.0714 173.111 55.4788C174.836 57.5036 169.647 61.6168 167.413 58.852Z" fill="#263238"/>
<path d="M169.166 65.7256C168.884 66.0628 168.538 66.3411 168.149 66.5444C167.759 66.7478 167.333 66.8722 166.896 66.9105C165.724 67.0104 165.357 65.9072 165.87 64.9174C166.324 64.0094 167.495 62.9017 168.594 63.2694C169.692 63.6371 169.842 64.8811 169.166 65.7256Z" fill="#FFB573"/>
<path d="M137.772 175.653L143.619 177.06C143.619 177.06 147.387 157.143 149.135 146.188C149.666 142.86 150.851 138.257 152.286 133.34C154.102 127.147 156.295 120.464 158.079 115.239C159.963 109.732 161.375 105.837 161.375 105.837L148.995 104.17C148.995 104.17 139.56 133.131 138.516 143.918C137.39 155.146 137.772 175.653 137.772 175.653Z" fill="#263238"/>
<path opacity="0.2" d="M152.286 133.376C154.102 127.184 156.294 120.501 158.079 115.275L156.966 112.41C153.643 115.879 152.086 127.174 152.286 133.376Z" fill="black"/>
<path d="M155.672 105.105C155.672 105.105 155.059 135.555 155.895 145.934C156.803 157.284 165.329 180.538 165.329 180.538H171.839C171.839 180.538 167.494 159.268 166.164 148.231C164.648 135.655 167.826 106.744 167.826 106.744L155.672 105.105Z" fill="#263238"/>
<path d="M164.553 180.678H172.216V178.39L163.649 178.24L164.553 180.678Z" fill="url(#paint2_linear)"/>
<path d="M137.004 175.612L143.969 177.314L144.518 175.063L136.764 173.042L137.004 175.612Z" fill="url(#paint3_linear)"/>
<path d="M162.687 61.9302C162.65 62.2116 162.469 62.4205 162.283 62.3842C162.096 62.3478 161.974 62.1072 162.015 61.8257C162.056 61.5442 162.233 61.3309 162.419 61.3717C162.605 61.4126 162.723 61.6441 162.687 61.9302Z" fill="#263238"/>
<path d="M159.477 61.4943C159.437 61.7804 159.255 61.9892 159.069 61.9483C158.883 61.9075 158.765 61.6714 158.805 61.3854C158.846 61.0994 159.023 60.8905 159.209 60.9314C159.396 60.9722 159.514 61.2129 159.477 61.4943Z" fill="#263238"/>
<path d="M160.476 61.7756C160.022 62.6067 159.455 63.3707 158.792 64.0456C158.966 64.2135 159.175 64.3412 159.404 64.4196C159.633 64.4981 159.876 64.5254 160.117 64.4996L160.476 61.7756Z" fill="#ED893E"/>
<path d="M161.216 65.376C161.092 65.3756 160.967 65.3665 160.844 65.3488C160.833 65.3477 160.822 65.3443 160.812 65.3388C160.802 65.3333 160.794 65.3259 160.787 65.3169C160.78 65.308 160.775 65.2977 160.772 65.2868C160.77 65.2759 160.769 65.2645 160.771 65.2534C160.773 65.2426 160.777 65.2323 160.782 65.223C160.788 65.2137 160.796 65.2056 160.805 65.1992C160.813 65.1929 160.823 65.1884 160.834 65.186C160.845 65.1836 160.856 65.1834 160.867 65.1853C161.219 65.2402 161.579 65.2113 161.919 65.1008C162.258 64.9904 162.566 64.8016 162.819 64.5497C162.835 64.5347 162.856 64.5264 162.878 64.5264C162.9 64.5264 162.921 64.5347 162.937 64.5497C162.945 64.5573 162.951 64.5665 162.955 64.5766C162.96 64.5868 162.962 64.5977 162.962 64.6087C162.962 64.6198 162.96 64.6307 162.955 64.6408C162.951 64.651 162.945 64.6601 162.937 64.6678C162.713 64.8962 162.445 65.0768 162.149 65.1986C161.853 65.3203 161.536 65.3807 161.216 65.376Z" fill="#263238"/>
<path d="M163.817 61.0266C163.787 61.0268 163.758 61.0189 163.733 61.0037C163.707 60.9885 163.686 60.9666 163.672 60.9404C163.572 60.7539 163.43 60.5933 163.258 60.4712C163.085 60.349 162.887 60.2687 162.678 60.2367C162.656 60.2355 162.634 60.23 162.614 60.2205C162.594 60.2109 162.576 60.1976 162.562 60.1811C162.547 60.1647 162.535 60.1455 162.528 60.1246C162.521 60.1038 162.518 60.0817 162.519 60.0596C162.522 60.0155 162.543 59.9743 162.576 59.9448C162.609 59.9152 162.652 59.8994 162.696 59.9007C162.961 59.935 163.214 60.032 163.434 60.1836C163.655 60.3351 163.836 60.537 163.962 60.7724C163.974 60.7917 163.981 60.8131 163.984 60.8352C163.987 60.8574 163.985 60.88 163.979 60.9015C163.973 60.9231 163.963 60.9433 163.949 60.9608C163.936 60.9784 163.918 60.9931 163.899 61.0039C163.874 61.0177 163.846 61.0254 163.817 61.0266Z" fill="#263238"/>
<path d="M158.242 60.2049C158.209 60.2044 158.176 60.195 158.147 60.1777C158.11 60.152 158.085 60.1129 158.076 60.0689C158.068 60.0248 158.077 59.9791 158.102 59.9416C158.245 59.7161 158.44 59.528 158.67 59.393C158.901 59.258 159.16 59.1799 159.427 59.1653C159.472 59.1653 159.514 59.183 159.546 59.2145C159.577 59.246 159.595 59.2887 159.595 59.3333C159.595 59.3778 159.577 59.4205 159.546 59.452C159.514 59.4835 159.472 59.5012 159.427 59.5012C159.215 59.5135 159.01 59.5769 158.828 59.686C158.646 59.7951 158.493 59.9467 158.383 60.1278C158.368 60.1513 158.347 60.1708 158.322 60.1842C158.298 60.1977 158.27 60.2048 158.242 60.2049Z" fill="#263238"/>
<path d="M166.691 185.554C166.449 185.572 166.207 185.508 166.006 185.373C165.941 185.317 165.892 185.247 165.862 185.168C165.832 185.088 165.822 185.003 165.833 184.919C165.833 184.869 165.846 184.82 165.872 184.778C165.897 184.735 165.934 184.701 165.978 184.678C166.369 184.478 167.518 185.182 167.645 185.264C167.66 185.272 167.672 185.285 167.679 185.3C167.686 185.316 167.689 185.333 167.686 185.35C167.683 185.366 167.675 185.381 167.664 185.393C167.653 185.406 167.638 185.414 167.622 185.418C167.318 185.498 167.006 185.544 166.691 185.554ZM166.165 184.819C166.129 184.811 166.092 184.811 166.056 184.819C166.038 184.829 166.024 184.844 166.014 184.861C166.005 184.879 166 184.899 166.001 184.919C165.992 184.975 165.998 185.032 166.018 185.086C166.038 185.139 166.071 185.186 166.115 185.223C166.512 185.405 166.963 185.428 167.377 185.286C167.007 185.054 166.595 184.895 166.165 184.819Z" fill="url(#paint4_linear)"/>
<path d="M167.604 185.427H167.563C167.195 185.227 166.482 184.446 166.56 184.065C166.571 184.003 166.604 183.946 166.653 183.906C166.702 183.865 166.764 183.843 166.827 183.843C166.891 183.836 166.956 183.842 167.018 183.86C167.079 183.879 167.137 183.91 167.186 183.952C167.599 184.292 167.681 185.314 167.685 185.359C167.687 185.374 167.684 185.389 167.677 185.402C167.671 185.416 167.661 185.428 167.649 185.436C167.633 185.437 167.618 185.434 167.604 185.427ZM166.886 183.988H166.846C166.737 183.988 166.727 184.052 166.723 184.074C166.678 184.31 167.132 184.896 167.499 185.173C167.474 184.768 167.327 184.38 167.077 184.061C167.025 184.014 166.957 183.988 166.886 183.988Z" fill="url(#paint5_linear)"/>
<path d="M138.035 180.746C137.449 180.724 136.428 180.619 136.128 180.188C136.085 180.126 136.058 180.054 136.049 179.979C136.039 179.904 136.048 179.828 136.073 179.757C136.087 179.712 136.111 179.671 136.145 179.639C136.178 179.606 136.219 179.583 136.264 179.571C136.741 179.434 137.953 180.479 138.08 180.601C138.092 180.614 138.1 180.629 138.104 180.646C138.108 180.663 138.108 180.68 138.103 180.697C138.097 180.71 138.087 180.722 138.075 180.73C138.063 180.739 138.049 180.745 138.035 180.746ZM136.332 179.725H136.296C136.278 179.729 136.262 179.738 136.25 179.751C136.237 179.764 136.228 179.78 136.223 179.798C136.206 179.845 136.2 179.895 136.207 179.945C136.213 179.995 136.231 180.042 136.26 180.084C136.428 180.324 136.986 180.497 137.78 180.538C137.295 180.17 136.614 179.702 136.332 179.725Z" fill="url(#paint6_linear)"/>
<path d="M138.035 180.746C138.016 180.753 137.995 180.753 137.976 180.746C137.604 180.456 136.963 179.507 137.118 179.135C137.159 179.044 137.249 178.949 137.481 178.98C137.564 178.99 137.645 179.017 137.717 179.06C137.789 179.103 137.851 179.161 137.899 179.23C138.253 179.684 138.117 180.651 138.112 180.692C138.109 180.706 138.103 180.72 138.093 180.731C138.083 180.742 138.071 180.75 138.058 180.755L138.035 180.746ZM137.367 179.13C137.295 179.13 137.281 179.171 137.277 179.185C137.181 179.412 137.599 180.134 137.962 180.492C138.016 180.09 137.948 179.68 137.767 179.316C137.731 179.266 137.685 179.223 137.632 179.191C137.579 179.159 137.52 179.138 137.458 179.13H137.367Z" fill="url(#paint7_linear)"/>
<path d="M175.026 80.4081C174.967 81.08 174.904 81.6566 174.817 82.2695C174.731 82.8824 174.64 83.4771 174.541 84.0855C174.336 85.2886 174.087 86.4826 173.796 87.6721C173.505 88.8616 173.174 90.051 172.77 91.2314C172.376 92.4332 171.909 93.6097 171.372 94.7545L170.949 95.6216L170.922 95.6761L170.863 95.7851L170.741 96.003C170.653 96.1445 170.558 96.2809 170.455 96.4116C170.258 96.6613 170.036 96.8896 169.792 97.0926C169.376 97.4346 168.906 97.7061 168.402 97.8962C167.993 98.0484 167.57 98.1639 167.14 98.2412C165.759 98.444 164.353 98.4256 162.977 98.1867C160.532 97.7816 158.145 97.0771 155.872 96.0892L156.63 93.5241C157.733 93.6694 158.9 93.8147 160.008 93.9055C161.116 93.9963 162.242 94.078 163.309 94.0689C164.263 94.0945 165.216 93.9876 166.142 93.7511C166.496 93.6467 166.718 93.4651 166.659 93.4697C166.635 93.4765 166.614 93.489 166.596 93.506L166.555 93.5514L166.532 93.5786V93.5332L166.818 92.7977C167.558 90.7387 168.14 88.626 168.557 86.4781C168.793 85.3839 168.979 84.2762 169.17 83.1729C169.264 82.6191 169.35 82.0652 169.428 81.5113L169.651 79.886L175.026 80.4081Z" fill="#FFB573"/>
<path d="M175.68 78.2876C177.664 81.0433 175.372 89.5377 175.372 89.5377L166.046 89.8373C166.046 89.8373 166.805 84.2395 168.185 80.0672C169.683 75.5272 173.27 74.9507 175.68 78.2876Z" fill="url(#paint8_linear)"/>
<path d="M157.066 93.6284L153.793 92.1121V96.652C153.793 96.652 156.867 97.3285 157.402 95.744L157.066 93.6284Z" fill="#FFB573"/>
<path d="M150.896 92.7658L151.06 96.5204L153.775 96.6475L153.793 92.1121L150.896 92.7658Z" fill="#FFB573"/>
<path d="M138.298 122.548H51.5296C50.3983 122.529 49.3144 122.09 48.4876 121.318C47.6607 120.546 47.1496 119.494 47.0532 118.367L43.176 63.0334C43.1304 62.4978 43.1973 61.9585 43.3725 61.4502C43.5477 60.942 43.8273 60.476 44.1932 60.0822C44.5592 59.6884 45.0036 59.3756 45.4977 59.1637C45.9917 58.9519 46.5247 58.8457 47.0623 58.8521H133.813C134.944 58.8726 136.027 59.3112 136.854 60.0833C137.68 60.8555 138.192 61.9064 138.289 63.0334L142.184 118.367C142.23 118.903 142.163 119.442 141.988 119.95C141.813 120.458 141.533 120.924 141.167 121.318C140.801 121.712 140.357 122.025 139.863 122.237C139.369 122.448 138.836 122.555 138.298 122.548Z" fill="#263238"/>
<path d="M163.118 167.707H65.3494C62.7571 167.707 60.142 166.032 59.5473 164.003L48.2245 125.522C47.7387 123.878 49.2324 122.548 51.5296 122.548H138.298C140.6 122.548 143.229 123.878 144.15 125.522L165.756 164.003C166.891 166.032 165.711 167.707 163.118 167.707Z" fill="#263238"/>
<path d="M139.342 122.548H52.5783C51.4467 122.53 50.3622 122.092 49.5352 121.319C48.7081 120.547 48.1973 119.495 48.1018 118.367L44.202 63.0334C44.1571 62.4978 44.2245 61.9589 44.3999 61.4509C44.5754 60.943 44.855 60.4773 45.2208 60.0836C45.5867 59.69 46.0307 59.3771 46.5245 59.1651C47.0182 58.953 47.5509 58.8463 48.0882 58.852H134.857C135.988 58.8715 137.072 59.3098 137.899 60.0821C138.726 60.8545 139.237 61.906 139.333 63.0334L143.233 118.367C143.278 118.903 143.21 119.442 143.035 119.95C142.859 120.459 142.579 120.925 142.213 121.318C141.846 121.712 141.402 122.025 140.907 122.237C140.413 122.448 139.88 122.555 139.342 122.548Z" fill="url(#paint9_linear)"/>
<path d="M53.2867 119.066C52.8399 119.057 52.4123 118.883 52.0856 118.578C51.759 118.273 51.5562 117.859 51.5161 117.413L47.7524 63.9868C47.7347 63.7755 47.7613 63.5628 47.8306 63.3624C47.8999 63.162 48.0104 62.9783 48.1549 62.8231C48.2994 62.6679 48.4747 62.5447 48.6697 62.4612C48.8646 62.3778 49.0749 62.3361 49.2869 62.3387H134.149C134.594 62.3491 135.02 62.5227 135.345 62.8265C135.671 63.1304 135.874 63.5433 135.915 63.9868L139.678 117.413C139.696 117.625 139.669 117.838 139.6 118.039C139.531 118.239 139.42 118.423 139.276 118.579C139.132 118.734 138.956 118.858 138.761 118.942C138.566 119.026 138.356 119.068 138.144 119.066H53.2867Z" fill="white"/>
<path opacity="0.2" d="M92.083 61.1604C92.3217 60.9134 92.3003 60.5055 92.0352 60.2494C91.7701 59.9933 91.3617 59.986 91.1231 60.2331C90.8844 60.4801 90.9058 60.888 91.1709 61.1441C91.436 61.4002 91.8444 61.4075 92.083 61.1604Z" fill="black"/>
<path d="M164.167 167.707H66.3935C63.8011 167.707 61.1906 166.032 60.5914 164.003L49.2686 125.522C48.7874 123.878 50.2765 122.548 52.5783 122.548H139.342C141.644 122.548 144.273 123.878 145.194 125.522L166.796 164.003C167.935 166.032 166.759 167.707 164.167 167.707Z" fill="url(#paint10_linear)"/>
<path opacity="0.2" d="M61.1274 147.155C60.1558 147.155 59.1797 146.556 58.9573 145.829L52.9917 126.212C52.792 125.563 53.3776 125.032 54.2947 125.032H139.742C140.194 125.031 140.639 125.138 141.042 125.343C141.444 125.548 141.792 125.846 142.057 126.212L152.885 145.839C153.285 146.565 152.822 147.164 151.85 147.164L61.1274 147.155Z" fill="black"/>
<path opacity="0.2" d="M100.271 164.285C99.9819 164.285 99.698 164.207 99.45 164.058C99.202 163.909 98.9993 163.696 98.8638 163.44L93.8698 150.656C93.7018 150.224 94.0287 149.87 94.6007 149.87H120.706C120.987 149.87 121.264 149.942 121.51 150.08C121.755 150.217 121.962 150.415 122.109 150.656L128.042 163.44C128.26 163.894 127.952 164.285 127.361 164.285H100.271Z" fill="black"/>
<path d="M51.0802 111.198L53.2231 106.949H60.3009L62.294 110.018L64.2871 113.082L62.7389 116.147L61.268 119.066H61.4268L62.866 116.215L64.4142 113.151H71.492L73.4851 116.22L75.3329 119.066H75.5054L73.5941 116.142L71.601 113.073L73.1491 110.013L74.6973 106.949H81.7661L83.7591 110.018L85.7522 113.082L84.2086 116.147L82.7331 119.066H82.892L84.3357 116.215L85.8793 113.151H92.9572L94.9502 116.22L96.798 119.066H96.9705L95.0728 116.142L93.1161 113.073L94.6597 110.013L96.2078 106.949H103.281L105.274 110.018L107.267 113.082L105.724 116.147L104.248 119.066H104.407L105.828 116.224L107.372 113.16H114.454L116.447 116.229L118.295 119.075H118.467L116.57 116.151L114.577 113.082L116.12 110.022L117.668 106.958H124.746L126.739 110.027L128.732 113.092L127.166 116.147L125.691 119.066H125.854L127.293 116.215L128.837 113.151H135.928L137.921 116.22L139.374 118.453L139.465 118.331L138.062 116.142L136.069 113.073L137.613 110.013L138.975 107.289V107.012L137.499 109.936L135.951 113.001H128.846L126.853 109.932L124.86 106.867L126.408 103.803L127.951 100.743H135.029L138.929 106.74L138.906 106.445L135.152 100.666L138.089 94.8453V94.5638L135.043 100.597H127.947L125.954 97.5329L123.961 94.4639L125.509 91.4039L127.057 88.3394H134.13L138.062 94.3913L138.039 94.0962L134.258 88.2713L137.218 82.4102V82.1333L134.149 88.2078H127.053L125.059 85.1387L123.08 82.0742L124.624 79.0097L126.172 75.9498H133.25L137.199 82.0288V81.7337L133.386 75.8726L136.369 69.9706V69.6937L133.227 75.8181H126.154L124.161 72.7491L122.172 69.671L123.716 66.6065L125.259 63.5601H132.337L134.33 66.6246L136.314 69.6846V69.3895L134.43 66.5384L132.437 63.4693L133.009 62.3389H132.85L132.314 63.4012H125.255L124.56 62.3389H124.392L125.132 63.4784L123.584 66.5429L122.04 69.6029H114.963L112.969 66.5384L110.976 63.4693L111.548 62.3389H111.39L110.849 63.4012H103.776L103.104 62.3389H102.936L103.676 63.4784L102.128 66.5429L100.584 69.6029H93.4838L91.4907 66.5384L89.4841 63.4693L90.0561 62.3389H89.8972L89.3569 63.4012H82.2927L81.6026 62.3389H81.4301L82.1747 63.4784L80.6265 66.5429L79.0829 69.6029H72.0051L70.012 66.5384L68.0189 63.4693L68.591 62.3389H68.4321L67.8918 63.4012H60.814L60.1239 62.3389H59.9741L60.7186 63.4784L59.1705 66.5429L57.6223 69.6029H50.5263L47.8613 65.5169V65.812L50.3856 69.6937L48.4107 73.6026L48.4334 73.8795L50.5127 69.7618H57.5906L59.5791 72.8263L61.5721 75.8953L60.0285 78.9553L58.4804 82.0198H51.4207L49.4322 78.9507L48.733 77.8747V78.1698L49.2914 79.0279L51.2845 82.0924L49.7363 85.1569L49.2823 86.0649V86.3418L49.8362 85.2432L51.3844 82.1787H58.4577L60.4508 85.2477L62.4438 88.3122L60.9002 91.3767L59.3521 94.4367H52.3196L50.3265 91.3722L49.6001 90.2553V90.5459L50.1858 91.4539L52.1789 94.5184L50.6307 97.5783L50.1767 98.5136V98.7905L50.7533 97.6465L52.3014 94.5865H59.3748L61.3678 97.651L63.3609 100.72L61.8173 103.78L60.2691 106.844H53.2185L50.4718 102.604L50.4945 102.899L53.1005 106.908L51.062 110.944L51.0802 111.198ZM81.7661 106.808H74.6973L72.6861 103.739L70.6975 100.675L72.2411 97.6101L73.7893 94.5502H80.8626L82.8557 97.6147L84.8487 100.684L83.3051 103.744L81.7661 106.808ZM112.638 88.1942H105.569L103.558 85.1387L101.565 82.0742L103.113 79.0097L104.661 75.9498H111.735L113.728 79.0143L115.721 82.0788L114.177 85.1433L112.638 88.1942ZM112.638 88.3349L114.631 91.4039L116.624 94.4684L115.081 97.5284L113.546 100.607H106.468L104.466 97.542L102.473 94.473L104.021 91.413L105.565 88.3485L112.638 88.3349ZM103.445 85.2023L105.438 88.2668L103.889 91.3313L102.341 94.3913H95.2816L93.2886 91.3268L91.3001 88.2713L92.8437 85.2114L94.3918 82.1469H101.47L103.445 85.2023ZM95.1591 94.4821L93.6109 97.542L92.0673 100.607H84.9895L82.9964 97.542L81.0033 94.473L82.5515 91.413L84.0951 88.3485H91.1729L93.166 91.4176L95.1591 94.4821ZM92.7165 85.1433L91.1684 88.2078H84.0905L82.0975 85.1387L80.1044 82.0742L81.6526 79.0097L83.1962 75.9498H90.274L92.2671 79.0143L94.2601 82.0788L92.7165 85.1433ZM81.9794 85.2159L83.968 88.2804L82.4244 91.3449L80.8581 94.4049H73.8029L71.8098 91.3404L69.8168 88.2713L71.3604 85.2114L72.9085 82.1469H79.9864L81.9794 85.2159ZM94.5098 109.945L92.9662 113.01H85.8884L83.8953 109.941L81.9023 106.876L83.4504 103.812L84.994 100.752H92.0719L94.0649 103.816L96.058 106.885L94.5098 109.945ZM103.254 106.808H96.1806L94.1875 103.739L92.2081 100.675L93.7517 97.6101L95.2998 94.5502H102.378L104.371 97.6147L106.359 100.684L104.816 103.744L103.254 106.808ZM115.966 109.945L114.422 113.01H107.367L105.374 109.941L103.381 106.876L104.929 103.812L106.473 100.752H113.546L115.539 103.816L117.532 106.885L115.966 109.945ZM125.836 97.6101L127.829 100.679L126.281 103.739L124.733 106.804H117.659L115.666 103.735L113.673 100.67L115.217 97.6056L116.765 94.5456H123.843L125.836 97.6101ZM124.928 85.2114L126.921 88.2759L125.373 91.3404L123.829 94.4003H116.76L114.767 91.3358L112.774 88.2668L114.322 85.2068L115.866 82.1423H122.944L124.928 85.2114ZM114.94 69.7436H122.018L124.011 72.8081L126.004 75.8772L124.456 78.9371L122.912 82.0016H115.861L113.868 78.9326L111.875 75.8681L113.423 72.8036L114.94 69.7436ZM102.228 66.6019L103.776 63.542H110.854L112.842 66.6065L114.835 69.6755L113.292 72.7355L111.73 75.8181H104.67L102.682 72.7491L100.689 69.6846L102.228 66.6019ZM93.4838 69.7436H100.562L102.555 72.8081L104.548 75.8772L103 78.9371L101.456 82.0016H94.3827L92.3897 78.9326L90.3921 75.8726L91.9357 72.8081L93.4838 69.7436ZM80.7718 66.6019L82.3199 63.542H89.3933L91.3863 66.6065L93.3794 69.6755L91.8358 72.7355L90.2695 75.8181H83.1916L81.1986 72.7491L79.2055 69.6846L80.7718 66.6019ZM72.0278 69.7436H79.0875L81.0805 72.8081L83.0736 75.8772L81.5254 78.9371L79.9773 82.0016H72.904L70.9109 78.9326L68.9179 75.8681L70.4615 72.8036L72.0278 69.7436ZM59.738 72.7309L57.7449 69.6664L59.2931 66.6019L60.8366 63.542H67.9145L69.9076 66.6065L71.9006 69.6755L70.3525 72.7355L68.8089 75.8H61.7129L59.738 72.7309ZM60.646 85.1342L58.6121 82.0742L60.1602 79.0097L61.7038 75.9498H68.7816L70.7747 79.0143L72.7678 82.0788L71.2196 85.1433L69.676 88.2078H62.6118L60.646 85.1342ZM61.554 97.5375L59.5201 94.473L61.0682 91.413L62.6118 88.3485H69.6896L71.6827 91.4176L73.6758 94.4821L72.1276 97.542L70.584 100.607H63.5107L61.554 97.5375ZM62.008 103.807L63.5561 100.747H70.634L72.627 103.812L74.6201 106.881L73.072 109.941L71.5284 113.005H64.4096L62.4166 109.936L60.4281 106.876L62.008 103.807Z" fill="#E0E0E0"/>
<path d="M54.0269 119.066L51.3438 114.939L51.3619 115.234L53.8544 119.066H54.0269Z" fill="#E0E0E0"/>
<path d="M111.803 113.432H80.4039C79.7728 113.423 79.168 113.177 78.7096 112.743C78.2513 112.309 77.9728 111.719 77.9296 111.089L76.7265 89.488C76.7065 89.1863 76.749 88.8837 76.8513 88.5992C76.9536 88.3147 77.1135 88.0543 77.321 87.8344C77.5285 87.6145 77.7792 87.4398 78.0574 87.3213C78.3355 87.2027 78.6351 87.1428 78.9375 87.1453H110.345C110.976 87.1542 111.58 87.4001 112.038 87.8342C112.495 88.2682 112.773 88.8587 112.815 89.488L114 111.089C114.02 111.39 113.978 111.691 113.876 111.975C113.775 112.258 113.616 112.518 113.41 112.738C113.204 112.958 112.955 113.133 112.678 113.252C112.402 113.371 112.104 113.433 111.803 113.432Z" fill="url(#paint11_linear)"/>
<path opacity="0.2" d="M78.9331 87.168C78.6307 87.1655 78.3311 87.2254 78.053 87.344C77.7748 87.4625 77.5242 87.6372 77.3166 87.8571C77.1091 88.077 76.9492 88.3374 76.8469 88.6219C76.7446 88.9064 76.7021 89.209 76.7221 89.5107L77.9252 111.112C77.9684 111.742 78.2469 112.332 78.7052 112.766C79.1636 113.2 79.7684 113.446 80.3995 113.455H96.0988L94.6369 87.168H78.9331Z" fill="black"/>
<path opacity="0.2" d="M92.9119 107.235L93.2751 100.37C92.7293 100.028 92.272 99.5624 91.9407 99.0101C91.6093 98.4578 91.4132 97.835 91.3683 97.1924C91.3343 96.6976 91.4034 96.2011 91.5713 95.7343C91.7392 95.2676 92.0022 94.8408 92.3436 94.481C92.6851 94.1213 93.0975 93.8363 93.5548 93.6442C94.0121 93.4521 94.5043 93.3571 95.0003 93.3652C96.0229 93.3796 97.003 93.777 97.7469 94.4789C98.4908 95.1807 98.9444 96.136 99.0182 97.1561C99.0575 97.7746 98.9355 98.3926 98.6641 98.9497C98.3927 99.5068 97.9812 99.9838 97.4701 100.334L98.5914 107.199L92.9119 107.235Z" fill="black"/>
<path d="M98.4277 97.156C98.3706 96.2862 97.9872 95.47 97.3542 94.8707C96.7212 94.2714 95.8853 93.9331 95.0137 93.9235C94.5961 93.9188 94.1821 94.0006 93.7977 94.1637C93.4133 94.3269 93.0669 94.5679 92.7803 94.8716C92.4937 95.1753 92.2731 95.535 92.1324 95.9282C91.9917 96.3214 91.9339 96.7394 91.9628 97.156C92.0023 97.7621 92.2012 98.347 92.5392 98.8516C92.8772 99.3562 93.3424 99.7626 93.8878 100.03L93.5427 106.622H97.9011L96.8251 100.03C97.3416 99.7572 97.7679 99.3405 98.0524 98.8304C98.3368 98.3204 98.4672 97.7387 98.4277 97.156Z" fill="#263238"/>
<path d="M109.528 85.5972H105.374L105.12 81.089C104.925 78.1794 103.641 75.4499 101.524 73.4442C99.4076 71.4385 96.613 70.3036 93.6971 70.2656C92.2995 70.2518 90.914 70.5271 89.6277 71.0741C88.3415 71.6211 87.1822 72.4281 86.2226 73.4444C85.2629 74.4607 84.5238 75.6644 84.0514 76.9799C83.579 78.2954 83.3837 79.6944 83.4776 81.089L83.7273 85.5972H79.5732L79.3235 81.089C79.1919 79.1585 79.4611 77.2217 80.1141 75.4003C80.7671 73.5789 81.7899 71.9122 83.1181 70.5052C84.4463 69.0981 86.0512 67.981 87.8319 67.2241C89.6127 66.4672 91.5308 66.0868 93.4656 66.107C101.724 66.107 108.815 72.8262 109.278 81.089L109.528 85.5972Z" fill="url(#paint12_linear)"/>
</g>
<defs>
<linearGradient id="paint0_linear" x1="145.896" y1="57.1731" x2="170.451" y2="64.2761" gradientUnits="userSpaceOnUse">
<stop offset="0.0249741" stop-color="#51BA65"/>
<stop offset="0.987852" stop-color="#384DA1"/>
</linearGradient>
<linearGradient id="paint1_linear" x1="152.074" y1="36.2082" x2="198.746" y2="47.3377" gradientUnits="userSpaceOnUse">
<stop offset="0.0249741" stop-color="#51BA65"/>
<stop offset="0.987852" stop-color="#384DA1"/>
</linearGradient>
<linearGradient id="paint2_linear" x1="164.804" y1="175.501" x2="172.322" y2="184.13" gradientUnits="userSpaceOnUse">
<stop offset="0.0249741" stop-color="#51BA65"/>
<stop offset="0.987852" stop-color="#384DA1"/>
</linearGradient>
<linearGradient id="paint3_linear" x1="137.809" y1="168.243" x2="149.477" y2="175.16" gradientUnits="userSpaceOnUse">
<stop offset="0.0249741" stop-color="#51BA65"/>
<stop offset="0.987852" stop-color="#384DA1"/>
</linearGradient>
<linearGradient id="paint4_linear" x1="166.079" y1="183.615" x2="168.703" y2="185.356" gradientUnits="userSpaceOnUse">
<stop offset="0.0249741" stop-color="#51BA65"/>
<stop offset="0.987852" stop-color="#384DA1"/>
</linearGradient>
<linearGradient id="paint5_linear" x1="166.706" y1="182.046" x2="168.891" y2="182.552" gradientUnits="userSpaceOnUse">
<stop offset="0.0249741" stop-color="#51BA65"/>
<stop offset="0.987852" stop-color="#384DA1"/>
</linearGradient>
<linearGradient id="paint6_linear" x1="136.323" y1="178.224" x2="139.496" y2="180.022" gradientUnits="userSpaceOnUse">
<stop offset="0.0249741" stop-color="#51BA65"/>
<stop offset="0.987852" stop-color="#384DA1"/>
</linearGradient>
<linearGradient id="paint7_linear" x1="137.235" y1="176.973" x2="139.289" y2="177.367" gradientUnits="userSpaceOnUse">
<stop offset="0.0249741" stop-color="#51BA65"/>
<stop offset="0.987852" stop-color="#384DA1"/>
</linearGradient>
<linearGradient id="paint8_linear" x1="167.454" y1="60.7887" x2="187.446" y2="65.7733" gradientUnits="userSpaceOnUse">
<stop offset="0.0249741" stop-color="#51BA65"/>
<stop offset="0.987852" stop-color="#384DA1"/>
</linearGradient>
<linearGradient id="paint9_linear" x1="57.5398" y1="-12.7086" x2="217.664" y2="68.6287" gradientUnits="userSpaceOnUse">
<stop offset="0.0249741" stop-color="#51BA65"/>
<stop offset="0.987852" stop-color="#384DA1"/>
</linearGradient>
<linearGradient id="paint10_linear" x1="65.0896" y1="71.8135" x2="203.931" y2="190.364" gradientUnits="userSpaceOnUse">
<stop offset="0.0249741" stop-color="#51BA65"/>
<stop offset="0.987852" stop-color="#384DA1"/>
</linearGradient>
<linearGradient id="paint11_linear" x1="81.7468" y1="57.6133" x2="144.167" y2="86.531" gradientUnits="userSpaceOnUse">
<stop offset="0.0249741" stop-color="#51BA65"/>
<stop offset="0.987852" stop-color="#384DA1"/>
</linearGradient>
<linearGradient id="paint12_linear" x1="83.3664" y1="44.2089" x2="132.293" y2="69.0008" gradientUnits="userSpaceOnUse">
<stop offset="0.0249741" stop-color="#51BA65"/>
<stop offset="0.987852" stop-color="#384DA1"/>
</linearGradient>
<clipPath id="clip0">
<rect width="227" height="227" fill="white" transform="translate(0.5)"/>
</clipPath>
</defs>
</svg>
