<svg width="121" height="36" viewBox="0 0 121 36" fill="none" xmlns="http://www.w3.org/2000/svg">
<path opacity="0.7" d="M44.0876 23.4058C43.8866 23.4058 43.6817 23.3652 43.4923 23.2841L33.8293 18.2895C33.3075 18.0664 32.9751 17.5721 32.9751 17.0281V9.49768C32.9751 8.95366 33.3094 8.45942 33.8293 8.23628L43.4923 3.24169C43.9388 3.0499 44.4625 3.08862 44.8741 3.34128C45.2877 3.59577 45.537 4.03468 45.537 4.5031V22.0227C45.537 22.4911 45.2877 22.93 44.8741 23.1845C44.6364 23.3302 44.3639 23.4058 44.0876 23.4058Z" fill="#707E8E"/>
<path d="M11.5315 35.8889C11.2516 35.8889 10.9657 35.8334 10.6951 35.7225C9.80943 35.3571 9.22517 34.4501 9.22517 33.4419V26.101H5.38135C2.41392 26.101 0 23.5398 0 20.3914V5.7096C0 2.56116 2.41392 0 5.38135 0H31.5193C34.4868 0 36.9007 2.56116 36.9007 5.7096V20.3914C36.9007 23.5398 34.4868 26.101 31.5193 26.101H21.0026L13.232 35.0961C12.7861 35.6116 12.1649 35.8889 11.5315 35.8889Z" fill="#707E8E"/>
<path d="M11.3147 15.5957C12.6833 15.5957 13.7928 14.4933 13.7928 13.1333C13.7928 11.7733 12.6833 10.6708 11.3147 10.6708C9.94613 10.6708 8.83667 11.7733 8.83667 13.1333C8.83667 14.4933 9.94613 15.5957 11.3147 15.5957Z" fill="#B8BEC7"/>
<path d="M18.6262 15.5957C19.9948 15.5957 21.1043 14.4933 21.1043 13.1333C21.1043 11.7733 19.9948 10.6708 18.6262 10.6708C17.2577 10.6708 16.1482 11.7733 16.1482 13.1333C16.1482 14.4933 17.2577 15.5957 18.6262 15.5957Z" fill="#B8BEC7"/>
<path d="M25.9378 15.5957C27.3063 15.5957 28.4158 14.4933 28.4158 13.1333C28.4158 11.7733 27.3063 10.6708 25.9378 10.6708C24.5692 10.6708 23.4597 11.7733 23.4597 13.1333C23.4597 14.4933 24.5692 15.5957 25.9378 15.5957Z" fill="#B8BEC7"/>
<path d="M55.4331 20H63.6651V18.248H57.3771V3.2H55.4331V20ZM65.9504 20H67.8464V7.52H65.9504V20ZM65.5904 4.304C65.5904 5.048 66.1664 5.624 66.8864 5.624C67.6304 5.624 68.2064 5.048 68.2064 4.304C68.2064 3.584 67.6304 3.008 66.8864 3.008C66.1664 3.008 65.5904 3.584 65.5904 4.304ZM71.1066 20H72.9306V18.032C73.2426 18.488 74.5626 20.312 77.2746 20.312C80.8266 20.312 83.3706 17.6 83.3706 13.784C83.3706 9.944 80.9466 7.208 77.4186 7.208C74.8026 7.208 73.3866 8.888 73.0026 9.536V2.648H71.1066V20ZM72.9306 13.808C72.9306 10.712 74.8506 8.936 77.2026 8.936C79.6506 8.936 81.4266 10.952 81.4266 13.808C81.4266 16.712 79.5546 18.608 77.1546 18.608C74.5626 18.608 72.9306 16.424 72.9306 13.808ZM84.9859 13.808C84.9859 17.648 87.6019 20.312 91.3939 20.312C94.2259 20.312 95.8579 18.776 96.5539 17.6L95.3059 16.688C94.7059 17.528 93.5299 18.632 91.4179 18.632C88.8259 18.632 86.9539 16.952 86.9299 14.168H96.9379C96.9619 13.928 96.9619 13.664 96.9619 13.592C96.9619 9.848 94.7059 7.208 91.0339 7.208C87.7219 7.208 84.9859 9.824 84.9859 13.808ZM87.0259 12.752C87.1699 10.4 88.9939 8.84 91.0339 8.84C93.0979 8.84 94.8979 10.16 95.0179 12.752H87.0259ZM104.964 7.208C103.068 7.208 101.676 8.36 101.244 9.608V7.52H99.3722V20H101.268V14.024C101.268 11.36 102.108 9.104 104.964 9.104V7.208ZM107.953 13.76C107.953 11.024 109.825 8.936 112.513 8.936C115.201 8.936 117.121 11 117.121 13.76C117.121 16.544 115.201 18.584 112.513 18.584C109.849 18.584 107.953 16.568 107.953 13.76ZM106.009 13.76C106.009 17.552 108.769 20.312 112.513 20.312C116.257 20.312 119.041 17.504 119.041 13.76C119.041 10.016 116.305 7.208 112.537 7.208C108.817 7.208 106.009 9.992 106.009 13.76Z" fill="#707E8E"/>
</svg>
