<svg width="123" height="47" viewBox="0 0 123 47" fill="none" xmlns="http://www.w3.org/2000/svg">
<path fill-rule="evenodd" clip-rule="evenodd" d="M32.3399 14.64C32.2603 8.98737 31.9987 6.61029 31.0433 2.77738L30.9278 2.30581L30.8944 2.17314C30.8686 2.07677 30.8424 1.98009 30.8158 1.88299C30.6225 1.15511 30.6111 1.14372 30.1106 1.00721C29.8263 0.927599 29.2462 0.756994 28.8027 0.620531C26.7213 0.00634515 22.4562 -0.18702 19.6697 0.19971C19.0355 0.289985 18.3924 0.414709 17.7474 0.571165C17.359 0.671077 16.9752 0.784061 16.5926 0.910887C16.4241 0.96538 16.2513 1.00911 16.0996 1.03828C16.0349 1.05924 15.9703 1.08047 15.9058 1.102C15.7921 1.13993 15.6786 1.17879 15.5653 1.21852C15.5662 1.24728 15.5379 1.25697 15.479 1.24897C13.7629 1.85818 12.0922 2.67224 10.6022 3.6381C10.5276 3.68767 10.4515 3.7377 10.375 3.78748L10.2978 3.83925C9.51785 4.36486 8.64945 5.02949 8.25778 5.38571C8.1725 5.48624 8.12892 5.56606 8.12588 5.6264C8.14695 5.63403 8.17234 5.6427 8.20141 5.65228C8.22287 5.65403 8.24684 5.6549 8.27327 5.6549C8.38701 5.6549 8.60311 5.70037 8.75097 5.75727C8.86361 5.80059 9.44485 5.98908 10.1729 6.22228C10.3232 6.26944 10.4797 6.31948 10.6414 6.37202L10.8892 6.45102C11.5899 6.67596 12.2379 6.89429 12.8578 7.11585C12.8895 7.12698 12.9171 7.13682 12.9401 7.14533C13.8601 7.47593 14.72 7.81473 15.6006 8.19418C15.6467 8.21355 15.6921 8.23273 15.737 8.2518C17.8946 9.17072 19.9933 10.2341 21.9816 11.4088C22.3438 11.4201 22.7067 11.482 23.0598 11.596L27.0208 12.8754L30.8413 14.528C31.4418 14.7877 31.9581 15.1896 32.353 15.6883C32.3499 15.3484 32.3455 14.9967 32.3399 14.64ZM34.1293 27.5844C34.4253 26.942 34.5456 26.222 34.4619 25.4997L33.9828 21.3649L33.1103 17.2948C33.1091 17.289 33.1078 17.2832 33.1065 17.2774C33.2512 14.4055 33.1413 11.258 32.7861 8.69538C32.5472 6.97795 31.8762 3.38388 31.5918 2.32617C31.4942 1.97619 31.4256 1.65533 31.4112 1.48868C32.0491 1.59156 34.4153 2.76513 35.9681 3.77102C36.3862 4.04487 36.743 4.28981 37.0787 4.53843C37.2942 4.70073 37.5081 4.8676 37.7199 5.03841C38.1824 5.41806 38.6555 5.8478 39.255 6.42108C39.2797 6.44435 39.3046 6.46794 39.3297 6.49188C39.4936 6.65156 39.6582 6.8134 39.8197 6.9738C40.6961 7.85897 41.598 8.88372 41.598 9.01424C41.598 9.07114 41.6776 9.18489 41.7686 9.2645C41.8851 9.36431 42.5916 10.3767 42.9628 10.9534C42.963 10.9991 43.0653 11.1923 43.1903 11.3628L43.1953 11.3698L43.2033 11.381L43.2093 11.3895C43.2733 11.518 43.4922 11.9084 43.759 12.3467C43.8289 12.4659 43.8965 12.5821 43.9592 12.6912C44.12 13.0111 44.2825 13.3569 44.4417 13.715C44.5467 13.987 44.7135 14.4019 44.8964 14.8489C45.0399 15.1873 45.1973 15.6042 45.3404 16.0184C45.5722 16.7472 45.7569 17.4645 45.8745 18.1204C45.9427 18.4616 45.8631 18.5526 44.7144 19.6785C41.9506 22.3514 40.0853 23.8413 36.8552 25.9568C36.1258 26.4391 35.1183 27.0364 34.1293 27.5844ZM25.1989 34.8176C25.7602 34.7065 26.298 34.4721 26.7704 34.1212L30.1118 31.6388L33.2003 28.8482C33.245 28.8078 33.2887 28.7664 33.3312 28.7243C33.7504 28.5118 34.074 28.3343 34.2385 28.2206C35.0984 27.7552 35.9171 27.279 36.6505 26.814C37.0258 26.5752 37.4694 26.3022 37.6286 26.2112C37.7911 26.1072 38.1469 25.8582 38.73 25.4367C38.7742 25.4354 38.8202 25.4101 38.8508 25.3642C38.8553 25.3553 38.8649 25.3433 38.8792 25.3286C39.0825 25.1812 39.3105 25.015 39.5644 24.829C39.8002 24.669 40.1033 24.4453 40.4505 24.1774L40.4944 24.1449C40.5564 24.1189 40.6193 24.0797 40.6706 24.0335C40.7236 23.9852 40.838 23.89 40.9851 23.7703C41.142 23.6478 41.3081 23.5158 41.4808 23.3768C41.6037 23.2799 41.7264 23.1821 41.8489 23.0837C42.3178 22.7207 42.616 22.48 43.1 22.0501C43.7555 21.4932 44.4069 20.9159 45.054 20.318L45.0922 20.2865L45.1171 20.2663L45.1378 20.2495C45.2086 20.195 45.2761 20.1393 45.3379 20.0849C45.5125 19.9619 45.6539 19.8192 45.6707 19.7407L45.6724 19.7392L45.6744 19.7373L45.7715 19.6462C45.8653 19.5696 45.9479 19.5049 46.0198 19.4518C46.0343 19.4513 46.0479 19.453 46.0609 19.457C46.2107 19.5073 46.2542 19.9079 46.3561 20.8461L46.3664 20.9407L46.3863 21.1458C46.4027 21.3141 46.4165 21.4861 46.4278 21.6613C46.4416 21.9179 46.4524 22.1835 46.4597 22.4512C46.4641 22.665 46.4658 22.8853 46.4648 23.109C46.4359 26.2067 45.7692 29.8234 44.7826 31.8711C44.7257 31.9962 44.5665 32.3829 44.4414 32.7241C43.7249 34.6007 41.5639 37.7399 39.7782 39.5256C39.1754 40.117 38.7432 40.4582 38.5954 40.4468C38.4737 40.4443 38.248 40.4018 37.9491 40.3286C37.6812 40.2525 37.3526 40.1602 37.0057 40.0638C36.8752 40.0277 36.7409 39.9891 36.6032 39.9479C36.2633 39.8431 35.901 39.7264 35.5314 39.6027C33.763 38.9964 31.6236 38.1024 29.5589 37.1176C28.3669 36.5365 27.1398 35.9024 26.0159 35.2875C25.847 35.1922 25.681 35.0972 25.5183 35.0026C25.4109 34.9406 25.3044 34.8789 25.1989 34.8176ZM14.1139 30.8081C14.4831 31.2157 14.9392 31.5463 15.4583 31.7708L19.2787 33.4234L23.2398 34.7028C23.4027 34.7554 23.5677 34.7969 23.7338 34.8275C24.3406 35.2037 24.9748 35.5796 25.6408 35.9584C27.2104 36.8569 30.5201 38.4947 30.7362 38.4947C30.749 38.4947 30.7635 38.4967 30.7791 38.5005L30.8787 38.5417C30.9205 38.565 30.9625 38.5959 30.9978 38.6312C31.066 38.6995 31.2366 38.7791 31.3504 38.8018C31.4755 38.8132 31.8508 38.961 32.1806 39.1089C32.9199 39.4501 35.5017 40.3486 36.8779 40.7353C37.3377 40.8732 37.7528 41.0037 37.9191 41.0727C37.929 41.078 37.9382 41.0831 37.9466 41.088C37.9316 41.1835 37.7305 41.3599 37.2533 41.732C34.2052 44.1205 30.1561 45.781 26.0616 46.3156C25.673 46.3652 25.2168 46.4028 24.7259 46.4282C24.4097 46.4369 24.0488 46.4439 23.6277 46.4504C23.2339 46.4571 22.8842 46.4616 22.5683 46.4631C21.6568 46.448 20.7774 46.3953 20.1019 46.3042C19.3272 46.1989 18.3039 45.9892 17.4397 45.7671C17.2674 45.7222 17.0933 45.6751 16.9165 45.6254C16.6826 45.5583 16.4708 45.4919 16.2922 45.4286C16.1113 45.3482 15.9771 45.2688 15.8888 45.1899L15.5778 44.056C14.7589 41.0988 14.4063 38.9265 14.1902 35.2869C14.1338 34.2919 14.1097 32.4989 14.1139 30.8081ZM12.0083 19.1254C11.833 19.657 11.7714 20.2273 11.8376 20.799L12.3167 24.9339L13.1893 29.004C13.2331 29.2086 13.2929 29.4076 13.3674 29.5995C13.1948 32.7916 13.3393 36.1391 13.8009 39.0137C13.9032 39.6279 13.9487 40.1625 13.9146 40.1966C13.8805 40.2307 13.8919 40.3217 13.9487 40.39C14.0056 40.4582 14.108 40.9018 14.1876 41.3681C14.2558 41.8344 14.4719 42.8011 14.6539 43.5177L14.6969 43.688C14.7343 43.8364 14.7696 43.979 14.802 44.1109C14.8749 44.4325 14.9309 44.6849 14.9496 44.7843C14.961 44.8386 14.9674 44.885 14.969 44.9238C14.9634 44.9744 14.9423 45.0009 14.9001 45.0074C14.8779 45.0046 14.8156 44.9816 14.7227 44.9431C14.476 44.834 14.1092 44.663 13.5646 44.4085C12.5376 43.9242 11.5632 43.385 10.6416 42.7912C10.483 42.6843 10.3161 42.5717 10.1499 42.4599C10.051 42.3943 9.95586 42.3306 9.86401 42.2686C7.01233 40.2691 4.70213 37.7117 2.94167 34.6045C1.70484 32.4094 0.489845 29.0463 0.537251 27.9588C0.655983 27.7884 0.865438 27.5487 1.14691 27.2573C2.02434 26.4097 3.6187 24.9613 4.29514 24.4137C5.22642 23.6665 6.22989 22.8961 7.17178 22.2044C7.33199 22.0914 7.49799 21.975 7.67047 21.8547C7.82286 21.7478 7.97354 21.6428 8.12207 21.5398C8.20325 21.4874 8.29217 21.4267 8.38289 21.3612C8.74154 21.1192 9.08134 20.8973 9.38789 20.7063C9.6836 20.5244 10.2523 20.1604 10.6617 19.8874C10.7495 19.8314 10.8408 19.7743 10.9321 19.7184C11.133 19.5996 11.3374 19.4805 11.5438 19.3621C11.6263 19.3174 11.6947 19.2827 11.7422 19.2619C11.8158 19.2273 11.9091 19.1795 12.0083 19.1254ZM12.5905 18.0086C12.0207 18.3037 11.5213 18.5775 11.1508 18.8028C10.6959 19.0757 10.2978 19.3032 10.2637 19.3032C10.184 19.3032 8.33015 20.5316 7.38614 21.2027C6.77112 21.64 5.95903 22.2724 5.10989 22.9631C4.55148 23.408 4.03344 23.8396 3.52845 24.2807C2.10306 25.496 0.858966 26.6348 0.596082 27.0145L0.590231 27.0223L0.584163 27.0302L0.581164 27.0341C0.464264 27.1421 0.377033 27.2201 0.329173 27.2587L0.291616 27.0183C0.0300254 25.5625 -0.0382189 24.4024 0.0186514 22.4916C0.121011 19.3866 0.575954 17.146 1.6337 14.5301C2.62081 12.1072 4.03272 9.78339 5.57897 7.98887C5.7181 7.82969 5.85671 7.67421 5.99096 7.52678C6.27198 7.22243 6.55649 6.93628 6.84283 6.67089L7.28984 6.26052C7.36988 6.20931 7.43343 6.18183 7.47713 6.18183C7.48018 6.18183 7.48393 6.18204 7.48838 6.1825L8.66848 6.53986C8.6911 6.55621 8.73867 6.57015 8.80183 6.58025L8.98982 6.63716C10.7755 7.17173 14.7108 8.59342 15.9505 9.13937C16.394 9.34412 16.9059 9.57157 17.0878 9.65118C18.2173 10.1345 19.6215 10.8381 20.8835 11.5306C20.4009 11.655 19.9403 11.8722 19.5292 12.1776L16.1878 14.66L13.0993 17.4506C12.9103 17.6214 12.7403 17.8085 12.5905 18.0086Z" fill="url(#paint0_linear)"/>
<path d="M29.6606 26.1717C30.0209 26.4311 30.5235 26.1737 30.5235 25.7298V20.531C30.5235 20.0871 30.0209 19.8297 29.6606 20.0891L28.2802 21.0834C28.1381 21.1857 28.0539 21.3501 28.0539 21.5252V24.7355C28.0539 24.9106 28.1381 25.0751 28.2802 25.1774L29.6606 26.1717Z" fill="url(#paint1_linear)"/>
<path d="M15.9331 20.5611C15.9331 19.5408 16.7603 18.7136 17.7807 18.7136H25.8225C26.8429 18.7136 27.6701 19.5408 27.6701 20.5611V25.8515C27.6701 26.8719 26.8429 27.699 25.8225 27.699H17.7807C16.7603 27.699 15.9331 26.8719 15.9331 25.8515V20.5611Z" fill="url(#paint2_linear)"/>
<path d="M56.3608 32H64.5928V30.248H58.3048V15.2H56.3608V32ZM67.1181 32H69.0141V19.52H67.1181V32ZM66.7581 16.304C66.7581 17.048 67.3341 17.624 68.0541 17.624C68.7981 17.624 69.3741 17.048 69.3741 16.304C69.3741 15.584 68.7981 15.008 68.0541 15.008C67.3341 15.008 66.7581 15.584 66.7581 16.304ZM72.5143 32H74.3383V30.032C74.6503 30.488 75.9703 32.312 78.6823 32.312C82.2343 32.312 84.7783 29.6 84.7783 25.784C84.7783 21.944 82.3543 19.208 78.8263 19.208C76.2103 19.208 74.7943 20.888 74.4103 21.536V14.648H72.5143V32ZM74.3383 25.808C74.3383 22.712 76.2583 20.936 78.6103 20.936C81.0583 20.936 82.8343 22.952 82.8343 25.808C82.8343 28.712 80.9623 30.608 78.5623 30.608C75.9703 30.608 74.3383 28.424 74.3383 25.808ZM86.6337 25.808C86.6337 29.648 89.2497 32.312 93.0417 32.312C95.8737 32.312 97.5057 30.776 98.2017 29.6L96.9537 28.688C96.3537 29.528 95.1777 30.632 93.0657 30.632C90.4737 30.632 88.6017 28.952 88.5777 26.168H98.5857C98.6097 25.928 98.6097 25.664 98.6097 25.592C98.6097 21.848 96.3537 19.208 92.6817 19.208C89.3697 19.208 86.6337 21.824 86.6337 25.808ZM88.6737 24.752C88.8177 22.4 90.6417 20.84 92.6817 20.84C94.7457 20.84 96.5457 22.16 96.6657 24.752H88.6737ZM106.852 19.208C104.956 19.208 103.564 20.36 103.132 21.608V19.52H101.26V32H103.156V26.024C103.156 23.36 103.996 21.104 106.852 21.104V19.208ZM110.081 25.76C110.081 23.024 111.953 20.936 114.641 20.936C117.329 20.936 119.249 23 119.249 25.76C119.249 28.544 117.329 30.584 114.641 30.584C111.977 30.584 110.081 28.568 110.081 25.76ZM108.137 25.76C108.137 29.552 110.897 32.312 114.641 32.312C118.385 32.312 121.169 29.504 121.169 25.76C121.169 22.016 118.433 19.208 114.665 19.208C110.945 19.208 108.137 21.992 108.137 25.76Z" fill="#51BA65"/>
<path d="M56.3608 32H56.0608V32.3H56.3608V32ZM64.5928 32V32.3H64.8928V32H64.5928ZM64.5928 30.248H64.8928V29.948H64.5928V30.248ZM58.3048 30.248H58.0048V30.548H58.3048V30.248ZM58.3048 15.2H58.6048V14.9H58.3048V15.2ZM56.3608 15.2V14.9H56.0608V15.2H56.3608ZM56.3608 32.3H64.5928V31.7H56.3608V32.3ZM64.8928 32V30.248H64.2928V32H64.8928ZM64.5928 29.948H58.3048V30.548H64.5928V29.948ZM58.6048 30.248V15.2H58.0048V30.248H58.6048ZM58.3048 14.9H56.3608V15.5H58.3048V14.9ZM56.0608 15.2V32H56.6608V15.2H56.0608ZM67.1181 32H66.8181V32.3H67.1181V32ZM69.0141 32V32.3H69.3141V32H69.0141ZM69.0141 19.52H69.3141V19.22H69.0141V19.52ZM67.1181 19.52V19.22H66.8181V19.52H67.1181ZM67.1181 32.3H69.0141V31.7H67.1181V32.3ZM69.3141 32V19.52H68.7141V32H69.3141ZM69.0141 19.22H67.1181V19.82H69.0141V19.22ZM66.8181 19.52V32H67.4181V19.52H66.8181ZM66.4581 16.304C66.4581 17.2101 67.1648 17.924 68.0541 17.924V17.324C67.5034 17.324 67.0581 16.8859 67.0581 16.304H66.4581ZM68.0541 17.924C68.9638 17.924 69.6741 17.2137 69.6741 16.304H69.0741C69.0741 16.8823 68.6324 17.324 68.0541 17.324V17.924ZM69.6741 16.304C69.6741 15.4147 68.9602 14.708 68.0541 14.708V15.308C68.636 15.308 69.0741 15.7533 69.0741 16.304H69.6741ZM68.0541 14.708C67.1684 14.708 66.4581 15.4183 66.4581 16.304H67.0581C67.0581 15.7497 67.4998 15.308 68.0541 15.308V14.708ZM72.5143 32H72.2143V32.3H72.5143V32ZM74.3383 32V32.3H74.6383V32H74.3383ZM74.3383 30.032L74.5859 29.8626L74.0383 29.0623V30.032H74.3383ZM74.4103 21.536H74.1103V22.6307L74.6684 21.6889L74.4103 21.536ZM74.4103 14.648H74.7103V14.348H74.4103V14.648ZM72.5143 14.648V14.348H72.2143V14.648H72.5143ZM72.5143 32.3H74.3383V31.7H72.5143V32.3ZM74.6383 32V30.032H74.0383V32H74.6383ZM74.0908 30.2014C74.4178 30.6793 75.8161 32.612 78.6823 32.612V32.012C76.1246 32.012 74.8829 30.2966 74.5859 29.8626L74.0908 30.2014ZM78.6823 32.612C82.4187 32.612 85.0783 29.7464 85.0783 25.784H84.4783C84.4783 29.4536 82.05 32.012 78.6823 32.012V32.612ZM85.0783 25.784C85.0783 23.8012 84.452 22.0823 83.3484 20.8554C82.2425 19.626 80.6725 18.908 78.8263 18.908V19.508C80.5082 19.508 81.9141 20.158 82.9023 21.2566C83.8927 22.3577 84.4783 23.9268 84.4783 25.784H85.0783ZM78.8263 18.908C76.0685 18.908 74.5691 20.6797 74.1523 21.3831L74.6684 21.6889C75.0196 21.0963 76.3522 19.508 78.8263 19.508V18.908ZM74.7103 21.536V14.648H74.1103V21.536H74.7103ZM74.4103 14.348H72.5143V14.948H74.4103V14.348ZM72.2143 14.648V32H72.8143V14.648H72.2143ZM74.6383 25.808C74.6383 24.3228 75.0978 23.1821 75.8119 22.4155C76.5255 21.6492 77.5122 21.236 78.6103 21.236V20.636C77.3565 20.636 76.2071 21.1108 75.3728 22.0065C74.5388 22.9019 74.0383 24.1972 74.0383 25.808H74.6383ZM78.6103 21.236C80.8551 21.236 82.5343 23.0775 82.5343 25.808H83.1343C83.1343 22.8265 81.2616 20.636 78.6103 20.636V21.236ZM82.5343 25.808C82.5343 28.5711 80.7729 30.308 78.5623 30.308V30.908C81.1518 30.908 83.1343 28.8529 83.1343 25.808H82.5343ZM78.5623 30.308C76.1834 30.308 74.6383 28.31 74.6383 25.808H74.0383C74.0383 28.538 75.7573 30.908 78.5623 30.908V30.308ZM98.2017 29.6L98.4598 29.7528L98.5985 29.5185L98.3787 29.3578L98.2017 29.6ZM96.9537 28.688L97.1307 28.4458L96.8858 28.2669L96.7095 28.5136L96.9537 28.688ZM88.5777 26.168V25.868H88.2751L88.2777 26.1706L88.5777 26.168ZM98.5857 26.168V26.468H98.8572L98.8842 26.1979L98.5857 26.168ZM88.6737 24.752L88.3742 24.7337L88.3547 25.052H88.6737V24.752ZM96.6657 24.752V25.052H96.9799L96.9653 24.7381L96.6657 24.752ZM86.3337 25.808C86.3337 27.7976 87.0125 29.5021 88.2019 30.7104C89.3916 31.9192 91.0732 32.612 93.0417 32.612V32.012C91.2181 32.012 89.6957 31.3728 88.6295 30.2896C87.5628 29.2059 86.9337 27.6584 86.9337 25.808H86.3337ZM93.0417 32.612C95.9978 32.612 97.7197 31.0033 98.4598 29.7528L97.9435 29.4472C97.2916 30.5487 95.7496 32.012 93.0417 32.012V32.612ZM98.3787 29.3578L97.1307 28.4458L96.7766 28.9302L98.0247 29.8422L98.3787 29.3578ZM96.7095 28.5136C96.1473 29.3007 95.0528 30.332 93.0657 30.332V30.932C95.3025 30.932 96.56 29.7553 97.1978 28.8624L96.7095 28.5136ZM93.0657 30.332C91.8349 30.332 90.7978 29.9341 90.0671 29.2282C89.3377 28.5236 88.889 27.4883 88.8776 26.1654L88.2777 26.1706C88.2903 27.6317 88.7896 28.8284 89.6502 29.6598C90.5095 30.4899 91.7044 30.932 93.0657 30.932V30.332ZM88.5777 26.468H98.5857V25.868H88.5777V26.468ZM98.8842 26.1979C98.9098 25.9413 98.9097 25.6636 98.9097 25.592H98.3097C98.3097 25.6644 98.3095 25.9147 98.2871 26.1381L98.8842 26.1979ZM98.9097 25.592C98.9097 23.6607 98.3273 21.988 97.2449 20.7945C96.1595 19.5977 94.5938 18.908 92.6817 18.908V19.508C94.4416 19.508 95.8398 20.1383 96.8004 21.1975C97.764 22.26 98.3097 23.7793 98.3097 25.592H98.9097ZM92.6817 18.908C89.1906 18.908 86.3337 21.672 86.3337 25.808H86.9337C86.9337 21.9759 89.5488 19.508 92.6817 19.508V18.908ZM88.9731 24.7703C89.1074 22.5773 90.7995 21.14 92.6817 21.14V20.54C90.4838 20.54 88.528 22.2227 88.3742 24.7337L88.9731 24.7703ZM92.6817 21.14C93.6505 21.14 94.5413 21.4494 95.2014 22.0465C95.8585 22.6409 96.3092 23.5404 96.366 24.7659L96.9653 24.7381C96.9021 23.3716 96.3928 22.3151 95.6039 21.6015C94.818 20.8906 93.7768 20.54 92.6817 20.54V21.14ZM96.6657 24.452H88.6737V25.052H96.6657V24.452ZM106.852 19.208H107.152V18.908H106.852V19.208ZM103.132 21.608H102.832L103.415 21.7061L103.132 21.608ZM103.132 19.52H103.432V19.22H103.132V19.52ZM101.26 19.52V19.22H100.96V19.52H101.26ZM101.26 32H100.96V32.3H101.26V32ZM103.156 32V32.3H103.456V32H103.156ZM106.852 21.104V21.404H107.152V21.104H106.852ZM106.852 18.908C104.834 18.908 103.324 20.1357 102.848 21.5099L103.415 21.7061C103.804 20.5843 105.078 19.508 106.852 19.508V18.908ZM103.432 21.608V19.52H102.832V21.608H103.432ZM103.132 19.22H101.26V19.82H103.132V19.22ZM100.96 19.52V32H101.56V19.52H100.96ZM101.26 32.3H103.156V31.7H101.26V32.3ZM103.456 32V26.024H102.856V32H103.456ZM103.456 26.024C103.456 24.7138 103.664 23.5515 104.187 22.7253C104.694 21.9223 105.518 21.404 106.852 21.404V20.804C105.33 20.804 104.306 21.4137 103.679 22.4047C103.068 23.3725 102.856 24.6702 102.856 26.024H103.456ZM107.152 21.104V19.208H106.552V21.104H107.152ZM110.381 25.76C110.381 23.169 112.138 21.236 114.641 21.236V20.636C111.767 20.636 109.781 22.879 109.781 25.76H110.381ZM114.641 21.236C117.148 21.236 118.949 23.1503 118.949 25.76H119.549C119.549 22.8497 117.509 20.636 114.641 20.636V21.236ZM118.949 25.76C118.949 28.3927 117.149 30.284 114.641 30.284V30.884C117.508 30.884 119.549 28.6953 119.549 25.76H118.949ZM114.641 30.284C112.158 30.284 110.381 28.4189 110.381 25.76H109.781C109.781 28.7171 111.795 30.884 114.641 30.884V30.284ZM107.837 25.76C107.837 29.7162 110.729 32.612 114.641 32.612V32.012C111.064 32.012 108.437 29.3878 108.437 25.76H107.837ZM114.641 32.612C118.552 32.612 121.469 29.6682 121.469 25.76H120.869C120.869 29.3398 118.217 32.012 114.641 32.012V32.612ZM121.469 25.76C121.469 21.854 118.602 18.908 114.665 18.908V19.508C118.263 19.508 120.869 22.178 120.869 25.76H121.469ZM114.665 18.908C110.779 18.908 107.837 21.8263 107.837 25.76H108.437C108.437 22.1577 111.11 19.508 114.665 19.508V18.908Z" fill="#51BA65"/>
<defs>
<linearGradient id="paint0_linear" x1="-6.03413" y1="4.8886" x2="34.845" y2="55.1086" gradientUnits="userSpaceOnUse">
<stop stop-color="#51BA65"/>
<stop offset="1" stop-color="#384DA1"/>
</linearGradient>
<linearGradient id="paint1_linear" x1="10.3749" y1="13.4902" x2="14.7079" y2="40.3034" gradientUnits="userSpaceOnUse">
<stop stop-color="#51BA65"/>
<stop offset="1" stop-color="#384DA1"/>
</linearGradient>
<linearGradient id="paint2_linear" x1="10.3749" y1="13.4902" x2="14.7079" y2="40.3034" gradientUnits="userSpaceOnUse">
<stop stop-color="#51BA65"/>
<stop offset="1" stop-color="#384DA1"/>
</linearGradient>
</defs>
</svg>
