<svg width="539" height="376" viewBox="0 0 539 376" fill="none" xmlns="http://www.w3.org/2000/svg">
<path d="M294.414 161.25H445.71C453.3 161.25 459.454 155.097 459.454 147.507V35.8441H280.672V147.507C280.672 155.096 286.824 161.25 294.414 161.25Z" fill="white"/>
<path d="M445.71 161.73H294.414C286.572 161.73 280.192 155.35 280.192 147.507V35.3644H459.935V147.507C459.934 155.349 453.554 161.73 445.71 161.73ZM281.152 36.3238V147.507C281.152 154.82 287.101 160.77 294.414 160.77H445.71C453.024 160.77 458.974 154.82 458.974 147.507V36.3238H281.152Z" fill="#D3D6DD"/>
<path d="M284.269 23.8007L380.092 23.6539C380.484 23.653 380.863 23.6952 381.226 23.7691L455.63 23.6539C458.075 23.6501 460.059 25.1688 460.062 27.0473L460.079 37.05L384.54 36.8514L384.541 37.05L279.863 36.7747L279.848 27.2085C279.843 25.331 281.823 23.8055 284.269 23.8007Z" fill="url(#paint0_linear)"/>
<path d="M452.144 32.7845C451.591 32.7845 451.071 32.5696 450.681 32.181C450.291 31.7915 450.074 31.2725 450.073 30.7199C450.072 29.5801 450.998 28.6505 452.138 28.6476H452.141C453.281 28.6476 454.209 29.5744 454.21 30.7141C454.211 31.2658 453.995 31.7848 453.605 32.1763C453.214 32.5677 452.695 32.7845 452.144 32.7845ZM452.139 29.1273L452.14 29.607C451.528 29.6079 451.031 30.1068 451.032 30.718C451.033 31.0144 451.148 31.2926 451.359 31.5008C451.777 31.9191 452.506 31.9191 452.926 31.498C453.136 31.2878 453.251 31.0096 453.251 30.7141C453.251 30.103 452.753 29.606 452.142 29.606L452.139 29.1273Z" fill="white"/>
<path d="M444.096 32.7971C442.954 32.7971 442.025 31.8703 442.024 30.7315C442.024 29.5908 442.95 28.6621 444.088 28.6602H444.089C445.23 28.6602 446.16 29.5869 446.161 30.7257C446.162 31.8674 445.235 32.7961 444.096 32.7971ZM444.091 29.1399L444.09 29.6196C443.479 29.6205 442.983 30.1194 442.983 30.7315C442.984 31.3417 443.482 31.8377 444.093 31.8377C444.389 31.8377 444.668 31.7216 444.876 31.5115C445.086 31.3014 445.201 31.0232 445.201 30.7277C445.2 30.1175 444.702 29.6205 444.091 29.6205V29.1399Z" fill="white"/>
<path d="M436.196 32.8104C435.056 32.8104 434.126 31.8836 434.125 30.7438C434.124 30.1922 434.339 29.6722 434.728 29.2808C435.119 28.8893 435.638 28.6735 436.19 28.6735H436.193C437.333 28.6735 438.261 29.6002 438.262 30.739C438.263 31.8779 437.337 32.8075 436.196 32.8104ZM436.191 29.1532L436.192 29.6329C435.895 29.6329 435.617 29.749 435.408 29.9591C435.199 30.1682 435.083 30.4474 435.084 30.7429C435.085 31.354 435.583 31.851 436.193 31.851C436.806 31.85 437.304 31.3511 437.303 30.74C437.302 30.1298 436.804 29.6329 436.193 29.6329L436.191 29.1532Z" fill="white"/>
<path opacity="0.81" d="M443.597 48.7039H291.323V147.13H443.597V48.7039Z" fill="#DFE0FC"/>
<g opacity="0.65">
<g opacity="0.65">
<path opacity="0.65" d="M403.579 61.1453H376.913V87.8118H403.579V61.1453Z" fill="white"/>
<g opacity="0.81">
<path opacity="0.81" d="M398.596 66.1284H381.896V82.8296H398.596V66.1284Z" fill="#ECF1F7"/>
</g>
<g opacity="0.65">
<path opacity="0.65" d="M410.336 53.5258V69.7348H426.545V53.5258H410.336ZM422.71 65.9001H414.171V57.3605H422.71V65.9001Z" fill="white"/>
</g>
<g opacity="0.65">
<path opacity="0.65" d="M387.839 93.2804V110.141H404.699V93.2804H387.839ZM400.882 106.322H391.658V97.0988H400.882V106.322Z" fill="white"/>
</g>
<g opacity="0.65">
<path opacity="0.65" d="M412.263 76.0006V114.756H437.148V76.0006H412.263ZM433.893 109.686H415.519V81.071H433.893V109.686Z" fill="white"/>
</g>
</g>
</g>
<path d="M351.147 125.087L396.1 108.222C408.705 103.493 422.077 108.067 425.968 118.437L445.291 166.095L326.175 168.357C320.017 151.944 331.198 132.571 351.147 125.087Z" fill="#33002B"/>
<path d="M378.358 74.7612C378.358 74.7612 377.908 32.6704 346.149 42.1215C345.291 42.3767 344.44 42.6482 343.592 42.9274C340.182 39.9024 335.148 39.0773 330.825 41.2474C327.586 42.8736 325.457 45.8267 324.753 49.1164C323.105 48.4909 321.228 48.4554 319.464 49.1711C317.251 50.0701 315.73 51.9409 315.18 54.09C309.688 57.2387 307.222 64.0274 309.67 70.0553C311.285 74.033 314.67 76.7519 318.545 77.6969L321.565 89.4304C322.509 93.101 326.251 95.3105 329.922 94.3655L376.24 82.4421L374.39 75.2553C375.519 75.1526 376.843 75.026 378.358 74.7612Z" fill="#33002B"/>
<path d="M379.685 113.884L374.827 98.5753C374.834 97 374.663 95.4016 374.252 93.8052L373.168 89.5915L372.502 87.0031L374.263 86.5493C378.186 85.539 380.547 81.5403 379.537 77.6182C378.527 73.6962 374.528 71.3342 370.606 72.3444L368.845 72.7973L368.676 72.142C366.861 76.8402 369.971 80.6307 366.659 77.931C366.236 77.5856 366.035 76.4938 365.858 76.0112C365.358 74.6364 364.912 73.2434 364.42 71.8666C363.354 68.881 362.673 65.549 360.852 62.9049C359.578 61.0542 357.689 59.6957 355.595 58.9627C354.795 59.358 353.921 59.6362 352.986 59.7552C351.294 59.9711 349.659 59.6573 348.242 58.9464C347.757 59.0846 347.275 59.239 346.797 59.4127C346.665 63.3942 343.672 66.8068 339.594 67.3268C337.121 67.6424 334.77 66.824 333.046 65.2832C332.095 67.8871 330.1 70.0994 327.33 71.2238C325.283 72.0547 323.126 72.1621 321.132 71.6815C321.207 72.0739 321.272 72.4663 321.373 72.8587L326.981 94.6495L329.716 105.268C331.826 113.47 339.032 119.007 347.074 119.372L348.476 123.787C350.793 131.089 358.662 135.168 365.965 132.851L370.622 131.372C377.923 129.055 382.002 121.186 379.685 113.884Z" fill="#E8A396"/>
<path opacity="0.46" d="M359.638 112.499L351.538 114.585C341.476 117.175 331.221 111.118 328.63 101.056L329.715 105.269C332.129 114.645 341.2 120.536 350.566 119.201C352.657 124.069 358.141 126.651 363.298 125.015C368.789 123.273 371.827 117.41 370.084 111.92C370.012 111.692 369.923 111.476 369.836 111.258C374.022 106.721 375.904 100.229 374.25 93.8062L373.166 89.5925C375.757 99.6528 369.7 109.909 359.638 112.499Z" fill="#E17460"/>
<path d="M374.449 80.9253C374.376 80.9253 374.302 80.908 374.232 80.8735L371.713 79.5946L373.619 75.8088C373.738 75.5699 374.026 75.4769 374.263 75.5958C374.5 75.7157 374.595 76.0036 374.476 76.2396L373.001 79.1715L374.666 80.0177C374.902 80.1376 374.997 80.4264 374.877 80.6624C374.792 80.8293 374.623 80.9253 374.449 80.9253Z" fill="#E17460"/>
<path opacity="0.57" d="M347.151 109.229C347.071 109.229 346.991 109.209 346.917 109.168C346.686 109.04 346.603 108.748 346.731 108.516C347.845 106.511 350.05 106.324 351.059 106.512C351.319 106.559 351.491 106.807 351.444 107.068C351.398 107.328 351.152 107.505 350.888 107.456C350.796 107.439 348.626 107.082 347.571 108.982C347.482 109.139 347.317 109.229 347.151 109.229Z" fill="#E17460"/>
<path d="M355.198 85.9238C355.198 85.9238 352.029 89.3527 348.267 91.4317C344.504 93.5107 350.128 99.0657 355.991 96.2297C361.853 93.3937 358.19 84.0031 355.198 85.9238Z" fill="white"/>
<path d="M353.276 71.0454C352.607 71.3908 351.707 71.3601 350.837 71.3802C349.96 71.3821 349.079 71.4061 348.314 71.4551C347.548 71.503 346.671 71.5894 345.802 71.6968C344.935 71.7851 344.043 71.928 343.342 71.669C342.666 71.4282 342.343 70.6367 343.052 69.5948C343.716 68.5817 345.555 67.4102 348.09 67.2443C350.622 67.0917 352.574 68.0252 353.342 68.9481C354.157 69.8951 353.922 70.7211 353.276 71.0454Z" fill="#33002B"/>
<path d="M325.873 77.0551C326.48 77.128 327.151 76.8507 327.815 76.6205C328.479 76.3749 329.153 76.1437 329.745 75.9643C330.339 75.7839 331.027 75.6016 331.717 75.4376C332.398 75.2601 333.114 75.1162 333.57 74.7218C334.014 74.3486 334.031 73.6588 333.195 73.0707C332.404 72.4912 330.676 72.1238 328.711 72.7138C326.752 73.3134 325.541 74.5712 325.224 75.4865C324.878 76.4334 325.292 76.9918 325.873 77.0551Z" fill="#33002B"/>
<path d="M339.381 78.0376L338.65 86.9399C338.484 88.9488 340.639 90.3141 343.095 89.6953C343.77 89.5254 344.53 89.2559 345.384 88.8548" fill="#E8A396"/>
<path d="M341.908 90.3246C340.884 90.3246 339.934 90.0099 339.23 89.4131C338.467 88.7675 338.092 87.8743 338.173 86.8995L338.904 77.9963C338.925 77.7325 339.165 77.5415 339.421 77.5569C339.685 77.579 339.88 77.8102 339.859 78.075L339.128 86.9782C339.073 87.6363 339.331 88.2408 339.85 88.6802C340.61 89.3249 341.779 89.5311 342.978 89.228C343.665 89.0553 344.406 88.7828 345.18 88.4182C345.417 88.305 345.706 88.4086 345.818 88.6485C345.931 88.8883 345.829 89.1742 345.589 89.2875C344.759 89.6779 343.96 89.9706 343.212 90.1596C342.773 90.2708 342.334 90.3246 341.908 90.3246Z" fill="#E17460"/>
<path d="M348.872 82.8854C349.737 82.8854 350.438 82.1844 350.438 81.3196C350.438 80.4549 349.737 79.7539 348.872 79.7539C348.007 79.7539 347.306 80.4549 347.306 81.3196C347.306 82.1844 348.007 82.8854 348.872 82.8854Z" fill="#33002B"/>
<path d="M332.016 87.8589C332.881 87.8589 333.582 87.1579 333.582 86.2932C333.582 85.4284 332.881 84.7274 332.016 84.7274C331.151 84.7274 330.45 85.4284 330.45 86.2932C330.45 87.1579 331.151 87.8589 332.016 87.8589Z" fill="#33002B"/>
<path d="M331.072 88.9324C330.943 88.9324 330.815 88.8806 330.721 88.7789C330.54 88.5851 330.551 88.281 330.745 88.1006C332.565 86.4082 334.488 87.0117 334.568 87.0385C334.82 87.1211 334.957 87.3926 334.875 87.6439C334.792 87.8943 334.521 88.0306 334.271 87.9509C334.199 87.9279 332.784 87.5134 331.398 88.8038C331.306 88.8902 331.189 88.9324 331.072 88.9324Z" fill="#E17460"/>
<path d="M348.038 83.744C347.909 83.744 347.781 83.6922 347.687 83.5905C347.506 83.3967 347.517 83.0926 347.711 82.9122C349.344 81.3944 351.071 81.9375 351.144 81.9614C351.396 82.044 351.533 82.3155 351.449 82.5668C351.368 82.8182 351.098 82.9573 350.848 82.8738C350.796 82.8575 349.567 82.4929 348.364 83.6145C348.273 83.7018 348.156 83.744 348.038 83.744Z" fill="#E17460"/>
<path d="M380.21 134.478C380.567 134.478 380.857 134.188 380.857 133.83C380.857 133.473 380.567 133.183 380.21 133.183C379.852 133.183 379.562 133.473 379.562 133.83C379.562 134.188 379.852 134.478 380.21 134.478Z" fill="#E0E0E0"/>
<path d="M361.98 140.16C362.338 140.16 362.628 139.87 362.628 139.512C362.628 139.154 362.338 138.864 361.98 138.864C361.622 138.864 361.333 139.154 361.333 139.512C361.333 139.87 361.622 140.16 361.98 140.16Z" fill="#E0E0E0"/>
<path d="M343.888 125.556L346.493 136.509L359.812 147.047C361.049 148.027 362.882 147.509 363.426 146.027L368.598 131.896L347.185 122.774C345.36 121.997 343.429 123.627 343.888 125.556Z" fill="#F7F7ED"/>
<path d="M380.317 109.182L368.597 131.896L382.657 138.89C383.989 139.552 385.597 138.862 386.035 137.441L391.527 119.591L382.237 108.95C381.695 108.329 380.695 108.449 380.317 109.182Z" fill="#F7F7ED"/>
<path d="M426.914 117.111L426.852 117.131L426.473 113.812L424.821 101.444C418.087 100.57 410.528 93.0732 410.566 93.0694L404.226 88.8874C403.08 88.1314 402.579 86.6174 403.217 85.4019C403.951 84.004 405.706 83.5752 406.992 84.4223C406.992 84.4223 410.622 86.8266 413.013 88.4125C414.011 89.0735 415.331 88.1477 415.005 86.9964C414.53 85.3222 413.355 83.8639 412.266 82.8057C412.207 82.7664 397.427 70.7682 397.427 70.7682C396.301 69.8529 396.132 68.1998 397.047 67.0754C398.193 66.1477 400.069 66.1496 401.215 67.0802L411.507 75.4491C411.967 75.8232 412.627 75.8242 413.088 75.45L413.404 75.1939C413.938 74.7602 414.046 73.9869 413.65 73.4238L404.091 59.8176C403.302 58.6941 403.391 57.1015 404.43 56.2045C405.626 55.1722 407.416 55.4178 408.302 56.6765L417.6 69.9124C418.085 70.6022 419 70.8372 419.758 70.4669C420.725 69.993 421.124 68.8254 420.65 67.8583L414.287 54.8824C413.682 53.6496 414.02 52.0906 415.186 51.3662C416.527 50.5335 418.257 51.0544 418.936 52.436L425.548 65.9203C425.987 66.8164 426.704 67.5455 427.592 68.0012C428.638 68.5376 429.83 67.5964 429.551 66.4547L427.947 59.8876C427.622 58.5541 428.285 57.1034 429.579 56.6468C431.069 56.121 432.646 57.0017 433.012 58.4965L436.821 72.7445C440.999 84.9644 441.698 93.4742 441.812 96.2575L444.775 108.594L445.494 111.372L445.445 111.387L426.914 117.111Z" fill="#E8A396"/>
<path d="M423.087 91.0873C422.76 91.0873 422.442 90.9203 422.263 90.62C419.732 86.3833 414.606 87.2171 414.556 87.2247C414.026 87.312 413.536 86.9647 413.447 86.4428C413.358 85.9209 413.707 85.4239 414.228 85.3338C414.491 85.2877 420.708 84.2794 423.91 89.6347C424.181 90.0895 424.034 90.6786 423.578 90.951C423.425 91.0431 423.255 91.0873 423.087 91.0873Z" fill="#E27F6D"/>
<path opacity="0.52" d="M420.973 110.644L412.433 107.229C410.725 108.893 409.915 111.371 410.479 113.833L427.274 187.123H436.843L420.973 110.644Z" fill="#43404A"/>
<path d="M418.824 103.875C415.429 105.045 413.462 108.587 414.264 112.087L431.275 186.323C431.859 193.448 445.341 197.576 458.263 193.211C470.176 189.189 476.405 176.113 472.023 164.328L449.92 100.58C448.651 96.9184 444.658 94.9766 440.994 96.2382L418.824 103.875Z" fill="#33002B"/>
<path d="M406.122 150.407C411.795 150.407 416.393 145.808 416.393 140.136C416.393 134.463 411.795 129.864 406.122 129.864C400.449 129.864 395.851 134.463 395.851 140.136C395.851 145.808 400.449 150.407 406.122 150.407Z" fill="#CBEAD1"/>
<path d="M411.949 138.345L409.814 138.914C409.773 138.925 409.746 138.961 409.746 139.002V137.874C409.746 137.477 409.424 137.156 409.028 137.156H402.586C402.189 137.156 401.867 137.477 401.867 137.874V142.617C401.867 143.014 402.189 143.335 402.586 143.335H409.028C409.424 143.335 409.746 143.014 409.746 142.617V141.488C409.746 141.53 409.773 141.566 409.814 141.576L411.949 142.145C412.008 142.161 412.063 142.118 412.063 142.058V138.433C412.063 138.374 412.007 138.33 411.949 138.345Z" fill="white"/>
<path d="M371.034 150.407C376.707 150.407 381.305 145.808 381.305 140.136C381.305 134.463 376.707 129.864 371.034 129.864C365.361 129.864 360.763 134.463 360.763 140.136C360.763 145.808 365.361 150.407 371.034 150.407Z" fill="url(#paint1_linear)"/>
<path d="M377.311 140.692V140.011C377.311 137.507 375.274 135.469 372.77 135.469H369.688C366.816 135.469 364.479 137.806 364.479 140.678V140.929C364.236 141.177 364.083 141.496 364.083 141.849V142.154C364.083 142.171 364.088 142.186 364.089 142.202C364.056 142.273 364.036 142.35 364.036 142.431V143.32C364.036 143.648 364.336 143.917 364.703 143.917H368.395C368.761 143.917 369.061 143.648 369.061 143.32V142.478C369.088 142.373 369.108 142.265 369.108 142.154V141.849C369.108 141.332 368.788 140.884 368.321 140.641C368.341 139.902 368.943 139.307 369.688 139.307H372.77C373.158 139.307 373.474 139.622 373.474 140.011V140.828C373.168 141.084 372.972 141.446 372.972 141.849V142.154C372.972 142.171 372.977 142.186 372.978 142.202C372.945 142.273 372.926 142.35 372.926 142.431V143.32C372.926 143.648 373.226 143.917 373.592 143.917H377.284C377.65 143.917 377.95 143.648 377.95 143.32V142.478C377.978 142.373 377.996 142.265 377.996 142.154V141.849C377.996 141.369 377.724 140.944 377.311 140.692Z" fill="white"/>
<path d="M336.148 150.407C341.821 150.407 346.42 145.808 346.42 140.136C346.42 134.463 341.821 129.864 336.148 129.864C330.476 129.864 325.877 134.463 325.877 140.136C325.877 145.808 330.476 150.407 336.148 150.407Z" fill="#CBEAD1"/>
<path d="M336.148 142.336C337.408 142.336 338.439 141.305 338.439 140.045V136.673C338.439 135.413 337.408 134.383 336.148 134.383C334.889 134.383 333.857 135.413 333.857 136.673V140.045C333.857 141.304 334.888 142.336 336.148 142.336Z" fill="white"/>
<path d="M339.604 139.025C339.34 139.025 339.125 139.24 339.125 139.504V141.15C339.125 142.113 338.341 142.897 337.377 142.897H335.024C334.003 142.897 333.172 142.066 333.172 141.044V139.38C333.172 139.115 332.957 138.9 332.692 138.9C332.427 138.9 332.212 139.115 332.212 139.38V141.044C332.212 142.595 333.473 143.856 335.024 143.856H335.669V145.313C335.669 145.329 335.676 145.34 335.678 145.356H334.899C334.635 145.356 334.42 145.571 334.42 145.835C334.42 146.1 334.635 146.315 334.899 146.315H337.398C337.663 146.315 337.877 146.1 337.877 145.835C337.877 145.571 337.663 145.356 337.398 145.356H336.62C336.621 145.34 336.628 145.329 336.628 145.313V143.856H337.377C338.87 143.856 340.084 142.642 340.084 141.15V139.504C340.084 139.239 339.87 139.025 339.604 139.025Z" fill="white"/>
<path d="M194.611 367.784H70.4288C59.0042 367.784 49.7432 358.524 49.7432 347.099V74.361C49.7432 62.9365 59.0042 53.6754 70.4288 53.6754H194.611C206.036 53.6754 215.297 62.9365 215.297 74.361V347.099C215.296 358.524 206.035 367.784 194.611 367.784Z" fill="#373449"/>
<path d="M192.016 363.248H73.0238C62.6278 363.248 54.1995 354.821 54.1995 344.425V75.6792C54.1995 65.2832 62.6278 56.8549 73.0238 56.8549H192.016C202.412 56.8549 210.84 65.2832 210.84 75.6792V344.425C210.84 354.821 202.412 363.248 192.016 363.248Z" fill="#43404A"/>
<path opacity="0.89" d="M132.719 71.1604C131.97 71.1604 131.264 70.8688 130.734 70.3382C130.203 69.8067 129.912 69.1015 129.912 68.3523C129.912 67.6039 130.203 66.8988 130.734 66.3682C131.263 65.8377 131.968 65.546 132.717 65.546C132.718 65.546 132.718 65.546 132.719 65.546C133.467 65.546 134.172 65.8377 134.703 66.3673C135.234 66.8988 135.526 67.6049 135.525 68.3542C135.524 69.1035 135.232 69.8086 134.703 70.3382C134.399 70.6423 134.041 70.8668 133.639 71.006C133.344 71.1076 133.034 71.1604 132.719 71.1604ZM132.718 66.5045C132.224 66.5045 131.76 66.6963 131.412 67.0455C131.063 67.3948 130.87 67.8591 130.871 68.3513C130.871 68.8454 131.063 69.3097 131.412 69.659C131.91 70.1559 132.674 70.3238 133.326 70.0984C133.59 70.0072 133.825 69.8595 134.026 69.659C134.375 69.3107 134.567 68.8463 134.568 68.3523C134.568 67.8591 134.376 67.3948 134.026 67.0455C133.677 66.6963 133.213 66.5045 132.72 66.5045C132.719 66.5045 132.718 66.5045 132.718 66.5045Z" fill="white"/>
<path opacity="0.89" d="M145.62 79.0131L118.823 79.0111L118.69 78.9037C118.009 78.3511 117.613 77.6325 117.575 76.8822C117.542 76.2347 117.775 75.6283 118.233 75.1736C118.654 74.7514 119.216 74.5173 119.814 74.5173C119.816 74.5173 119.819 74.5173 119.82 74.5173L145.618 74.5183C146.218 74.5183 146.783 74.7524 147.207 75.1774C147.63 75.5986 147.864 76.1627 147.866 76.7642C147.864 77.7227 147.255 78.5756 146.351 78.8893C146.116 78.9709 145.869 79.0131 145.62 79.0131ZM119.171 78.0517L145.617 78.0527C145.761 78.0527 145.902 78.0297 146.036 77.9827C146.555 77.8023 146.904 77.313 146.905 76.7642C146.905 76.4208 146.77 76.0975 146.527 75.8567C146.285 75.613 145.961 75.4787 145.617 75.4787L119.819 75.4777C119.818 75.4777 119.816 75.4777 119.815 75.4777C119.472 75.4777 119.151 75.611 118.91 75.8528C118.648 76.1138 118.514 76.462 118.533 76.8333C118.555 77.2651 118.78 77.6929 119.171 78.0517Z" fill="white"/>
<path d="M132.625 352.211C125.001 352.211 118.799 346.008 118.799 338.386C118.799 330.762 125 324.56 132.625 324.56C140.249 324.56 146.451 330.762 146.451 338.386C146.451 346.009 140.248 352.211 132.625 352.211ZM132.625 325.519C125.53 325.519 119.758 331.292 119.758 338.386C119.758 345.479 125.53 351.251 132.625 351.251C139.719 351.251 145.491 345.479 145.491 338.386C145.491 331.292 139.719 325.519 132.625 325.519Z" fill="white"/>
<path d="M201.988 89.8553H63.0508V312.375H201.988V89.8553Z" fill="white"/>
<path d="M201.988 89.8613H63.0508V99.462H201.988V89.8613Z" fill="url(#paint2_linear)"/>
<path opacity="0.81" d="M185.577 109.905H76.5735V296.799H185.577V109.905Z" fill="#DFE0FC"/>
<path d="M148.676 313.053L142.698 210.045L140.302 208.905L104.741 212.172L102.857 213.318L109.394 313.053H148.676Z" fill="#373449"/>
<path d="M199.459 313.053L181.001 224.096L142.623 208.754L142.697 210.045L148.675 313.053H199.459Z" fill="#51BA65"/>
<path d="M109.394 313.053L102.857 213.317L102.416 206.608L61.3136 235.677L55.8882 313.053H109.394Z" fill="#51BA65"/>
<path d="M148.36 131.326C147.66 124.535 141.586 119.598 134.794 120.299C134.221 120.358 133.668 120.468 133.123 120.601C126.237 116.686 121.05 112.004 111.002 115.371C107.129 116.669 103.841 119.448 102.234 123.204C102.011 123.727 101.833 124.276 101.682 124.835C97.4938 126.083 94.4064 127.944 92.1835 130.197C85.8994 133.179 83.0068 140.969 86.4386 147.494L87.7453 150.354C89.312 158.807 93.2772 165.952 93.2772 165.952C93.7636 165.793 95.5155 167.364 95.5155 167.364C95.5155 167.364 101.548 170.883 102.744 168.043C102.948 167.558 103.39 162.239 103.321 161.749C103.126 160.356 102.876 158.97 102.672 157.579C102.23 154.562 101.304 151.424 101.657 148.357C101.905 146.197 102.908 144.179 104.369 142.609C107.304 143.613 111.719 144.199 118.207 143.293C119.768 144.035 121.544 144.375 123.389 144.185C125.25 143.993 126.927 143.282 128.313 142.224C130.762 144.195 133.956 145.241 137.33 144.892C137.969 144.827 138.584 144.695 139.185 144.536C139.983 145.467 140.713 146.56 141.009 147.322C141.85 149.483 145.704 144.823 146.742 138.798C148.017 136.616 148.638 134.031 148.36 131.326Z" fill="#33002B"/>
<path opacity="0.46" d="M142.32 142.271L142.319 142.269L144.839 156.098L142.32 142.271Z" fill="#E17460"/>
<path d="M149.381 181.025L149.154 179.778C149.154 179.778 149.154 179.777 149.154 179.776L144.838 156.097L144.555 154.544L142.478 143.146C140.957 144.072 139.22 144.695 137.331 144.889C133.957 145.238 130.763 144.192 128.313 142.221C126.929 143.28 125.251 143.991 123.39 144.182C119.296 144.604 115.538 142.434 113.733 139.002C110.805 139.397 108.313 139.876 107.227 140.429C104.265 141.936 102.046 144.977 101.658 148.354C101.304 151.421 102.231 154.559 102.673 157.576C102.876 158.968 103.127 160.353 103.322 161.746C103.391 162.236 103.03 166.234 102.827 166.719C101.39 170.134 99.4711 166.844 98.5932 164.963C98.2872 164.307 97.5676 163.951 96.8557 164.081C92.2554 164.92 89.7015 169.235 91.1799 173.671L91.532 174.728C92.8723 178.748 96.9661 181.172 101.136 180.412L101.616 183.05L102.587 211.124C102.834 218.248 108.809 223.823 115.932 223.576L125.038 223.261C132.162 223.014 137.737 217.04 137.49 209.916L137.171 200.683C145.598 198.281 150.985 189.827 149.381 181.025Z" fill="#E8A396"/>
<path opacity="0.46" d="M149.381 181.025L149.154 179.779C150.779 188.703 144.862 197.255 135.938 198.881L124.53 200.96C115.604 202.587 107.051 196.67 105.424 187.745L103.993 179.893L101.135 180.414L102.794 189.516C104.036 196.335 109.139 201.463 115.435 203.099C115.347 203.791 115.351 204.494 115.481 205.2C116.3 209.668 121.37 212.481 126.803 211.484C132.238 210.487 135.978 206.057 135.158 201.59C135.131 201.443 135.087 201.302 135.051 201.159L135.513 201.076C144.88 199.368 151.088 190.392 149.381 181.025Z" fill="#E17460"/>
<path d="M133.781 190.262C133.68 190.262 133.578 190.231 133.491 190.164C133.281 190.003 133.24 189.705 133.399 189.494C134.084 188.589 136.015 187.091 138.423 187.892C138.674 187.977 138.809 188.248 138.726 188.5C138.642 188.751 138.373 188.887 138.119 188.803C135.773 188.019 134.227 189.989 134.163 190.073C134.069 190.197 133.926 190.262 133.781 190.262Z" fill="#E17460"/>
<path d="M113.24 155.904C114.079 156.007 115.013 155.631 115.938 155.321C116.863 154.988 117.799 154.677 118.622 154.435C119.447 154.193 120.404 153.947 121.361 153.726C122.307 153.487 123.301 153.295 123.94 152.759C124.56 152.252 124.596 151.31 123.448 150.501C122.359 149.706 119.972 149.195 117.241 149.99C114.516 150.798 112.819 152.51 112.364 153.759C111.871 155.05 112.436 155.815 113.24 155.904Z" fill="#33002B"/>
<path d="M141.871 150.117C141.308 150.533 140.48 150.643 139.686 150.795C138.883 150.933 138.08 151.089 137.387 151.25C136.692 151.411 135.902 151.623 135.12 151.855C134.34 152.068 133.543 152.334 132.863 152.207C132.209 152.092 131.8 151.427 132.299 150.376C132.762 149.358 134.277 148.017 136.574 147.478C138.871 146.951 140.794 147.495 141.631 148.212C142.512 148.943 142.416 149.726 141.871 150.117Z" fill="#33002B"/>
<path d="M97.2442 175.601C97.0926 175.601 96.9439 175.529 96.8498 175.395C96.6983 175.178 96.752 174.879 96.9698 174.728L99.1083 173.239L96.5131 169.613C96.3586 169.397 96.4085 169.098 96.6244 168.943C96.8412 168.789 97.1405 168.839 97.294 169.055L100.454 173.472L97.5166 175.515C97.4341 175.573 97.3391 175.601 97.2442 175.601Z" fill="#E17460"/>
<path d="M139.082 161.871C140.018 161.871 140.776 161.112 140.776 160.176C140.776 159.241 140.018 158.482 139.082 158.482C138.146 158.482 137.388 159.241 137.388 160.176C137.388 161.112 138.146 161.871 139.082 161.871Z" fill="#33002B"/>
<path d="M122.185 165.208C123.121 165.208 123.879 164.45 123.879 163.514C123.879 162.578 123.121 161.82 122.185 161.82C121.249 161.82 120.49 162.578 120.49 163.514C120.49 164.45 121.249 165.208 122.185 165.208Z" fill="#33002B"/>
<path d="M137.925 162.83C137.86 162.83 137.796 162.813 137.738 162.777C137.568 162.674 137.515 162.452 137.619 162.282C137.63 162.265 138.726 160.536 141.073 161.639C141.253 161.724 141.331 161.939 141.246 162.118C141.162 162.298 140.948 162.376 140.767 162.291C138.994 161.458 138.262 162.61 138.233 162.659C138.165 162.77 138.047 162.83 137.925 162.83Z" fill="#E17460"/>
<path d="M120.999 166.251C120.935 166.251 120.869 166.233 120.81 166.197C120.642 166.092 120.59 165.873 120.693 165.704C120.705 165.686 121.834 163.9 124.267 165.04C124.446 165.125 124.524 165.34 124.44 165.519C124.355 165.699 124.142 165.778 123.961 165.692C122.13 164.832 121.339 166.032 121.306 166.082C121.237 166.192 121.119 166.251 120.999 166.251Z" fill="#E17460"/>
<path d="M130.475 172.781C130.314 172.781 130.166 172.671 130.126 172.507C130.079 172.314 130.197 172.119 130.39 172.072L133.598 171.288C135.717 170.77 136.962 168.39 136.374 165.983L136.293 165.651C136.048 164.65 135.144 164.005 134.272 164.22C133.288 164.46 132.259 164.259 131.377 163.649C130.508 163.05 129.884 162.125 129.62 161.046L128.443 156.128C128.397 155.934 128.516 155.74 128.709 155.694C128.901 155.652 129.096 155.767 129.142 155.96L130.32 160.877C130.541 161.782 131.062 162.558 131.786 163.058C132.496 163.549 133.317 163.714 134.102 163.521C135.356 163.214 136.653 164.093 136.991 165.48L137.073 165.812C137.755 168.605 136.274 171.375 133.768 171.988L130.559 172.771C130.533 172.777 130.504 172.781 130.475 172.781Z" fill="#E17460"/>
<path d="M122.52 174.184C122.52 174.184 126.429 175.675 130.255 176.126C134.081 176.577 131.908 181.638 126.113 181.202C120.318 180.765 119.369 173.647 122.52 174.184Z" fill="white"/>
<path d="M143.312 205.103L147.978 215.652C148.528 216.896 148.337 218.332 147.48 219.409L137.214 232.285C136.515 233.715 134.833 233.89 133.9 232.628L124.032 221.514L139.684 203.587C140.934 202.139 143.06 203.025 143.312 205.103Z" fill="white"/>
<path d="M100.575 202.823L126.433 222.08L111.584 234.865C110.25 236.11 107.944 236.053 106.739 234.748L93.2304 220.102C92.248 219.037 91.986 217.492 92.5607 216.163L98.0964 203.373C98.4764 202.498 99.7658 202.212 100.575 202.823Z" fill="white"/>
<path d="M187.912 231.618L187.839 231.64L187.4 227.78L185.479 213.395C177.648 212.378 168.855 203.66 168.898 203.655L161.523 198.791C160.189 197.912 159.607 196.151 160.35 194.737C161.203 193.111 163.245 192.612 164.74 193.597C164.74 193.597 168.963 196.394 171.744 198.238C172.904 199.007 174.44 197.931 174.061 196.591C173.509 194.645 172.142 192.949 170.875 191.718C170.808 191.672 153.616 177.716 153.616 177.716C152.307 176.652 152.109 174.73 153.173 173.421C154.508 172.342 156.689 172.344 158.021 173.427L169.992 183.161C170.528 183.595 171.294 183.596 171.831 183.162L172.198 182.863C172.82 182.36 172.945 181.46 172.485 180.804L161.367 164.978C160.448 163.672 160.552 161.82 161.761 160.776C163.151 159.576 165.234 159.86 166.263 161.325L177.079 176.72C177.643 177.523 178.707 177.797 179.588 177.365C180.713 176.814 181.178 175.456 180.626 174.331L173.226 159.239C172.522 157.805 172.914 155.992 174.27 155.15C175.83 154.181 177.843 154.787 178.632 156.394L186.322 172.078C186.834 173.12 187.667 173.969 188.7 174.497C189.917 175.121 191.303 174.026 190.978 172.699L189.113 165.06C188.734 163.508 189.506 161.822 191.012 161.29C192.744 160.679 194.58 161.704 195.005 163.442L199.434 180.014C204.294 194.227 205.107 204.126 205.241 207.363L208.685 221.712L209.522 224.943L209.465 224.961L187.912 231.618Z" fill="#E8A396"/>
<path d="M183.459 201.193C183.133 201.193 182.815 201.026 182.635 200.725C179.653 195.735 173.756 196.662 173.508 196.703C172.983 196.789 172.491 196.44 172.402 195.919C172.313 195.397 172.662 194.902 173.183 194.813C173.485 194.76 180.615 193.605 184.283 199.743C184.554 200.198 184.406 200.787 183.952 201.058C183.797 201.148 183.627 201.193 183.459 201.193Z" fill="#E27F6D"/>
<path opacity="0.52" d="M181.002 224.096L171.068 220.125C169.08 222.061 168.139 224.943 168.795 227.806L188.329 313.053H199.459L181.002 224.096Z" fill="#5870D6"/>
<path d="M178.502 216.223C174.554 217.584 172.265 221.704 173.199 225.774L192.986 312.121C193.665 320.408 209.346 325.209 224.377 320.133C238.233 315.453 245.478 300.246 240.381 286.537L214.673 212.39C213.196 208.132 208.552 205.872 204.29 207.34L178.502 216.223Z" fill="#51BA65"/>
<path d="M169.56 301.127C175.233 301.127 179.832 296.529 179.832 290.856C179.832 285.183 175.233 280.585 169.56 280.585C163.888 280.585 159.289 285.183 159.289 290.856C159.289 296.529 163.888 301.127 169.56 301.127Z" fill="#C3D7FD"/>
<path d="M175.387 289.067L173.251 289.637C173.211 289.647 173.184 289.684 173.184 289.725V288.597C173.184 288.2 172.862 287.878 172.465 287.878H166.023C165.626 287.878 165.304 288.2 165.304 288.597V293.339C165.304 293.735 165.626 294.057 166.023 294.057H172.465C172.862 294.057 173.184 293.735 173.184 293.339V292.211C173.184 292.252 173.212 292.288 173.251 292.298L175.387 292.868C175.444 292.884 175.501 292.84 175.501 292.781V289.155C175.502 289.095 175.444 289.052 175.387 289.067Z" fill="white"/>
<path d="M134.472 301.127C140.145 301.127 144.743 296.529 144.743 290.856C144.743 285.183 140.145 280.585 134.472 280.585C128.799 280.585 124.201 285.183 124.201 290.856C124.201 296.529 128.799 301.127 134.472 301.127Z" fill="url(#paint3_linear)"/>
<path d="M140.749 291.412V290.731C140.749 288.227 138.712 286.189 136.208 286.189H133.126C130.254 286.189 127.917 288.527 127.917 291.398V291.649C127.675 291.897 127.521 292.217 127.521 292.57V292.875C127.521 292.892 127.526 292.907 127.526 292.923C127.492 292.994 127.474 293.071 127.474 293.153V294.041C127.474 294.369 127.774 294.638 128.141 294.638H131.832C132.198 294.638 132.498 294.369 132.498 294.041V293.199C132.526 293.094 132.545 292.987 132.545 292.875V292.57C132.545 292.053 132.226 291.605 131.758 291.362C131.778 290.622 132.381 290.027 133.125 290.027H136.207C136.595 290.027 136.911 290.343 136.911 290.731V291.549C136.604 291.806 136.409 292.167 136.409 292.569V292.875C136.409 292.891 136.414 292.906 136.414 292.923C136.38 292.994 136.362 293.07 136.362 293.152V294.04C136.362 294.368 136.662 294.637 137.029 294.637H140.72C141.086 294.637 141.386 294.368 141.386 294.04V293.198C141.414 293.093 141.432 292.986 141.432 292.875V292.569C141.434 292.09 141.162 291.666 140.749 291.412Z" fill="white"/>
<path d="M99.5855 301.127C105.258 301.127 109.857 296.529 109.857 290.856C109.857 285.183 105.258 280.585 99.5855 280.585C93.9128 280.585 89.3142 285.183 89.3142 290.856C89.3142 296.529 93.9128 301.127 99.5855 301.127Z" fill="#C3D7FD"/>
<path d="M99.5865 293.056C100.846 293.056 101.877 292.026 101.877 290.766V287.393C101.877 286.133 100.846 285.102 99.5865 285.102C98.3268 285.102 97.2964 286.132 97.2964 287.393V290.766C97.2954 292.026 98.3268 293.056 99.5865 293.056Z" fill="white"/>
<path d="M103.042 289.745C102.778 289.745 102.563 289.96 102.563 290.225V291.87C102.563 292.833 101.779 293.617 100.815 293.617H98.4621C97.4413 293.617 96.6095 292.786 96.6095 291.765V290.1C96.6095 289.835 96.3946 289.62 96.1298 289.62C95.8651 289.62 95.6501 289.835 95.6501 290.1V291.765C95.6501 293.315 96.9108 294.577 98.4621 294.577H99.1069V296.034C99.1069 296.049 99.1136 296.061 99.1155 296.076H98.3374C98.0726 296.076 97.8577 296.291 97.8577 296.556C97.8577 296.821 98.0726 297.036 98.3374 297.036H100.836C101.1 297.036 101.315 296.821 101.315 296.556C101.315 296.291 101.1 296.076 100.836 296.076H100.058C100.059 296.061 100.066 296.049 100.066 296.034V294.577H100.815C102.308 294.577 103.522 293.362 103.522 291.87V290.225C103.522 289.96 103.308 289.745 103.042 289.745Z" fill="white"/>
<path d="M505.775 348.133H248.99V187.632C248.99 183.014 252.732 179.271 257.351 179.271H497.414C502.032 179.271 505.775 183.015 505.775 187.632V348.133Z" fill="#43404A"/>
<path d="M377.998 186.553C376.912 186.553 376.028 185.67 376.028 184.584C376.028 183.498 376.912 182.614 377.998 182.614C379.084 182.614 379.968 183.498 379.968 184.584C379.968 185.67 379.084 186.553 377.998 186.553ZM377.998 183.573C377.441 183.573 376.988 184.027 376.988 184.584C376.988 185.14 377.441 185.594 377.998 185.594C378.554 185.594 379.008 185.14 379.008 184.584C379.008 184.027 378.554 183.573 377.998 183.573Z" fill="white"/>
<path d="M518.281 368.465H236.483C235.424 368.465 234.564 367.605 234.564 366.546V353.196C234.564 350.017 237.142 347.439 240.32 347.439H514.444C517.623 347.439 520.2 350.017 520.2 353.196V366.546C520.2 367.605 519.34 368.465 518.281 368.465Z" fill="#39374A"/>
<path d="M518.365 355.258H236.399C235.386 355.258 234.564 354.436 234.564 353.422V352.42C234.564 349.379 237.03 346.914 240.07 346.914H514.693C517.734 346.914 520.199 349.379 520.199 352.42V353.422C520.2 354.436 519.378 355.258 518.365 355.258Z" fill="#25202D"/>
<path d="M393.91 353.599H361.081C359.035 353.599 357.372 351.935 357.372 349.89V346.052C357.372 345.787 357.586 345.573 357.851 345.573C358.116 345.573 358.331 345.787 358.331 346.052V349.89C358.331 351.406 359.565 352.639 361.081 352.639H393.91C395.3 352.639 396.433 351.507 396.433 350.117V346.052C396.433 345.787 396.647 345.573 396.912 345.573C397.177 345.573 397.392 345.787 397.392 346.052V350.117C397.392 352.037 395.83 353.599 393.91 353.599Z" fill="white"/>
<path d="M491.549 189.619H264.546V341.322H491.549V189.619Z" fill="white"/>
<path opacity="0.81" d="M479.841 218.542H282.375V325.28H479.841V218.542Z" fill="#DFE0FC"/>
<path d="M491.549 189.593H264.546V203.932H491.549V189.593Z" fill="#51BA65"/>
<path d="M470.03 199.019C468.955 199.019 468.08 198.144 468.08 197.068C468.08 195.993 468.955 195.118 470.03 195.118C471.106 195.118 471.981 195.993 471.981 197.068C471.981 198.144 471.106 199.019 470.03 199.019ZM470.03 196.076C469.484 196.076 469.039 196.521 469.039 197.067C469.039 197.613 469.484 198.058 470.03 198.058C470.576 198.058 471.021 197.613 471.021 197.067C471.021 196.521 470.576 196.076 470.03 196.076Z" fill="white"/>
<path d="M477.16 199.019C476.085 199.019 475.21 198.144 475.21 197.068C475.21 195.993 476.085 195.118 477.16 195.118C478.236 195.118 479.111 195.993 479.111 197.068C479.111 198.144 478.236 199.019 477.16 199.019ZM477.16 196.076C476.615 196.076 476.169 196.521 476.169 197.067C476.169 197.613 476.615 198.058 477.16 198.058C477.706 198.058 478.152 197.613 478.152 197.067C478.152 196.521 477.707 196.076 477.16 196.076Z" fill="white"/>
<path d="M483.652 199.019C482.576 199.019 481.701 198.144 481.701 197.068C481.701 195.993 482.576 195.118 483.652 195.118C484.727 195.118 485.602 195.993 485.602 197.068C485.602 198.144 484.727 199.019 483.652 199.019ZM483.652 196.076C483.106 196.076 482.661 196.521 482.661 197.067C482.661 197.613 483.106 198.058 483.652 198.058C484.198 198.058 484.643 197.613 484.643 197.067C484.643 196.521 484.198 196.076 483.652 196.076Z" fill="white"/>
<path d="M277.205 251.766C277.672 251.921 278.124 252.173 278.558 252.421C278.334 252.293 278.096 252.187 277.865 252.074C275.311 250.836 281.142 253.688 283.737 254.823C284.636 255.216 285.515 255.659 286.408 256.071C287.337 256.499 288.386 256.836 289.269 257.35C291.003 258.358 289.909 259.85 288.799 260.679C287.38 261.738 285.455 261.997 283.68 261.814C282.138 261.654 280.6 261.12 279.065 260.843C277.437 260.549 275.807 260.179 274.262 259.537C273.638 259.277 273.012 258.959 272.55 258.46C270.972 256.757 272.765 254.158 273.954 252.92C274.574 252.273 275.33 251.659 276.246 251.619C276.572 251.602 276.891 251.663 277.205 251.766Z" fill="#E8A396"/>
<path d="M281.304 245.331C281.737 245.475 282.158 245.709 282.56 245.938C282.351 245.82 282.132 245.72 281.917 245.617C279.546 244.467 284.957 247.113 287.365 248.167C288.199 248.531 289.014 248.942 289.843 249.324C290.705 249.722 291.679 250.034 292.499 250.511C294.108 251.446 293.092 252.831 292.062 253.6C290.745 254.581 288.96 254.822 287.313 254.652C285.882 254.505 284.455 254.01 283.032 253.752C281.521 253.48 280.009 253.136 278.575 252.539C277.995 252.297 277.415 252.004 276.986 251.541C275.521 249.961 277.185 247.549 278.288 246.4C278.864 245.801 279.564 245.229 280.413 245.193C280.717 245.179 281.013 245.236 281.304 245.331Z" fill="#E8A396"/>
<path d="M275.479 258.573C275.923 258.708 276.35 258.936 276.758 259.16C276.548 259.044 276.322 258.949 276.104 258.849C273.69 257.735 279.201 260.3 281.659 261.311C282.51 261.662 283.339 262.061 284.185 262.43C285.063 262.813 286.06 263.104 286.893 263.572C288.526 264.489 287.423 265.974 286.326 266.816C284.925 267.89 283.065 268.207 281.364 268.09C279.886 267.988 278.425 267.524 276.958 267.308C275.402 267.077 273.848 266.774 272.384 266.204C271.791 265.973 271.201 265.688 270.773 265.22C269.314 263.623 271.127 261.043 272.314 259.801C272.933 259.154 273.68 258.532 274.562 258.462C274.876 258.435 275.182 258.483 275.479 258.573Z" fill="#E8A396"/>
<path d="M322.625 315.914L315.785 277.562L312.829 267.671C312.829 267.671 311.542 261.574 306.968 256.234L305.885 255.377L306.285 255.501L280.736 229.377C279.981 228.622 278.706 228.833 278.236 229.792L277.475 231.346C276.797 232.725 276.957 234.369 277.889 235.592L288.923 250.092C286.851 250.892 284.433 250.993 282.331 251.448C280.608 251.82 278.86 252.525 277.778 253.917C276.922 255.017 276.577 256.425 276.374 257.805C275.821 261.57 274.784 263.09 274.651 266.874C274.533 270.23 286.457 278.576 286.457 278.576L288.857 294.336L296.518 351.252C296.578 351.703 296.648 352.149 296.728 352.592C300.588 374.185 326.809 383.145 343.634 369.067L322.625 315.914Z" fill="#E8A396"/>
<path opacity="0.32" d="M294.613 264.384C294.219 262.062 294.894 259.792 296.292 258.089C294.494 253.598 291.231 249.645 291.231 249.645C277.947 241.963 273.101 262.565 273.101 262.565C273.101 262.565 272.651 273.143 289.484 270.521C292.517 270.049 294.501 269.063 295.738 267.775C295.145 266.787 294.74 265.652 294.613 264.384Z" fill="#E38371"/>
<path d="M461.916 246.202C459.718 245.062 457.382 244.183 454.971 243.615C451.747 242.855 448.75 242.939 446.669 239.877C445.527 238.196 445.23 236.102 444.894 234.099C443.225 224.122 439.117 215.258 431.003 208.909C406.254 189.543 368.887 188.082 354.566 232.683C352.809 238.153 343.715 245.372 339.906 250.111C338.809 251.478 337.626 253.012 336.391 254.709C330.907 261.16 327.619 269.04 327.537 277.597C327.415 290.193 334.206 301.481 344.916 308.902C358.019 317.982 370.787 327.492 381.7 338.445C390.83 347.607 404.722 353.28 420.194 352.689C442.502 351.836 461.312 337.409 464.638 318.764C465.17 315.788 465.338 312.696 465.005 309.686C464.711 307.035 463.501 304.391 464.035 301.684C464.693 298.351 467.615 296.047 469.972 293.601C477.837 285.43 480.423 272.587 476.332 262.009C473.995 255.97 469.546 250.845 464.069 247.431C463.368 246.993 462.65 246.584 461.916 246.202Z" fill="#33002B"/>
<path d="M457.039 319.435C447.361 308.411 442.734 302.932 428.306 302.591L428.305 302.589H428.213C428.069 302.585 427.93 302.579 427.783 302.577L427.779 302.589L360.359 302.577C360.358 302.577 360.357 302.577 360.356 302.577H359.997L359.998 302.583C359.97 302.583 359.94 302.584 359.912 302.584C337.131 302.98 318.05 319.467 313.8 341.495H475.936L457.039 319.435Z" fill="#51BA65"/>
<path d="M431.177 249.761L429.372 249.57C429.005 250.031 428.786 250.282 428.786 250.282C428.782 250.021 428.766 249.761 428.741 249.503L428.655 249.494L428.696 249.156C427.602 240.754 415.942 233.981 413.667 227.462C412.882 225.215 412.643 223.074 412.729 221.107C406.576 233.948 392.494 241.322 379.019 237.953L372.762 236.388L371.904 243.484L370.64 243.35C365.586 242.814 361.056 246.477 360.52 251.53L360.46 252.089C359.925 257.142 363.588 261.672 368.641 262.208L369.627 262.312L369.093 266.727C367.854 276.984 372.221 286.626 379.785 292.584L380.147 308.896C380.365 318.676 388.545 326.501 398.325 326.283C408.106 326.065 415.931 317.885 415.713 308.105L415.363 292.323C420.926 287.823 424.817 281.24 425.744 273.574L426.378 268.323L429.178 268.62C434.232 269.156 438.762 265.492 439.298 260.439L439.358 259.881C439.894 254.828 436.23 250.298 431.177 249.761Z" fill="#E8A396"/>
<path opacity="0.46" d="M394.671 292.892C379.027 291.001 367.879 276.788 369.77 261.144L369.095 266.727C367.596 279.126 374.294 290.619 384.923 295.799C386.392 300.588 390.47 304.373 395.754 305.186C402.631 306.244 409.09 301.905 410.833 295.327C418.768 291.09 424.583 283.183 425.745 273.574L426.619 266.339L426.42 267.99C424.529 283.634 410.315 294.783 394.671 292.892Z" fill="#E38371"/>
<path d="M430.982 262.198C430.853 262.198 430.723 262.145 430.629 262.044L428.252 259.459L432.171 255.83C432.367 255.65 432.669 255.662 432.849 255.856C433.03 256.051 433.017 256.355 432.823 256.535L429.605 259.513L431.336 261.393C431.516 261.588 431.503 261.892 431.308 262.071C431.214 262.156 431.098 262.198 430.982 262.198Z" fill="#E27F6D"/>
<path d="M367.858 254.839C367.709 254.839 367.56 254.769 367.467 254.637C367.314 254.42 367.365 254.122 367.581 253.968L369.667 252.492L367.145 248.906C366.993 248.689 367.045 248.39 367.261 248.238C367.478 248.086 367.777 248.138 367.929 248.354L371 252.723L368.136 254.752C368.051 254.811 367.954 254.839 367.858 254.839Z" fill="#E27F6D"/>
<path opacity="0.57" d="M398.322 283.104C398.186 283.104 398.052 283.047 397.957 282.936C397.875 282.84 395.939 280.627 393.232 281.693C392.99 281.793 392.707 281.671 392.611 281.422C392.513 281.176 392.634 280.897 392.881 280.802C396.234 279.476 398.664 282.289 398.689 282.315C398.859 282.518 398.834 282.819 398.632 282.991C398.542 283.067 398.432 283.104 398.322 283.104Z" fill="#E27F6D"/>
<path d="M414.106 249.994C413.29 250.067 412.398 249.667 411.514 249.333C410.63 248.975 409.734 248.638 408.944 248.374C408.154 248.109 407.236 247.835 406.316 247.588C405.408 247.323 404.451 247.1 403.852 246.552C403.27 246.032 403.269 245.104 404.41 244.345C405.494 243.598 407.826 243.171 410.443 244.043C413.054 244.928 414.636 246.667 415.032 247.911C415.464 249.196 414.889 249.932 414.106 249.994Z" fill="#33002B"/>
<path d="M378.726 245.68C379.455 246.056 380.431 246.023 381.377 246.046C382.33 246.048 383.285 246.074 384.115 246.128C384.947 246.181 385.9 246.274 386.845 246.392C387.787 246.488 388.756 246.644 389.515 246.362C390.249 246.101 390.597 245.241 389.821 244.106C389.095 243.004 387.093 241.728 384.341 241.547C381.592 241.38 379.476 242.395 378.645 243.399C377.765 244.429 378.023 245.327 378.726 245.68Z" fill="#33002B"/>
<path d="M405.479 256.815C406.623 256.815 407.551 255.887 407.551 254.743C407.551 253.599 406.623 252.672 405.479 252.672C404.335 252.672 403.408 253.599 403.408 254.743C403.408 255.887 404.335 256.815 405.479 256.815Z" fill="#33002B"/>
<path d="M407.123 257.857C407.015 257.857 406.905 257.82 406.816 257.745C406.762 257.701 405.473 256.666 403.492 257.422C403.245 257.517 402.967 257.394 402.872 257.146C402.777 256.898 402.901 256.621 403.148 256.526C405.678 255.561 407.362 256.951 407.432 257.011C407.634 257.181 407.66 257.484 407.489 257.686C407.395 257.798 407.259 257.857 407.123 257.857Z" fill="#E27F6D"/>
<path d="M383.04 254.439C384.184 254.439 385.112 253.511 385.112 252.367C385.112 251.222 384.184 250.295 383.04 250.295C381.895 250.295 380.968 251.222 380.968 252.367C380.968 253.511 381.895 254.439 383.04 254.439Z" fill="#33002B"/>
<path d="M384.862 255.546C384.754 255.546 384.643 255.51 384.555 255.435C384.491 255.38 383.057 254.236 380.864 255.073C380.618 255.169 380.339 255.045 380.244 254.797C380.149 254.549 380.273 254.272 380.521 254.177C383.266 253.129 385.095 254.636 385.171 254.7C385.373 254.871 385.399 255.173 385.228 255.376C385.133 255.488 384.998 255.546 384.862 255.546Z" fill="#E27F6D"/>
<path d="M406.044 265.823C406.044 265.823 400.977 268.176 395.866 268.763C390.756 269.351 394.451 278.059 402.23 277.59C410.009 277.12 410.229 265.059 406.044 265.823Z" fill="white"/>
<path d="M397.032 263.779C397.019 263.779 397.008 263.779 396.995 263.778L392.928 263.476C391.779 263.39 390.741 262.855 390.005 261.97C389.268 261.084 388.933 259.966 389.058 258.822L389.17 257.802C389.337 256.284 390.564 255.133 392.089 255.065L392.837 255.031L393.755 248.456C393.792 248.194 394.04 248.019 394.296 248.048C394.558 248.084 394.741 248.327 394.704 248.589L393.677 255.952L392.132 256.021C391.083 256.069 390.237 256.861 390.123 257.906L390.012 258.925C389.915 259.809 390.175 260.672 390.743 261.355C391.312 262.039 392.113 262.452 393 262.517L397.067 262.82C397.331 262.84 397.53 263.07 397.511 263.334C397.49 263.586 397.28 263.779 397.032 263.779Z" fill="#E27F6D"/>
<path d="M413.657 333.3C419.33 333.3 423.928 328.701 423.928 323.029C423.928 317.356 419.33 312.757 413.657 312.757C407.984 312.757 403.385 317.356 403.385 323.029C403.385 328.701 407.984 333.3 413.657 333.3Z" fill="#C3D7FD"/>
<path d="M419.483 321.239L417.347 321.808C417.307 321.819 417.279 321.855 417.279 321.897V320.768C417.279 320.371 416.958 320.05 416.562 320.05H410.119C409.722 320.05 409.401 320.371 409.401 320.768V325.511C409.401 325.907 409.722 326.229 410.119 326.229H416.562C416.958 326.229 417.279 325.907 417.279 325.511V324.382C417.279 324.424 417.307 324.459 417.347 324.471L419.483 325.04C419.541 325.056 419.597 325.012 419.597 324.952V321.327C419.597 321.267 419.541 321.224 419.483 321.239Z" fill="white"/>
<path d="M378.568 333.3C384.24 333.3 388.839 328.701 388.839 323.029C388.839 317.356 384.24 312.757 378.568 312.757C372.895 312.757 368.296 317.356 368.296 323.029C368.296 328.701 372.895 333.3 378.568 333.3Z" fill="url(#paint4_linear)"/>
<path d="M384.846 323.585V322.904C384.846 320.4 382.807 318.362 380.304 318.362H377.222C374.351 318.362 372.014 320.699 372.014 323.571V323.822C371.77 324.07 371.618 324.39 371.618 324.743V325.048C371.618 325.064 371.623 325.08 371.624 325.096C371.59 325.167 371.571 325.244 371.571 325.325V326.214C371.571 326.543 371.871 326.811 372.238 326.811H375.929C376.296 326.811 376.595 326.543 376.595 326.214V325.371C376.623 325.268 376.642 325.159 376.642 325.048V324.743C376.642 324.227 376.323 323.778 375.855 323.534C375.875 322.795 376.478 322.2 377.222 322.2H380.304C380.692 322.2 381.008 322.515 381.008 322.904V323.721C380.701 323.978 380.507 324.34 380.507 324.742V325.047C380.507 325.063 380.511 325.079 380.512 325.095C380.479 325.166 380.46 325.243 380.46 325.324V326.213C380.46 326.542 380.76 326.81 381.126 326.81H384.818C385.185 326.81 385.485 326.542 385.485 326.213V325.37C385.512 325.267 385.531 325.158 385.531 325.047V324.742C385.531 324.262 385.258 323.838 384.846 323.585Z" fill="white"/>
<path d="M343.682 333.3C349.355 333.3 353.953 328.701 353.953 323.029C353.953 317.356 349.355 312.757 343.682 312.757C338.009 312.757 333.411 317.356 333.411 323.029C333.411 328.701 338.009 333.3 343.682 333.3Z" fill="#C3D7FD"/>
<path d="M343.682 325.229C344.942 325.229 345.972 324.197 345.972 322.938V319.564C345.972 318.305 344.942 317.274 343.682 317.274C342.422 317.274 341.391 318.305 341.391 319.564V322.938C341.392 324.197 342.422 325.229 343.682 325.229Z" fill="white"/>
<path d="M347.139 321.917C346.873 321.917 346.659 322.132 346.659 322.396V324.042C346.659 325.005 345.875 325.789 344.911 325.789H342.559C341.537 325.789 340.706 324.958 340.706 323.936V322.272C340.706 322.007 340.491 321.792 340.227 321.792C339.962 321.792 339.747 322.007 339.747 322.272V323.936C339.747 325.487 341.007 326.748 342.559 326.748H343.204V328.206C343.204 328.221 343.21 328.233 343.212 328.248H342.434C342.168 328.248 341.954 328.463 341.954 328.727C341.954 328.992 342.168 329.207 342.434 329.207H344.932C345.197 329.207 345.412 328.992 345.412 328.727C345.412 328.463 345.197 328.248 344.932 328.248H344.153C344.155 328.233 344.163 328.221 344.163 328.206V326.748H344.911C346.405 326.748 347.619 325.534 347.619 324.042V322.396C347.619 322.132 347.404 321.917 347.139 321.917Z" fill="white"/>
<path d="M12.7902 277.213L93.3682 277.088C95.4242 277.084 97.0888 275.802 97.0868 274.223L97.012 226.131L97.0034 220.719C97.0015 219.14 95.3321 217.862 93.2761 217.865L12.6981 217.99C10.6421 217.994 8.97662 219.277 8.9795 220.855L9.062 274.358C9.06488 275.939 10.7342 277.216 12.7902 277.213Z" fill="white"/>
<path d="M97.0168 229.13L97.0034 220.718C97.0015 219.139 95.3321 217.861 93.2761 217.864L12.6981 217.989C10.6421 217.993 8.97662 219.276 8.9795 220.854L8.99197 228.898" fill="url(#paint5_linear)"/>
<path d="M89.4249 225.042C89.0958 224.713 88.9136 224.276 88.9126 223.811C88.9107 222.85 89.6916 222.067 90.652 222.065C90.652 222.065 90.6539 222.065 90.6549 222.065C91.6143 222.065 92.3952 222.845 92.3981 223.806C92.3981 224.766 91.6181 225.549 90.6577 225.55C90.6568 225.55 90.6558 225.55 90.6539 225.55C90.1895 225.55 89.754 225.371 89.4249 225.042ZM90.6539 222.782C90.0888 222.784 89.6302 223.244 89.6312 223.809C89.6312 224.082 89.7386 224.34 89.9324 224.533C90.1262 224.726 90.3824 224.832 90.6558 224.832C90.6558 224.832 90.6558 224.832 90.6568 224.832C91.2219 224.831 91.6814 224.372 91.6805 223.807C91.6805 223.242 91.2199 222.783 90.6558 222.783C90.6539 222.782 90.6539 222.782 90.6539 222.782Z" fill="white"/>
<path d="M83.7202 223.818C83.7202 222.857 84.5002 222.075 85.4596 222.073C85.4596 222.073 85.4615 222.073 85.4625 222.073C86.4219 222.073 87.2038 222.853 87.2057 223.813C87.2067 224.774 86.4257 225.556 85.4663 225.558C85.4654 225.558 85.4644 225.558 85.4634 225.558C84.5031 225.559 83.7221 224.778 83.7202 223.818ZM85.4615 222.791C84.8974 222.792 84.4388 223.252 84.4388 223.816C84.4398 224.382 84.8993 224.839 85.4634 224.839H85.4644C86.0285 224.839 86.4881 224.379 86.4871 223.814C86.4871 223.249 86.0266 222.791 85.4625 222.791C85.4615 222.791 85.4615 222.791 85.4615 222.791Z" fill="white"/>
<path d="M78.6272 223.826L78.986 223.825L78.6272 223.826C78.6262 223.361 78.8066 222.923 79.1357 222.593C79.4648 222.262 79.8955 222.088 80.3704 222.081C81.3298 222.081 82.1108 222.861 82.1127 223.821C82.1127 224.782 81.3327 225.564 80.3723 225.565C80.3723 225.565 80.3704 225.565 80.3695 225.565C79.4101 225.566 78.6291 224.786 78.6272 223.826ZM80.3685 222.799C80.0941 222.799 79.837 222.906 79.6442 223.1C79.4513 223.294 79.3448 223.552 79.3458 223.825C79.3458 224.389 79.8063 224.848 80.3695 224.848C80.3704 224.848 80.3704 224.848 80.3714 224.848C80.9365 224.847 81.3951 224.386 81.3951 223.822C81.3941 223.257 80.9336 222.799 80.3685 222.799C80.3695 222.799 80.3685 222.799 80.3685 222.799Z" fill="white"/>
<path opacity="0.63" d="M85.5674 239.673H85.5665L21.2378 239.595C20.8761 239.595 20.5845 239.363 20.5845 239.077C20.5845 238.793 20.879 238.562 21.2388 238.562H21.2397L85.5684 238.641C85.9301 238.642 86.2217 238.873 86.2217 239.158C86.2217 239.443 85.9282 239.673 85.5674 239.673Z" fill="#373449"/>
<path opacity="0.63" d="M53.3572 261.944H53.3563L21.1934 261.904C20.8317 261.903 20.54 261.672 20.54 261.387C20.54 261.102 20.8336 260.872 21.1943 260.872H21.1953L53.3572 260.911C53.7189 260.911 54.0106 261.143 54.0106 261.429C54.0115 261.713 53.718 261.944 53.3572 261.944Z" fill="#373449"/>
<path opacity="0.63" d="M39.9117 246.317H39.9107L21.2159 246.288C20.8542 246.287 20.5615 246.056 20.5625 245.77C20.5635 245.485 20.857 245.256 21.2168 245.256H21.2178L39.9126 245.285C40.2743 245.285 40.5669 245.516 40.566 245.802C40.565 246.086 40.2724 246.317 39.9117 246.317Z" fill="#373449"/>
<path opacity="0.63" d="M85.5433 246.365L44.4158 246.336C44.0541 246.335 43.7615 246.105 43.7615 245.819C43.7615 245.534 44.0541 245.304 44.4158 245.304L85.5433 245.333C85.905 245.333 86.1976 245.564 86.1976 245.849C86.1976 246.134 85.905 246.365 85.5433 246.365Z" fill="#373449"/>
<path opacity="0.63" d="M57.5794 254.233L21.2144 254.203C20.8546 254.203 20.561 253.972 20.561 253.687C20.561 253.402 20.8537 253.171 21.2154 253.171C21.2154 253.171 21.2154 253.171 21.2163 253.171L57.5804 253.2C57.9411 253.201 58.2338 253.432 58.2338 253.717C58.2338 254.002 57.9421 254.233 57.5794 254.233Z" fill="#373449"/>
<path opacity="0.63" d="M85.543 254.282H85.5421L61.5274 254.253C61.1657 254.252 60.874 254.021 60.874 253.735C60.874 253.45 61.1686 253.22 61.5283 253.22H61.5293L85.544 253.25C85.9057 253.25 86.1974 253.481 86.1974 253.767C86.1974 254.052 85.9028 254.282 85.543 254.282Z" fill="#373449"/>
<path d="M20.4016 194.258C28.4231 193.989 35.2713 199.566 36.8812 207.154L40.5912 206.397C38.3749 195.546 27.7832 188.547 16.9324 190.762L17.7133 194.589C18.5873 194.414 19.4805 194.289 20.4016 194.258Z" fill="url(#paint6_linear)"/>
<path d="M20.9163 230.465C22.2489 230.466 23.6007 230.332 24.9572 230.055C23.6007 230.332 22.2479 230.466 20.9163 230.465Z" fill="white"/>
<path d="M4.65517 211.099C4.38366 203.02 10.0441 196.136 17.7135 194.589L16.9326 190.762C6.08179 192.978 -0.917979 203.571 1.29823 214.421L4.96697 213.673C4.80291 212.834 4.68491 211.979 4.65517 211.099Z" fill="#51BA65"/>
<path d="M24.9569 230.055C35.8077 227.839 42.8065 217.247 40.5912 206.397L36.8812 207.154C37.0779 208.078 37.2103 209.026 37.2429 210.004C37.5461 219.003 30.4964 226.543 21.4973 226.846C13.3788 227.119 6.46637 221.401 4.96683 213.674L1.2981 214.422C2.95977 222.56 9.33402 228.532 16.9939 230.074C18.2708 230.332 19.5833 230.465 20.9159 230.465C22.2475 230.466 23.6003 230.333 24.9569 230.055Z" fill="#C3D7FD"/>
<path d="M80.3817 210.818H29.8157C28.2326 210.818 26.949 209.535 26.949 207.952V163.613C26.949 162.03 28.2326 160.746 29.8157 160.746H80.3808C81.9638 160.746 83.2474 162.03 83.2474 163.613V207.952C83.2484 209.535 81.9647 210.818 80.3817 210.818Z" fill="white"/>
<path d="M80.3817 210.818H29.8157C28.2326 210.818 26.949 209.535 26.949 207.952V163.613C26.949 162.03 28.2326 160.746 29.8157 160.746H80.3808C81.9638 160.746 83.2474 162.03 83.2474 163.613V207.952C83.2484 209.535 81.9647 210.818 80.3817 210.818Z" fill="#CBEAD1"/>
<path opacity="0.83" d="M55.0992 182.979C59.7773 182.979 63.5697 179.186 63.5697 174.508C63.5697 169.83 59.7773 166.037 55.0992 166.037C50.421 166.037 46.6287 169.83 46.6287 174.508C46.6287 179.186 50.421 182.979 55.0992 182.979Z" fill="white"/>
<path d="M55.0855 174.958C56.2745 174.958 57.2384 173.994 57.2384 172.805C57.2384 171.616 56.2745 170.652 55.0855 170.652C53.8965 170.652 52.9326 171.616 52.9326 172.805C52.9326 173.994 53.8965 174.958 55.0855 174.958Z" fill="url(#paint7_linear)"/>
<path d="M58.0021 178.978H52.17C51.719 178.978 51.3535 178.612 51.3535 178.161C51.3535 176.489 52.7091 175.134 54.3814 175.134H56.1707C57.6328 175.134 58.8176 176.318 58.8176 177.781V178.161C58.8176 178.612 58.4531 178.978 58.0021 178.978Z" fill="url(#paint8_linear)"/>
<path opacity="0.5" d="M69.0542 193.107H41.1424C39.7647 193.107 38.6489 191.99 38.6489 190.612V189.661C38.6489 188.284 39.7657 187.167 41.1424 187.167H69.0542C70.4309 187.167 71.5477 188.284 71.5477 189.661V190.612C71.5477 191.99 70.4309 193.107 69.0542 193.107Z" fill="white"/>
<path opacity="0.5" d="M69.0542 202.758H41.1424C39.7647 202.758 38.6489 201.643 38.6489 200.265V199.313C38.6489 197.936 39.7657 196.82 41.1424 196.82H69.0542C70.4309 196.82 71.5477 197.936 71.5477 199.313V200.265C71.5477 201.643 70.4309 202.758 69.0542 202.758Z" fill="white"/>
<path d="M75.653 168.129C75.5302 168.129 75.4074 168.082 75.3134 167.989C75.1263 167.802 75.1263 167.498 75.3134 167.311L78.537 164.087C78.7241 163.9 79.0282 163.9 79.2153 164.087C79.4024 164.274 79.4024 164.578 79.2153 164.765L75.9917 167.989C75.8986 168.083 75.7758 168.129 75.653 168.129Z" fill="white"/>
<path d="M78.8766 168.129C78.7538 168.129 78.631 168.082 78.537 167.989L75.3134 164.765C75.1263 164.578 75.1263 164.274 75.3134 164.087C75.5005 163.9 75.8046 163.9 75.9917 164.087L79.2153 167.311C79.4024 167.498 79.4024 167.802 79.2153 167.989C79.1222 168.083 78.9994 168.129 78.8766 168.129Z" fill="white"/>
<path d="M231.066 67.5397H225.868V104.506H231.066V67.5397Z" fill="#9285ED"/>
<path d="M240.979 57.5284H235.781V104.506H240.979V57.5284Z" fill="white"/>
<path d="M261.583 57.5284H256.385V104.506H261.583V57.5284Z" fill="white"/>
<path opacity="0.46" d="M271.209 50.4039H266.01V104.506H271.209V50.4039Z" fill="white"/>
<path d="M271.209 69.1765H266.01V104.506H271.209V69.1765Z" fill="#9285ED"/>
<path d="M251.57 71.3907H246.372V104.506H251.57V71.3907Z" fill="#9285ED"/>
<path d="M169.213 92.3718H300.301C300.868 92.3718 301.328 92.8314 301.328 93.3993V149.493C301.328 150.06 300.868 150.519 300.301 150.519H169.213C168.646 150.519 168.186 150.06 168.186 149.493V93.3993C168.186 92.8323 168.646 92.3718 169.213 92.3718Z" fill="white"/>
<path opacity="0.43" d="M169.213 92.3718H300.301C300.868 92.3718 301.328 92.8314 301.328 93.3993V149.493C301.328 150.06 300.868 150.519 300.301 150.519H169.213C168.646 150.519 168.186 150.06 168.186 149.493V93.3993C168.186 92.8323 168.646 92.3718 169.213 92.3718Z" fill="#51BA65"/>
<path d="M186.055 116.511C190.059 116.511 193.306 113.265 193.306 109.261C193.306 105.257 190.059 102.011 186.055 102.011C182.051 102.011 178.805 105.257 178.805 109.261C178.805 113.265 182.051 116.511 186.055 116.511Z" fill="#51BA65"/>
<path d="M185.144 111.312L182.968 109.499C182.765 109.329 182.737 109.027 182.907 108.823C183.076 108.619 183.378 108.591 183.583 108.761L185.084 110.012L188.493 106.587C188.68 106.401 188.984 106.399 189.172 106.586C189.36 106.773 189.361 107.077 189.173 107.266L185.144 111.312Z" fill="white"/>
<path d="M186.055 141.987C190.059 141.987 193.306 138.741 193.306 134.737C193.306 130.733 190.059 127.487 186.055 127.487C182.051 127.487 178.805 130.733 178.805 134.737C178.805 138.741 182.051 141.987 186.055 141.987Z" fill="#51BA65"/>
<path d="M185.144 136.788L182.968 134.975C182.765 134.805 182.737 134.503 182.907 134.299C183.076 134.095 183.378 134.068 183.583 134.237L185.084 135.488L188.493 132.063C188.68 131.877 188.984 131.875 189.172 132.062C189.36 132.249 189.361 132.553 189.173 132.741L185.144 136.788Z" fill="white"/>
<path d="M246.987 104.98H224.673C224.408 104.98 224.193 104.765 224.193 104.501C224.193 104.236 224.408 104.021 224.673 104.021H246.987C247.252 104.021 247.466 104.236 247.466 104.501C247.466 104.765 247.253 104.98 246.987 104.98Z" fill="white"/>
<path d="M219.641 104.98H196.382C196.117 104.98 195.902 104.765 195.902 104.501C195.902 104.236 196.117 104.021 196.382 104.021H219.641C219.905 104.021 220.12 104.236 220.12 104.501C220.12 104.765 219.905 104.98 219.641 104.98Z" fill="white"/>
<path d="M246.987 110.18H233.339C233.074 110.18 232.859 109.965 232.859 109.701C232.859 109.436 233.074 109.221 233.339 109.221H246.987C247.252 109.221 247.467 109.436 247.467 109.701C247.467 109.965 247.253 110.18 246.987 110.18Z" fill="white"/>
<path d="M226.546 110.18H196.383C196.118 110.18 195.903 109.965 195.903 109.701C195.903 109.436 196.118 109.221 196.383 109.221H226.546C226.811 109.221 227.026 109.436 227.026 109.701C227.026 109.965 226.811 110.18 226.546 110.18Z" fill="white"/>
<path d="M217.547 115.38H195.869C195.604 115.38 195.389 115.165 195.389 114.9C195.389 114.636 195.604 114.421 195.869 114.421H217.547C217.812 114.421 218.026 114.636 218.026 114.9C218.026 115.165 217.812 115.38 217.547 115.38Z" fill="white"/>
<path d="M246.987 131.418H196.382C196.117 131.418 195.902 131.203 195.902 130.939C195.902 130.674 196.117 130.459 196.382 130.459H246.987C247.252 130.459 247.467 130.674 247.467 130.939C247.467 131.203 247.253 131.418 246.987 131.418Z" fill="white"/>
<path d="M246.987 136.618H196.382C196.117 136.618 195.902 136.403 195.902 136.139C195.902 135.874 196.117 135.659 196.382 135.659H246.987C247.252 135.659 247.467 135.874 247.467 136.139C247.467 136.403 247.253 136.618 246.987 136.618Z" fill="white"/>
<path d="M217.547 141.818H195.869C195.604 141.818 195.389 141.603 195.389 141.339C195.389 141.074 195.604 140.859 195.869 140.859H217.547C217.812 140.859 218.026 141.074 218.026 141.339C218.026 141.603 217.812 141.818 217.547 141.818Z" fill="white"/>
<path d="M195.788 21.9165H176.524C175.994 21.9165 175.564 21.4867 175.564 20.9571C175.564 20.4275 175.994 19.9977 176.524 19.9977H195.788C196.318 19.9977 196.748 20.4275 196.748 20.9571C196.748 21.4867 196.318 21.9165 195.788 21.9165Z" fill="white"/>
<path d="M208.37 28.027H177.205C176.675 28.027 176.245 27.5971 176.245 27.0676C176.245 26.538 176.675 26.1082 177.205 26.1082H208.37C208.899 26.1082 209.329 26.538 209.329 27.0676C209.329 27.5971 208.899 28.027 208.37 28.027Z" fill="white"/>
<path d="M166.416 7.55908H247.731C252.052 7.55908 255.556 10.6349 255.556 14.4284V41.3357V52.0646C255.556 53.2082 253.97 53.7695 253.066 52.9463L245.306 45.8736C244.615 45.2443 243.662 44.8883 242.667 44.8883L166.417 44.8106C162.683 44.8106 159.657 42.1531 159.657 38.8758V13.4939C159.657 10.2166 162.683 7.55908 166.416 7.55908Z" fill="#51BA65"/>
<path d="M234.851 21.9165H200.209C199.68 21.9165 199.25 21.4867 199.25 20.9571C199.25 20.4275 199.68 19.9977 200.209 19.9977H234.851C235.381 19.9977 235.811 20.4275 235.811 20.9571C235.811 21.4867 235.382 21.9165 234.851 21.9165Z" fill="white"/>
<path d="M208.883 28.0067H174.241C173.712 28.0067 173.282 27.5769 173.282 27.0473C173.282 26.5177 173.712 26.0879 174.241 26.0879H208.883C209.413 26.0879 209.843 26.5177 209.843 27.0473C209.843 27.5769 209.413 28.0067 208.883 28.0067Z" fill="white"/>
<path d="M234.851 28.027H214.158C213.628 28.027 213.198 27.5971 213.198 27.0676C213.198 26.538 213.628 26.1082 214.158 26.1082H234.851C235.381 26.1082 235.811 26.538 235.811 27.0676C235.811 27.5971 235.382 28.027 234.851 28.027Z" fill="white"/>
<path d="M195.75 21.9366H175.056C174.527 21.9366 174.097 21.5068 174.097 20.9772C174.097 20.4476 174.527 20.0178 175.056 20.0178H195.75C196.279 20.0178 196.709 20.4476 196.709 20.9772C196.709 21.5068 196.279 21.9366 195.75 21.9366Z" fill="white"/>
<path d="M234.851 34.1383H201.889C201.359 34.1383 200.93 33.7085 200.93 33.1789C200.93 32.6493 201.359 32.2195 201.889 32.2195H234.851C235.381 32.2195 235.811 32.6493 235.811 33.1789C235.811 33.7085 235.382 34.1383 234.851 34.1383Z" fill="white"/>
<path d="M260.951 138.161H313.367C314.125 138.161 314.74 137.546 314.74 136.788V102.622C314.74 101.864 314.125 101.249 313.367 101.249H260.951C260.193 101.249 259.578 101.864 259.578 102.622V136.788C259.579 137.546 260.193 138.161 260.951 138.161Z" fill="url(#paint9_linear)"/>
<path opacity="0.5" d="M260.654 105.957H313.665C314.259 105.957 314.74 105.475 314.74 104.881V102.326C314.74 101.732 314.259 101.25 313.665 101.25H260.654C260.06 101.25 259.579 101.732 259.579 102.326V104.881C259.579 105.475 260.06 105.957 260.654 105.957Z" fill="white"/>
<g opacity="0.46">
<path opacity="0.46" d="M287.16 132.139C292.844 132.139 297.453 127.53 297.453 121.846C297.453 116.161 292.844 111.552 287.16 111.552C281.475 111.552 276.866 116.161 276.866 121.846C276.866 127.53 281.475 132.139 287.16 132.139Z" fill="white"/>
</g>
<path d="M292.539 120.939L285.637 116.954C284.939 116.551 284.066 117.054 284.066 117.86V125.83C284.066 126.636 284.939 127.14 285.637 126.737L292.539 122.752C293.236 122.35 293.236 121.342 292.539 120.939Z" fill="white"/>
<path d="M305.16 103.969C305.448 103.969 305.682 103.735 305.682 103.446C305.682 103.157 305.448 102.923 305.16 102.923C304.871 102.923 304.637 103.157 304.637 103.446C304.637 103.735 304.871 103.969 305.16 103.969Z" fill="white"/>
<path d="M308.267 103.969C308.555 103.969 308.789 103.735 308.789 103.446C308.789 103.157 308.555 102.923 308.267 102.923C307.978 102.923 307.744 103.157 307.744 103.446C307.744 103.735 307.978 103.969 308.267 103.969Z" fill="white"/>
<path d="M311.385 103.969C311.674 103.969 311.908 103.735 311.908 103.446C311.908 103.157 311.674 102.923 311.385 102.923C311.097 102.923 310.863 103.157 310.863 103.446C310.863 103.735 311.097 103.969 311.385 103.969Z" fill="white"/>
<path d="M259.88 175.242H234.753C232.808 175.242 231.23 173.665 231.23 171.719V146.592C231.23 144.647 232.808 143.069 234.753 143.069H259.88C261.826 143.069 263.403 144.647 263.403 146.592V171.719C263.403 173.665 261.826 175.242 259.88 175.242Z" fill="#B8BEC7"/>
<path d="M252.923 164.962H241.711C240.584 164.962 239.666 164.045 239.666 162.917V155.396C239.666 154.268 240.584 153.351 241.711 153.351H252.923C254.05 153.351 254.967 154.268 254.967 155.396V162.917C254.967 164.045 254.05 164.962 252.923 164.962ZM241.711 154.31C241.113 154.31 240.625 154.796 240.625 155.395V162.916C240.625 163.515 241.113 164.001 241.711 164.001H252.923C253.521 164.001 254.008 163.515 254.008 162.916V155.395C254.008 154.796 253.521 154.31 252.923 154.31H241.711Z" fill="white"/>
<path d="M247.472 159.674C246.856 159.674 246.24 159.507 245.686 159.172L239.897 155.668L240.394 154.848L246.183 158.352C247 158.847 248.007 158.833 248.811 158.319L254.229 154.855L254.746 155.663L249.328 159.128C248.758 159.491 248.115 159.674 247.472 159.674Z" fill="white"/>
<path d="M534.685 109.435H482.764C480.489 109.435 478.644 107.59 478.644 105.315V71.5663C478.644 69.2906 480.489 67.4467 482.764 67.4467H534.685C536.959 67.4467 538.804 69.2906 538.804 71.5663V105.314C538.804 107.59 536.959 109.435 534.685 109.435Z" fill="white"/>
<path d="M496.985 116.268C497.677 116.809 498.605 116.812 499.301 116.272L526.868 94.8432C525.803 93.4406 524.177 92.5426 522.352 92.5426H472.91C471.384 92.5426 470.029 93.3044 469.151 94.4883C469.182 94.5075 469.216 94.5123 469.247 94.5362L496.985 116.268Z" fill="#CBEAD1"/>
<path d="M500.283 117.708C499.643 118.205 498.895 118.453 498.146 118.453C497.393 118.453 496.64 118.202 495.999 117.698L491.789 114.4L470.519 134.574C470.503 134.589 470.483 134.594 470.466 134.607C470.924 134.813 471.427 134.927 471.954 134.927H524.324C524.622 134.927 524.907 134.883 525.185 134.815L504.014 114.805L500.283 117.708Z" fill="#CBEAD1"/>
<path d="M490.416 113.324L468.362 96.0454C468.205 96.552 468.116 97.0911 468.116 97.6534V130.835C468.116 131.931 468.526 132.92 469.182 133.655C469.225 133.504 469.293 133.36 469.411 133.247L490.416 113.324Z" fill="#CBEAD1"/>
<path d="M526.645 133.822C526.693 133.867 526.719 133.925 526.755 133.978C527.608 133.228 528.162 132.106 528.162 130.835V98.7355C528.162 97.8999 528.005 97.1036 527.724 96.3763L505.392 113.736L526.645 133.822Z" fill="#CBEAD1"/>
<path d="M526.115 104.824C532.277 104.824 537.272 99.8284 537.272 93.6661C537.272 87.5038 532.277 82.5083 526.115 82.5083C519.952 82.5083 514.957 87.5038 514.957 93.6661C514.957 99.8284 519.952 104.824 526.115 104.824Z" fill="#51BA65"/>
<path d="M523.644 97.9767H522.421V90.5922L521.181 91.353V90.0885L522.421 89.2615H523.644V97.9767Z" fill="white"/>
<path d="M526.254 97.4135C525.833 96.9779 525.622 96.3706 525.622 95.5916V91.6303C525.622 90.8464 525.834 90.2382 526.257 89.8045C526.68 89.3709 527.298 89.1541 528.11 89.1541C528.924 89.1541 529.542 89.3699 529.965 89.8016C530.385 90.2334 530.597 90.8426 530.597 91.6303V95.5916C530.597 96.3745 530.385 96.9827 529.961 97.4164C529.538 97.85 528.92 98.0669 528.11 98.0669C527.293 98.0669 526.675 97.8491 526.254 97.4135ZM529.065 96.5654C529.272 96.3399 529.373 96.0147 529.373 95.5916V91.6303C529.373 91.2062 529.273 90.8819 529.068 90.6555C528.865 90.4301 528.544 90.3168 528.11 90.3168C527.674 90.3168 527.355 90.4301 527.15 90.6555C526.947 90.881 526.845 91.2062 526.845 91.6303V95.5916C526.845 96.0147 526.947 96.3399 527.153 96.5654C527.36 96.7909 527.678 96.9041 528.11 96.9041C528.541 96.9041 528.859 96.7909 529.065 96.5654Z" fill="white"/>
<path d="M416.007 34.3465H390.808C390.003 34.3465 389.234 34.6736 388.676 35.2531L382.407 41.7607C381.677 42.5186 380.396 42.0015 380.396 40.9491V31.0768V6.32052C380.396 2.83022 383.225 0 386.716 0H417.009C419.849 0 422.152 2.30256 422.152 5.14334V28.2006C422.153 31.5949 419.401 34.3465 416.007 34.3465Z" fill="#51BA65"/>
<path d="M391.533 20.0937C392.724 20.0937 393.69 19.1277 393.69 17.936C393.69 16.7444 392.724 15.7783 391.533 15.7783C390.341 15.7783 389.375 16.7444 389.375 17.936C389.375 19.1277 390.341 20.0937 391.533 20.0937Z" fill="white"/>
<path d="M401.645 20.0937C402.836 20.0937 403.802 19.1277 403.802 17.936C403.802 16.7444 402.836 15.7783 401.645 15.7783C400.453 15.7783 399.487 16.7444 399.487 17.936C399.487 19.1277 400.453 20.0937 401.645 20.0937Z" fill="white"/>
<path d="M411.995 20.0937C413.187 20.0937 414.153 19.1277 414.153 17.936C414.153 16.7444 413.187 15.7783 411.995 15.7783C410.803 15.7783 409.837 16.7444 409.837 17.936C409.837 19.1277 410.803 20.0937 411.995 20.0937Z" fill="white"/>
<path d="M351.389 220.392H229.526C228.067 220.392 226.885 219.21 226.885 217.751V200.028C226.885 198.569 228.067 197.387 229.526 197.387H351.389C352.848 197.387 354.03 198.569 354.03 200.028V217.751C354.03 219.21 352.847 220.392 351.389 220.392Z" fill="url(#paint10_linear)"/>
<path d="M332.656 213.668H259.864C259.312 213.668 258.865 213.221 258.865 212.67V205.23C258.865 204.678 259.312 204.231 259.864 204.231H332.656C333.208 204.231 333.655 204.678 333.655 205.23V212.67C333.655 213.221 333.208 213.668 332.656 213.668Z" fill="white"/>
<path d="M245.605 211.472C243.573 211.472 241.92 209.819 241.92 207.787C241.92 205.755 243.573 204.102 245.605 204.102C247.637 204.102 249.291 205.755 249.291 207.787C249.291 208.668 248.973 209.523 248.397 210.192C247.696 211.005 246.679 211.472 245.605 211.472ZM245.605 205.062C244.103 205.062 242.88 206.284 242.88 207.788C242.88 209.291 244.102 210.513 245.605 210.513C246.399 210.513 247.152 210.169 247.671 209.566C248.096 209.072 248.331 208.44 248.331 207.788C248.332 206.284 247.109 205.062 245.605 205.062Z" fill="white"/>
<path d="M251.591 213.798C251.468 213.798 251.345 213.751 251.251 213.658L247.753 210.16C247.566 209.973 247.566 209.669 247.753 209.482C247.94 209.295 248.245 209.295 248.432 209.482L251.93 212.98C252.117 213.167 252.117 213.471 251.93 213.658C251.837 213.751 251.714 213.798 251.591 213.798Z" fill="white"/>
<path d="M534.176 262.626H482.144C480.966 262.626 480.01 261.67 480.01 260.492V214.686C480.01 213.508 480.966 212.553 482.144 212.553H534.176C535.355 212.553 536.31 213.508 536.31 214.686V260.492C536.31 261.669 535.355 262.626 534.176 262.626Z" fill="white"/>
<path opacity="0.43" d="M534.176 262.626H482.144C480.966 262.626 480.01 261.67 480.01 260.492V214.686C480.01 213.508 480.966 212.553 482.144 212.553H534.176C535.355 212.553 536.31 213.508 536.31 214.686V260.492C536.31 261.669 535.355 262.626 534.176 262.626Z" fill="#51BA65"/>
<path opacity="0.83" d="M508.16 234.786C512.838 234.786 516.631 230.994 516.631 226.316C516.631 221.637 512.838 217.845 508.16 217.845C503.482 217.845 499.69 221.637 499.69 226.316C499.69 230.994 503.482 234.786 508.16 234.786Z" fill="white"/>
<path d="M508.148 226.764C509.337 226.764 510.301 225.801 510.301 224.612C510.301 223.423 509.337 222.459 508.148 222.459C506.959 222.459 505.995 223.423 505.995 224.612C505.995 225.801 506.959 226.764 508.148 226.764Z" fill="#51BA65"/>
<path d="M511.063 230.785H505.231C504.78 230.785 504.415 230.42 504.415 229.969C504.415 228.297 505.77 226.941 507.443 226.941H509.231C510.693 226.941 511.879 228.126 511.879 229.589V229.969C511.88 230.42 511.514 230.785 511.063 230.785Z" fill="#51BA65"/>
<path opacity="0.5" d="M522.116 244.914H494.204C492.827 244.914 491.711 243.798 491.711 242.42V241.468C491.711 240.092 492.827 238.975 494.204 238.975H522.116C523.494 238.975 524.61 240.092 524.61 241.468V242.42C524.609 243.798 523.493 244.914 522.116 244.914Z" fill="white"/>
<path opacity="0.5" d="M522.116 254.566H494.204C492.827 254.566 491.711 253.45 491.711 252.072V251.121C491.711 249.743 492.827 248.627 494.204 248.627H522.116C523.494 248.627 524.61 249.743 524.61 251.121V252.072C524.609 253.45 523.493 254.566 522.116 254.566Z" fill="white"/>
<path d="M528.715 219.936C528.592 219.936 528.469 219.889 528.375 219.796C528.188 219.609 528.188 219.305 528.375 219.118L531.598 215.894C531.785 215.707 532.089 215.707 532.276 215.894C532.463 216.082 532.463 216.386 532.276 216.573L529.054 219.796C528.961 219.89 528.838 219.936 528.715 219.936Z" fill="white"/>
<path d="M531.938 219.936C531.815 219.936 531.692 219.889 531.598 219.796L528.375 216.573C528.188 216.386 528.188 216.082 528.375 215.894C528.562 215.707 528.867 215.707 529.054 215.894L532.276 219.118C532.463 219.305 532.463 219.609 532.276 219.796C532.183 219.89 532.06 219.936 531.938 219.936Z" fill="white"/>
<path d="M483.081 299.477H535.497C536.255 299.477 536.871 298.862 536.871 298.104V271.115C536.871 270.356 536.255 269.741 535.497 269.741H483.081C482.323 269.741 481.708 270.356 481.708 271.115V298.104C481.709 298.862 482.323 299.477 483.081 299.477Z" fill="#B8BEC7"/>
<g opacity="0.93">
<path opacity="0.93" d="M493.658 292.661C498.105 292.661 501.709 289.056 501.709 284.609C501.709 280.163 498.105 276.558 493.658 276.558C489.212 276.558 485.607 280.163 485.607 284.609C485.607 289.056 489.212 292.661 493.658 292.661Z" fill="white"/>
</g>
<path d="M516.667 280.393H506.108C505.844 280.393 505.629 280.178 505.629 279.913C505.629 279.648 505.844 279.434 506.108 279.434H516.667C516.931 279.434 517.146 279.648 517.146 279.913C517.146 280.178 516.931 280.393 516.667 280.393Z" fill="white"/>
<path d="M528.823 280.393H519.412C519.147 280.393 518.932 280.178 518.932 279.913C518.932 279.648 519.147 279.434 519.412 279.434H528.823C529.087 279.434 529.302 279.648 529.302 279.913C529.302 280.178 529.087 280.393 528.823 280.393Z" fill="white"/>
<path d="M515.519 289.785H506.109C505.844 289.785 505.629 289.57 505.629 289.305C505.629 289.04 505.844 288.825 506.109 288.825H515.519C515.784 288.825 515.999 289.04 515.999 289.305C515.999 289.57 515.784 289.785 515.519 289.785Z" fill="white"/>
<path d="M524.426 284.824H515.015C514.75 284.824 514.535 284.609 514.535 284.345C514.535 284.08 514.75 283.865 515.015 283.865H524.426C524.69 283.865 524.905 284.08 524.905 284.345C524.905 284.609 524.69 284.824 524.426 284.824Z" fill="white"/>
<path d="M512.286 284.824H506.109C505.845 284.824 505.63 284.609 505.63 284.345C505.63 284.08 505.845 283.865 506.109 283.865H512.286C512.551 283.865 512.766 284.08 512.766 284.345C512.766 284.609 512.551 284.824 512.286 284.824Z" fill="white"/>
<path d="M522.21 289.785H518.413C518.148 289.785 517.933 289.57 517.933 289.305C517.933 289.04 518.148 288.825 518.413 288.825H522.21C522.475 288.825 522.69 289.04 522.69 289.305C522.69 289.57 522.476 289.785 522.21 289.785Z" fill="white"/>
<path d="M493.874 291.103C497.419 290.988 500.199 287.987 500.083 284.4C499.967 280.812 496.998 277.997 493.452 278.112C489.907 278.227 487.127 281.228 487.243 284.816C487.359 288.403 490.328 291.218 493.874 291.103Z" fill="#B8BEC7"/>
<path d="M493.628 285.079C493.456 285.084 493.312 284.949 493.306 284.778L493.184 280.991C493.178 280.819 493.313 280.675 493.485 280.669C493.657 280.663 493.8 280.799 493.806 280.97L493.929 284.757C493.936 284.93 493.8 285.073 493.628 285.079Z" fill="white"/>
<path d="M493.335 284.716C493.329 284.543 493.464 284.4 493.635 284.394L496.554 284.299C496.727 284.294 496.87 284.429 496.876 284.6C496.882 284.772 496.746 284.915 496.575 284.921L493.656 285.016C493.483 285.022 493.339 284.888 493.335 284.716Z" fill="white"/>
<defs>
<linearGradient id="paint0_linear" x1="304.14" y1="8.60399" x2="322.184" y2="87.8998" gradientUnits="userSpaceOnUse">
<stop offset="0.0249741" stop-color="#51BA65"/>
<stop offset="0.987852" stop-color="#384DA1"/>
</linearGradient>
<linearGradient id="paint1_linear" x1="363.531" y1="106.785" x2="401.279" y2="119.115" gradientUnits="userSpaceOnUse">
<stop offset="0.0249741" stop-color="#51BA65"/>
<stop offset="0.987852" stop-color="#384DA1"/>
</linearGradient>
<linearGradient id="paint2_linear" x1="81.7771" y1="79.0754" x2="93.8806" y2="136.287" gradientUnits="userSpaceOnUse">
<stop offset="0.0249741" stop-color="#51BA65"/>
<stop offset="0.987852" stop-color="#384DA1"/>
</linearGradient>
<linearGradient id="paint3_linear" x1="126.969" y1="257.506" x2="164.717" y2="269.836" gradientUnits="userSpaceOnUse">
<stop offset="0.0249741" stop-color="#51BA65"/>
<stop offset="0.987852" stop-color="#384DA1"/>
</linearGradient>
<linearGradient id="paint4_linear" x1="371.065" y1="289.679" x2="408.813" y2="302.008" gradientUnits="userSpaceOnUse">
<stop offset="0.0249741" stop-color="#51BA65"/>
<stop offset="0.987852" stop-color="#384DA1"/>
</linearGradient>
<linearGradient id="paint5_linear" x1="20.8454" y1="205.207" x2="44.6691" y2="266.015" gradientUnits="userSpaceOnUse">
<stop offset="0.0249741" stop-color="#51BA65"/>
<stop offset="0.987852" stop-color="#384DA1"/>
</linearGradient>
<linearGradient id="paint6_linear" x1="20.1212" y1="171.477" x2="59.8321" y2="189.742" gradientUnits="userSpaceOnUse">
<stop offset="0.0249741" stop-color="#51BA65"/>
<stop offset="0.987852" stop-color="#384DA1"/>
</linearGradient>
<linearGradient id="paint7_linear" x1="53.513" y1="165.815" x2="61.4249" y2="168.399" gradientUnits="userSpaceOnUse">
<stop offset="0.0249741" stop-color="#51BA65"/>
<stop offset="0.987852" stop-color="#384DA1"/>
</linearGradient>
<linearGradient id="paint8_linear" x1="52.3595" y1="170.815" x2="63.1845" y2="177.68" gradientUnits="userSpaceOnUse">
<stop offset="0.0249741" stop-color="#51BA65"/>
<stop offset="0.987852" stop-color="#384DA1"/>
</linearGradient>
<linearGradient id="paint9_linear" x1="267.013" y1="59.7802" x2="357.604" y2="104.001" gradientUnits="userSpaceOnUse">
<stop offset="0.0249741" stop-color="#51BA65"/>
<stop offset="0.987852" stop-color="#384DA1"/>
</linearGradient>
<linearGradient id="paint10_linear" x1="244.022" y1="171.541" x2="304.733" y2="281.138" gradientUnits="userSpaceOnUse">
<stop offset="0.0249741" stop-color="#51BA65"/>
<stop offset="0.987852" stop-color="#384DA1"/>
</linearGradient>
</defs>
</svg>
